<svg preserveAspectRatio="none" width="100%" height="100%" overflow="visible" style="display: block;" viewBox="0 0 75 75" fill="none" xmlns="http://www.w3.org/2000/svg">
<g id="graphics" clip-path="url(#clip0_0_6)">
<path id="Vector" d="M0 0V75H75V0H0ZM72.9167 72.9167H2.08333V2.08333H72.9167V72.9167ZM10.6354 32.5833C8.47917 29.7917 7.29167 26.3542 7.29167 22.9167C7.29167 14.3021 14.3021 7.29167 22.9167 7.29167C29.5521 7.29167 35.2396 11.4583 37.5 17.3021C39.7604 11.4479 45.4479 7.29167 52.0833 7.29167C60.6979 7.29167 67.7083 14.3021 67.7083 22.9167C67.8229 26.0208 67.3958 28.0417 64.4375 32.4271L37.5 67.3229L18.3333 42.5104L19.9792 41.2396L37.5 63.9167L62.75 31.2083C65.3229 27.3854 65.7292 25.7917 65.625 22.9583C65.625 15.4583 59.5521 9.375 52.0833 9.375C44.6146 9.375 38.5417 15.4479 38.5417 22.9167H36.4583C36.4583 15.4479 30.3854 9.375 22.9167 9.375C15.4479 9.375 9.375 15.4479 9.375 22.9167C9.375 25.8542 10.4375 28.9167 12.2812 31.3125L12.9167 32.1354L11.2708 33.4062L10.6354 32.5833ZM20.4062 38.5417H7.29167V36.4583H19.1771L25.9687 24.0104L37.3854 41.6563L43.1042 30.2083H56.25V32.2917H44.3958L37.6146 45.8437L26.1146 28.0729L20.4062 38.5417Z" fill="var(--fill-0, #F900D3)"/>
</g>
<defs>
<clipPath id="clip0_0_6">
<rect width="75" height="75" fill="white"/>
</clipPath>
</defs>
</svg>
