<svg preserveAspectRatio="none" width="100%" height="100%" overflow="visible" style="display: block;" viewBox="0 0 47 47" fill="none" xmlns="http://www.w3.org/2000/svg">
<g id="Consumer &#38; Industrial Products" clip-path="url(#clip0_0_75)">
<path id="Vector (Stroke)" fill-rule="evenodd" clip-rule="evenodd" d="M0 0.232673H47V46.7673H0V0.232673ZM1.41 1.62871V45.3713H45.59V1.62871H1.41Z" fill="var(--fill-0, #F900D3)"/>
<path id="Vector (Stroke)_2" fill-rule="evenodd" clip-rule="evenodd" d="M37.6 38.1584H9.4V36.7624H37.6V38.1584Z" fill="var(--fill-0, #F900D3)"/>
<path id="Vector (Stroke)_3" fill-rule="evenodd" clip-rule="evenodd" d="M10.9509 17.7759H15.7449V38.158H10.9509V17.7759ZM12.3609 19.1719V36.762H14.3349V19.1719H12.3609Z" fill="var(--fill-0, #F900D3)"/>
<path id="Vector (Stroke)_4" fill-rule="evenodd" clip-rule="evenodd" d="M14.335 28.9446H32.665V38.1584H14.335V28.9446ZM15.745 30.3406V36.7624H31.255V30.3406H15.745Z" fill="var(--fill-0, #F900D3)"/>
<path id="Vector (Stroke)_5" fill-rule="evenodd" clip-rule="evenodd" d="M31.255 33.4123H38.305V38.1588H31.255V33.4123ZM32.665 34.8083V36.7627H36.895V34.8083H32.665Z" fill="var(--fill-0, #F900D3)"/>
<path id="Vector (Stroke)_6" fill-rule="evenodd" clip-rule="evenodd" d="M16.591 25.5937H21.385V30.3402H16.591V25.5937ZM18.001 26.9897V28.9442H19.975V26.9897H18.001Z" fill="var(--fill-0, #F900D3)"/>
<path id="Vector (Stroke)_7" fill-rule="evenodd" clip-rule="evenodd" d="M27.448 33.4123H29.704V34.8083H27.448V33.4123Z" fill="var(--fill-0, #F900D3)"/>
<path id="Vector (Stroke)_8" fill-rule="evenodd" clip-rule="evenodd" d="M24.0639 33.4123H26.3199V34.8083H24.0639V33.4123Z" fill="var(--fill-0, #F900D3)"/>
<path id="Vector (Stroke)_9" fill-rule="evenodd" clip-rule="evenodd" d="M20.68 33.4123H22.936V34.8083H20.68V33.4123Z" fill="var(--fill-0, #F900D3)"/>
<path id="Vector (Stroke)_10" fill-rule="evenodd" clip-rule="evenodd" d="M17.2959 33.4123H19.5519V34.8083H17.2959V33.4123Z" fill="var(--fill-0, #F900D3)"/>
<path id="Vector (Stroke)_11" fill-rule="evenodd" clip-rule="evenodd" d="M20.4235 24.5546C20.3292 24.6902 20.257 24.8797 20.257 25.1752H18.847C18.847 24.6332 18.9864 24.1596 19.2622 23.7629C19.5334 23.3729 19.9042 23.1037 20.2943 22.9106C21.0247 22.549 21.959 22.395 22.7587 22.2632C22.7793 22.2598 22.7998 22.2564 22.8201 22.2531C23.6992 22.108 24.4274 21.9813 24.9473 21.7239C25.1917 21.6029 25.3496 21.4708 25.4486 21.3286C25.5429 21.193 25.615 21.0035 25.615 20.7079H27.025C27.025 21.25 26.8857 21.7236 26.6099 22.1203C26.3387 22.5102 25.9679 22.7795 25.5778 22.9726C24.8474 23.3342 23.9131 23.4882 23.1134 23.62C23.0928 23.6234 23.0723 23.6267 23.0519 23.6301C22.1729 23.7752 21.4446 23.9019 20.9248 24.1592C20.6804 24.2802 20.5225 24.4123 20.4235 24.5546Z" fill="var(--fill-0, #F900D3)"/>
<path id="Vector (Stroke)_12" fill-rule="evenodd" clip-rule="evenodd" d="M32.6448 14.3758C30.3816 15.2722 27.7871 15.3298 25.8215 13.3837C24.759 12.3316 23.8362 11.9465 23.0235 12.0471C22.1976 12.1493 21.2233 12.7833 20.1386 14.3941C19.4903 15.3569 18.7297 15.875 17.942 16.135C17.1982 16.3804 16.4667 16.3803 15.9187 16.3802C15.9077 16.3802 15.8968 16.3802 15.886 16.3802C15.594 16.3802 15.3712 16.381 15.1796 16.4021C14.9908 16.4229 14.8924 16.4582 14.8388 16.4901L14.8375 16.4909C14.7994 16.5134 14.617 16.6212 14.617 17.3574H13.207C13.207 16.427 13.4434 15.691 14.1133 15.293C14.4121 15.1155 14.7368 15.0462 15.0239 15.0146C15.301 14.9841 15.5987 14.9841 15.8654 14.9842L15.886 14.9842C16.4626 14.9842 16.9857 14.979 17.4961 14.8106C17.9774 14.6517 18.4857 14.3322 18.9655 13.6197C20.1368 11.88 21.4185 10.8388 22.8486 10.6618C24.2919 10.4832 25.6251 11.2149 26.8186 12.3965L26.32 12.8901L26.8186 12.3965C28.2369 13.8009 30.1544 13.8585 32.1212 13.0796C34.0972 12.297 35.9605 10.7161 37.0134 9.15241L38.1866 9.9268C36.9835 11.7136 34.8988 13.4832 32.6448 14.3758Z" fill="var(--fill-0, #F900D3)"/>
<path id="Vector (Stroke)_13" fill-rule="evenodd" clip-rule="evenodd" d="M32.665 24.896V29.6426H31.255V27.6881L27.871 30.201L27.025 29.0842L32.665 24.896Z" fill="var(--fill-0, #F900D3)"/>
<path id="Vector (Stroke)_14" fill-rule="evenodd" clip-rule="evenodd" d="M28.1529 24.896V29.6426H26.7429V27.6881L23.3589 30.201L22.5129 29.0842L28.1529 24.896Z" fill="var(--fill-0, #F900D3)"/>
</g>
<defs>
<clipPath id="clip0_0_75">
<rect width="47" height="47" fill="white"/>
</clipPath>
</defs>
</svg>
