<svg preserveAspectRatio="none" width="100%" height="100%" overflow="visible" style="display: block;" viewBox="0 0 75 75" fill="none" xmlns="http://www.w3.org/2000/svg">
<g id="graphics" clip-path="url(#clip0_0_4)">
<path id="Vector" d="M43.75 38.5417H29.1667V9.375H31.25V36.4583H45.8333V65.625H43.75V38.5417ZM46.875 16.6667C46.875 14.7292 48.2083 13.0937 50 12.6354V9.375H52.0833V12.6354C53.5417 13.0104 54.6979 14.1667 55.0729 15.625H66.6667V65.625H64.5833V17.7083H55.0729C54.6042 19.5 52.9792 20.8333 51.0417 20.8333C48.7396 20.8333 46.875 18.9687 46.875 16.6667ZM48.9583 16.6667C48.9583 17.8125 49.8958 18.75 51.0417 18.75C52.1875 18.75 53.125 17.8125 53.125 16.6667C53.125 15.5208 52.1875 14.5833 51.0417 14.5833C49.8958 14.5833 48.9583 15.5208 48.9583 16.6667ZM36.4583 27.0833C36.4583 25.1458 37.7917 23.5104 39.5833 23.0521V9.375H41.6667V23.0521C43.125 23.4271 44.2812 24.5833 44.6562 26.0417H56.25V52.2187C58.0417 52.6875 59.375 54.3125 59.375 56.25C59.375 58.1875 58.0417 59.8229 56.25 60.2812V65.625H54.1667V60.2812C52.375 59.8125 51.0417 58.1875 51.0417 56.25C51.0417 54.3125 52.375 52.6771 54.1667 52.2187V28.125H44.6562C44.1875 29.9167 42.5625 31.25 40.625 31.25C38.3229 31.25 36.4583 29.3854 36.4583 27.0833ZM55.2083 54.1667C54.0625 54.1667 53.125 55.1042 53.125 56.25C53.125 57.3958 54.0625 58.3333 55.2083 58.3333C56.3542 58.3333 57.2917 57.3958 57.2917 56.25C57.2917 55.1042 56.3542 54.1667 55.2083 54.1667ZM38.5417 27.0833C38.5417 28.2292 39.4792 29.1667 40.625 29.1667C41.7708 29.1667 42.7083 28.2292 42.7083 27.0833C42.7083 25.9375 41.7708 25 40.625 25C39.4792 25 38.5417 25.9375 38.5417 27.0833ZM15.625 18.75C15.625 16.8125 16.9583 15.1771 18.75 14.7187V9.375H20.8333V14.7187C22.625 15.1875 23.9583 16.8125 23.9583 18.75C23.9583 20.6875 22.625 22.3229 20.8333 22.7813V46.875H30.3437C30.8125 45.0833 32.4375 43.75 34.375 43.75C36.6771 43.75 38.5417 45.6146 38.5417 47.9167C38.5417 49.8542 37.2083 51.4896 35.4167 51.9479V65.625H33.3333V51.9479C31.875 51.5729 30.7187 50.4167 30.3437 48.9583H18.75V22.7813C16.9583 22.3125 15.625 20.6875 15.625 18.75ZM32.2917 47.9167C32.2917 49.0625 33.2292 50 34.375 50C35.5208 50 36.4583 49.0625 36.4583 47.9167C36.4583 46.7708 35.5208 45.8333 34.375 45.8333C33.2292 45.8333 32.2917 46.7708 32.2917 47.9167ZM17.7083 18.75C17.7083 19.8958 18.6458 20.8333 19.7917 20.8333C20.9375 20.8333 21.875 19.8958 21.875 18.75C21.875 17.6042 20.9375 16.6667 19.7917 16.6667C18.6458 16.6667 17.7083 17.6042 17.7083 18.75ZM20.9687 59.375H8.33333V9.375H10.4167V57.2917H20.9687C21.4375 55.5 23.0625 54.1667 25 54.1667C27.3021 54.1667 29.1667 56.0312 29.1667 58.3333C29.1667 60.6354 27.3021 62.5 25 62.5C23.0625 62.5 21.4271 61.1667 20.9687 59.375ZM22.9167 58.3333C22.9167 59.4792 23.8542 60.4167 25 60.4167C26.1458 60.4167 27.0833 59.4792 27.0833 58.3333C27.0833 57.1875 26.1458 56.25 25 56.25C23.8542 56.25 22.9167 57.1875 22.9167 58.3333ZM75 0V75H0V0H75ZM72.9167 2.08333H2.08333V72.9167H72.9167V2.08333Z" fill="var(--fill-0, #F900D3)"/>
</g>
<defs>
<clipPath id="clip0_0_4">
<rect width="75" height="75" fill="white"/>
</clipPath>
</defs>
</svg>
