<svg preserveAspectRatio="none" width="100%" height="100%" overflow="visible" style="display: block;" viewBox="0 0 75 75" fill="none" xmlns="http://www.w3.org/2000/svg">
<g id="graphics" clip-path="url(#clip0_0_8)">
<path id="Vector" d="M15.4792 38.5625L20.9687 44.0938C20.6771 44.25 20.4062 44.4479 20.1667 44.6979L19.1979 45.6875C17.75 47.1458 17.75 49.5208 19.1979 50.9792C19.9062 51.6875 20.8333 52.0833 21.8333 52.0833C21.8542 52.0833 21.8854 52.0833 21.9062 52.0833C21.8854 53.0729 22.25 54.0625 22.9896 54.8125C23.6979 55.5208 24.6354 55.9167 25.625 55.9062C25.625 55.9062 25.6771 55.9062 25.6979 55.9062C25.6771 56.8958 26.0417 57.8854 26.7812 58.6354C27.4896 59.3437 28.4167 59.7396 29.4167 59.7396C29.4375 59.7396 29.4687 59.7396 29.4896 59.7396C29.4687 60.7187 29.8333 61.7083 30.5729 62.4583C31.2812 63.1667 32.2187 63.5625 33.2083 63.5625C34.1979 63.5625 35.1354 63.1667 35.8437 62.4583L37.2708 61.0104C37.3437 60.9375 37.4167 60.8542 37.4896 60.7708L39.1667 62.4583C39.875 63.1667 40.8021 63.5625 41.8021 63.5625C42.8021 63.5625 43.7292 63.1667 44.4375 62.4583C45.1771 61.7083 45.5417 60.7187 45.5208 59.7396C45.5417 59.7396 45.5729 59.7396 45.5937 59.7396C46.5937 59.7396 47.5208 59.3437 48.2292 58.6354C48.9687 57.8854 49.3333 56.8958 49.3125 55.9062C49.3333 55.9062 49.3646 55.9062 49.3854 55.9062C50.3854 55.9062 51.3125 55.5104 52.0208 54.8021C52.7604 54.0521 53.125 53.0625 53.1042 52.0729C53.125 52.0729 53.1562 52.0729 53.1771 52.0729C54.1771 52.0729 55.1042 51.6771 55.8125 50.9687C57.2604 49.5104 57.2604 47.1354 55.8125 45.6771L54.1354 43.9896L59.5208 38.5625L61.4167 40.4792L68.1354 33.7083L47.7083 13.1146L40.9896 19.8854L42.8854 21.7917L41.2396 23.4583C40.1562 22.6771 38.8646 22.25 37.5104 22.25C36.1562 22.25 34.8542 22.6771 33.7708 23.4583L32.1146 21.7917L34.0104 19.875L27.2917 13.1042L6.86458 33.6979L13.5833 40.4687L15.4792 38.5625ZM20.6667 49.5C20.0208 48.8542 20.0208 47.7917 20.6771 47.1354L21.6354 46.1667C21.9479 45.8542 22.3542 45.6875 22.7917 45.6875C23.2292 45.6875 23.6354 45.8646 23.9479 46.1667C24.5937 46.8125 24.5937 47.875 23.9479 48.5208L22.9792 49.5C22.3646 50.125 21.2917 50.125 20.6667 49.5ZM24.4583 53.3333C23.8125 52.6875 23.8125 51.625 24.4583 50.9792L25.8854 49.5312C26.1979 49.2187 26.6042 49.0521 27.0417 49.0521C27.4792 49.0521 27.8854 49.2292 28.1979 49.5312C28.8437 50.1771 28.8437 51.2396 28.1979 51.8854L26.7708 53.3229C26.1562 53.9479 25.0729 53.9479 24.4583 53.3229V53.3333ZM28.25 57.1562C27.6042 56.5104 27.6042 55.4479 28.25 54.8021L30.1458 52.8854C30.4583 52.5729 30.8646 52.4062 31.3021 52.4062C31.7396 52.4062 32.1458 52.5833 32.4583 52.8854C33.1042 53.5312 33.1042 54.5937 32.4583 55.2396L32.0417 55.6562C32.0417 55.6562 32.0104 55.6875 31.9896 55.7083L30.5521 57.1562C30.5521 57.1562 30.5521 57.1562 30.5521 57.1667C29.9271 57.7812 28.8646 57.7812 28.25 57.1667V57.1562ZM35.7917 59.5312L34.3646 60.9792C33.7396 61.6042 32.6771 61.6042 32.0521 60.9792C31.4167 60.3333 31.4062 59.2917 32.0417 58.6354C32.0417 58.6354 32.0417 58.6354 32.0521 58.625L33.5208 57.1354C33.8229 56.8542 34.2187 56.6979 34.6354 56.6979C35.0521 56.6979 35.4792 56.8646 35.7917 57.1771C36.4375 57.8229 36.4375 58.8854 35.7917 59.5312ZM47.7083 16.0625L65.1979 33.6979L61.4167 37.5104L43.9271 19.875L47.7083 16.0625ZM37.5 24.3333C38.6562 24.3333 39.7396 24.7917 40.5521 25.6146L41.2917 26.3646L44.3542 23.2812L58.0521 37.0937L52.6667 42.5208L41.2917 31.0521L40.5521 31.8021C39.7396 32.625 38.6562 33.0833 37.5 33.0833C36.3437 33.0833 35.2604 32.625 34.4479 31.8021L33.7083 31.0521L28.3125 36.4896C28.0104 36.75 27.6354 36.8958 27.2396 36.8958C26.8021 36.8958 26.3958 36.7187 26.0833 36.4167C25.4375 35.7708 25.4375 34.7083 26.0833 34.0521L34.4479 25.625C35.2604 24.8021 36.3542 24.3437 37.5 24.3437V24.3333ZM32.2396 24.875L24.6042 32.5729C23.1563 34.0312 23.1563 36.4062 24.6042 37.8646C25.3125 38.5729 26.25 38.9687 27.2396 38.9687C28.2396 38.9687 29.1667 38.5729 29.875 37.8646L33.7604 33.9375C35.9167 35.5104 39.0625 35.5104 41.2292 33.9375L54.3333 47.1458C54.9792 47.7917 54.9792 48.8542 54.3333 49.5C54.0208 49.8125 53.6146 49.9792 53.1771 49.9792C52.7396 49.9792 52.3333 49.8021 52.0208 49.5L43.7604 41.1771L42.2812 42.6458L50.5417 50.9687C51.1875 51.6146 51.1875 52.6771 50.5417 53.3229C49.9271 53.9479 48.8437 53.9479 48.2292 53.3229L39.9687 45L38.4896 46.4687L46.75 54.7917C47.3958 55.4375 47.3958 56.5 46.75 57.1458C46.1354 57.7708 45.0625 57.7708 44.4375 57.1458L36.1771 48.8229L34.6979 50.2917L42.9583 58.625C42.9583 58.625 42.9583 58.625 42.9687 58.6354C43.5937 59.2812 43.5938 60.3333 42.9583 60.9792C42.6458 61.2917 42.2396 61.4583 41.8021 61.4583C41.3646 61.4583 40.9583 61.2812 40.6458 60.9792L38.3437 58.6667C38.4271 57.6146 38.0729 56.5208 37.2708 55.7187C36.6458 55.0937 35.8542 54.7187 34.9896 54.6354C35.1562 53.5 34.8125 52.3021 33.9479 51.4271C33.1146 50.5833 31.9062 50.2396 30.7604 50.4062C30.6875 49.5521 30.3333 48.7292 29.6875 48.0729C28.8542 47.2292 27.6458 46.8854 26.5 47.0521C26.4271 46.1979 26.0729 45.3646 25.4271 44.7187C24.8958 44.1875 24.2187 43.8542 23.5104 43.7187L16.9479 37.1042L30.6458 23.2917L32.2396 24.8958V24.875ZM27.2917 16.0625L31.0729 19.875L13.5833 37.5104L9.80208 33.6979L27.2917 16.0625ZM0 0V75H75V0H0ZM72.9167 72.9167H2.08333V2.08333H72.9167V72.9167Z" fill="var(--fill-0, #F900D3)"/>
</g>
<defs>
<clipPath id="clip0_0_8">
<rect width="75" height="75" fill="white"/>
</clipPath>
</defs>
</svg>
