<svg preserveAspectRatio="none" width="100%" height="100%" overflow="visible" style="display: block;" viewBox="0 0 75 75" fill="none" xmlns="http://www.w3.org/2000/svg">
<g id="graphics" clip-path="url(#clip0_0_11)">
<path id="Vector" d="M32.9583 13.0521C32.4896 12.6354 31.9687 12.25 31.4271 11.9271L32.5104 10.1458C33.1562 10.5417 33.7812 11 34.3437 11.5L32.9583 13.0521ZM35.2917 16.0417L37.1354 15.0833C36.7813 14.4062 36.375 13.7604 35.9062 13.1667L34.2604 14.4479C34.6458 14.9479 35 15.4896 35.2917 16.0521V16.0417ZM30.4687 9.14583C29.7604 8.875 29.0208 8.66667 28.2708 8.54167L27.9062 10.5937C28.5312 10.7083 29.1458 10.875 29.7396 11.1042L30.4792 9.15625L30.4687 9.14583ZM26 10.4167V8.33333C25.2292 8.33333 24.4687 8.40625 23.7187 8.55208L24.1042 10.6042C24.7187 10.4896 25.3646 10.4271 26 10.4271V10.4167ZM36.3958 19.6563L38.4687 19.4271C38.3854 18.6771 38.2292 17.9271 38.0104 17.1979L36.0208 17.8021C36.2083 18.4062 36.3333 19.0313 36.4062 19.6563H36.3958ZM38.5417 25.8229H36.4583V27.9167H38.5417V25.8229ZM22.2812 11.1146L21.5312 9.16667C20.8229 9.4375 20.1354 9.78125 19.4896 10.1771L20.5833 11.9479C21.125 11.6146 21.6979 11.3333 22.2812 11.1042V11.1146ZM36.4583 32.0937H38.5417V30H36.4583V32.0937ZM36.4583 23.7292H38.5417V21.6354H36.4583V23.7292ZM36.4583 35.4167H38.5417V34.1875H36.4583V35.4167ZM16.7604 16.1042L14.9062 15.1562C14.5625 15.8333 14.2708 16.5521 14.0625 17.2708L16.0625 17.8646C16.2396 17.2604 16.4792 16.6667 16.7708 16.1042H16.7604ZM15.625 40.5521H13.5417V42.6458H15.625V40.5521ZM15.625 36.3646H13.5417V38.4583H15.625V36.3646ZM19.0625 13.1042L17.6667 11.5625C17.1042 12.0729 16.5833 12.6354 16.125 13.2396L17.7812 14.5104C18.1667 14.0104 18.6042 13.5417 19.0729 13.1146L19.0625 13.1042ZM15.625 32.1771H13.5417V34.2708H15.625V32.1771ZM15.625 48.9271H13.5417V51.0208H15.625V48.9271ZM15.625 44.7396H13.5417V46.8333H15.625V44.7396ZM15.625 20.8333C15.625 20.4583 15.6458 20.0937 15.6771 19.7292L13.6042 19.5104C13.5625 19.9479 13.5312 20.3854 13.5312 20.8333V21.7083H15.6146V20.8333H15.625ZM15.625 27.9896H13.5417V30.0833H15.625V27.9896ZM15.625 23.8021H13.5417V25.8958H15.625V23.8021ZM38.5417 37.5H36.4583V54.1667C36.4583 61.0625 42.0625 66.6667 48.9583 66.6667C55.8542 66.6667 61.4583 61.0625 61.4583 54.1667V27.5208L64.8854 30.9375L66.3542 29.4583L60.3958 23.5104L54.4687 29.4583L55.9479 30.9271L59.375 27.4896V54.1562C59.375 59.8958 54.6979 64.5729 48.9583 64.5729C43.2187 64.5729 38.5417 59.8958 38.5417 54.1562V37.4896V37.5ZM8.33333 60.4167C8.33333 57.3229 10.5937 54.75 13.5417 54.25V53.1146H15.625V54.25C18.5729 54.75 20.8333 57.3229 20.8333 60.4167C20.8333 63.8646 18.0312 66.6667 14.5833 66.6667C11.1354 66.6667 8.33333 63.8646 8.33333 60.4167ZM10.4167 60.4167C10.4167 62.7187 12.2812 64.5833 14.5833 64.5833C16.8854 64.5833 18.75 62.7187 18.75 60.4167C18.75 58.1146 16.8854 56.25 14.5833 56.25C12.2812 56.25 10.4167 58.1146 10.4167 60.4167ZM54.1667 14.5833C54.1667 11.1354 56.9687 8.33333 60.4167 8.33333C63.8646 8.33333 66.6667 11.1354 66.6667 14.5833C66.6667 18.0312 63.8646 20.8333 60.4167 20.8333C56.9687 20.8333 54.1667 18.0312 54.1667 14.5833ZM56.25 14.5833C56.25 16.8854 58.1146 18.75 60.4167 18.75C62.7187 18.75 64.5833 16.8854 64.5833 14.5833C64.5833 12.2812 62.7187 10.4167 60.4167 10.4167C58.1146 10.4167 56.25 12.2812 56.25 14.5833ZM24.5729 28.125L21.1458 31.5521L22.6146 33.0208L26.0417 29.5937L29.4687 33.0208L30.9375 31.5521L27.5104 28.125L30.9375 24.6979L29.4687 23.2292L26.0417 26.6562L22.6146 23.2292L21.1458 24.6979L24.5729 28.125ZM75 0V75H0V0H75ZM72.9167 2.08333H2.08333V72.9167H72.9167V2.08333ZM45.5312 51.7812L48.9583 48.3542L52.3854 51.7812L53.8542 50.3125L50.4271 46.8854L53.8542 43.4583L52.3854 41.9896L48.9583 45.4167L45.5312 41.9896L44.0625 43.4583L47.4896 46.8854L44.0625 50.3125L45.5312 51.7812Z" fill="var(--fill-0, #F900D3)"/>
</g>
<defs>
<clipPath id="clip0_0_11">
<rect width="75" height="75" fill="white"/>
</clipPath>
</defs>
</svg>
