<?xml version="1.0" encoding="UTF-8"?>
<svg id="Layer_1" xmlns="http://www.w3.org/2000/svg" version="1.1" viewBox="0 0 1193.6 39.6">
  <!-- Generator: Adobe Illustrator 30.2.1, SVG Export Plug-In . SVG Version: 2.1.1 Build 1)  -->
  <defs>
    <style>
      .st0 {
        fill: #070154;
      }
    </style>
  </defs>
  <path class="st0" d="M24.39,22.46c-9.46,0-18.91-.84-18.91-2.09s7.57-2.09,18.91-2.09c9.46,0,877.65-2.72,1131.11-1.47,11.35,0,18.91,1.05,18.91,2.09,0,1.26-9.46,2.09-18.91,2.09-253.46-1.26-1121.65,1.47-1131.11,1.47h0Z"/>
  <path class="st0" d="M1162.99,35.11c-1.01,0-1.78-.51-2.28-1.52-.51-1.27,0-2.79,1.27-3.3,8.62-4.06,16.23-8.88,20.29-11.66-4.82-2.54-13.44-6.59-19.27-9.38-1.27-.51-1.78-2.03-1.27-3.3s2.03-1.78,3.3-1.27c2.03,1.01,20.79,9.89,23.33,11.66.76.51,1.01,1.27,1.01,2.03s-.25,1.52-1.01,2.03c-.51.25-10.9,7.86-24.34,14.45-.25,0-.51.25-1.01.25Z"/>
</svg>