<svg width="54" height="54" viewBox="0 0 54 54" fill="none" xmlns="http://www.w3.org/2000/svg">
<g clip-path="url(#clip0_280_1002)">
<path d="M26.9574 25.5859C32.4995 25.5859 37.0042 21.0811 37.0042 15.539C37.0042 9.99692 32.4995 5.49219 26.9574 5.49219C21.4153 5.49219 16.9105 9.99692 16.9105 15.539C16.9105 21.0811 21.4153 25.5859 26.9574 25.5859ZM26.9574 6.90613C31.7179 6.90613 35.5832 10.7785 35.5832 15.5319C35.5832 20.2853 31.7108 24.1577 26.9574 24.1577C22.2039 24.1577 18.3316 20.2853 18.3316 15.5319C18.3316 10.7785 22.2039 6.90613 26.9574 6.90613Z" fill="#070154"/>
<path d="M48.4224 47.804C48.4224 36.6345 39.3347 27.5469 28.1653 27.5469H25.8276C14.6582 27.5469 5.57053 36.6345 5.57053 47.804V48.5145H48.4224V47.804ZM6.99868 47.0935C7.37526 37.0324 15.6742 28.9679 25.8205 28.9679H28.1582C38.3045 28.9679 46.6105 37.0324 46.98 47.0935H6.99868Z" fill="#070154"/>
<path d="M0 0V54H54V0H0ZM52.5789 52.5789H1.42105V1.42105H52.5789V52.5789Z" fill="#070154"/>
</g>
<defs>
<clipPath id="clip0_280_1002">
<rect width="54" height="54" fill="white"/>
</clipPath>
</defs>
</svg>
