<?xml version="1.0" encoding="UTF-8"?>
<svg id="artwork" xmlns="http://www.w3.org/2000/svg" version="1.1" viewBox="0 0 344.6 72">
  <!-- Generator: Adobe Illustrator 29.1.0, SVG Export Plug-In . SVG Version: 2.1.0 Build 54)  -->
  <defs>
    <style>
      .st0 {
        fill: #070154;
      }
    </style>
  </defs>
  <path class="st0" d="M91,25.6l4.3,13.1h0l3.6-13.1h7l3.9,13.1h0l3.9-13.1h6.5l-7.4,20.9h-6.4l-4.3-13.9h0l-3.9,13.9h-6.5l-7.6-20.9h6.9ZM141.7,42.8c-1,1.3-2.3,2.3-3.9,3.1-1.6.7-3.2,1.1-4.9,1.1s-3.1-.3-4.5-.8c-1.4-.5-2.7-1.3-3.7-2.2-1-1-1.9-2.1-2.5-3.5-.6-1.3-.9-2.8-.9-4.5s.3-3.2.9-4.5c.6-1.3,1.4-2.5,2.5-3.5,1-1,2.3-1.7,3.7-2.2,1.4-.5,2.9-.8,4.5-.8s2.8.3,4.1.8c1.2.5,2.2,1.3,3.1,2.2.8,1,1.5,2.1,2,3.5.5,1.3.7,2.8.7,4.5v2h-15c.3,1.2.8,2.2,1.7,2.9.9.7,1.9,1.1,3.2,1.1s2-.2,2.7-.7c.7-.5,1.4-1.1,1.9-1.8l4.5,3.3ZM136.2,33.6c0-1.1-.3-2-1.1-2.8-.7-.8-1.7-1.2-2.9-1.2s-1.3.1-1.9.3c-.5.2-1,.5-1.4.9-.4.4-.7.8-.9,1.2-.2.5-.3,1-.4,1.5h8.5,0ZM158.6,31.7c-.9-1.2-2.2-1.8-3.7-1.8s-1.1.1-1.6.4c-.5.3-.8.7-.8,1.3s.3.9.8,1.1c.5.2,1.2.5,2,.6.8.2,1.7.4,2.6.6.9.2,1.8.6,2.6,1,.8.5,1.5,1.1,2,1.9.5.8.8,1.8.8,3.2s-.3,2.5-.9,3.3c-.6.9-1.3,1.6-2.3,2.1-.9.5-2,.9-3.1,1.1-1.1.2-2.3.3-3.4.3s-2.9-.2-4.4-.6c-1.5-.4-2.8-1.2-3.8-2.2l3.9-4.3c.6.7,1.3,1.3,2,1.7.7.4,1.6.6,2.6.6s1.4-.1,2-.3c.6-.2.9-.6.9-1.2s-.3-1-.8-1.2c-.5-.3-1.2-.5-2-.7-.8-.2-1.7-.4-2.6-.6-.9-.2-1.8-.5-2.6-1-.8-.4-1.5-1-2-1.8-.5-.8-.8-1.8-.8-3.2s.2-2.3.7-3.2c.5-.9,1.2-1.6,2-2.2.8-.6,1.8-1,2.8-1.3,1.1-.3,2.1-.4,3.2-.4s2.8.2,4.2.6c1.4.4,2.6,1.1,3.6,2.1l-4,3.9h0ZM181.1,30.7h-5.7v7c0,.6,0,1.1,0,1.6,0,.5.2.9.4,1.2.2.3.5.6.9.8.4.2,1,.3,1.7.3s.8,0,1.4-.1,1-.2,1.3-.5v5.4c-.7.3-1.5.4-2.2.5-.8,0-1.5.1-2.3.1-1.1,0-2.1-.1-3-.3-.9-.2-1.7-.6-2.4-1.1-.7-.5-1.2-1.2-1.6-2-.4-.8-.6-1.8-.6-2.9v-9.9h-4.1v-5.1h4.1v-6.2h6.4v6.2h5.7v5.2ZM198.4,25.6v2.8h0c.2-.4.5-.8.9-1.2.4-.4.8-.8,1.3-1.1.5-.3,1.1-.6,1.8-.8.7-.2,1.4-.3,2.1-.3,1.5,0,2.8.3,3.9.9,1.1.6,2,1.5,2.6,2.8.7-1.3,1.6-2.3,2.7-2.9,1.1-.6,2.4-.9,3.9-.9s2.6.2,3.6.7c1,.5,1.7,1.1,2.3,1.9.6.8,1,1.8,1.2,2.9.2,1.1.4,2.3.4,3.5v12.3h-6.4v-12.1c0-1-.2-1.8-.6-2.5-.4-.7-1.1-1.1-2.2-1.1s-1.4.1-1.9.4c-.5.2-.9.6-1.2,1-.3.4-.5.9-.6,1.5-.1.6-.2,1.2-.2,1.8v11h-6.5v-11c0-.4,0-.8,0-1.4,0-.5-.1-1.1-.3-1.5-.2-.5-.5-.9-.8-1.2-.4-.3-1-.5-1.7-.5s-1.5.2-2,.5c-.5.3-.9.7-1.2,1.2-.3.5-.5,1.1-.5,1.7,0,.6-.1,1.3-.1,2v10.4h-6.4v-20.9h6.2ZM228.9,36c0-1.7.3-3.2.9-4.5.6-1.3,1.4-2.5,2.5-3.5,1-1,2.3-1.7,3.7-2.2,1.4-.5,2.9-.8,4.5-.8s3.1.3,4.5.8c1.4.5,2.6,1.3,3.7,2.2,1,1,1.9,2.1,2.5,3.5.6,1.3.9,2.8.9,4.5s-.3,3.2-.9,4.5c-.6,1.3-1.4,2.5-2.5,3.5-1,1-2.3,1.7-3.7,2.2-1.4.5-2.9.8-4.5.8s-3.1-.3-4.5-.8c-1.4-.5-2.6-1.3-3.7-2.2-1-1-1.9-2.1-2.5-3.5-.6-1.3-.9-2.8-.9-4.5ZM235.3,36c0,1.6.5,2.8,1.4,3.8.9,1,2.2,1.5,3.8,1.5s2.9-.5,3.8-1.5c.9-1,1.3-2.3,1.3-3.8s-.5-2.8-1.3-3.8c-.9-1-2.2-1.5-3.8-1.5s-2.9.5-3.8,1.5c-.9,1-1.4,2.2-1.4,3.8ZM262.1,25.6v2.8h0c.2-.4.5-.8.9-1.2.4-.4.8-.8,1.3-1.1.5-.3,1.1-.6,1.8-.8.7-.2,1.4-.3,2.2-.3,1.6,0,3,.2,4,.8,1,.5,1.8,1.2,2.3,2.1.6.9.9,1.9,1.1,3.1.2,1.2.3,2.5.3,3.9v11.5h-6.4v-10.2c0-.6,0-1.2,0-1.9,0-.6-.2-1.2-.4-1.8-.2-.5-.5-1-1-1.3-.4-.3-1.1-.5-1.9-.5s-1.5.2-2,.5c-.5.3-.9.7-1.2,1.2-.3.5-.5,1.1-.5,1.7,0,.6-.1,1.3-.1,2v10.4h-6.4v-20.9h6.2ZM280.7,25.6h6.4v3.3h0c.7-1.3,1.5-2.3,2.5-2.9.9-.6,2.1-1,3.6-1s.7,0,1.1,0c.4,0,.7,0,1,.2v5.9c-.5-.1-.9-.2-1.4-.3-.4,0-.9-.1-1.4-.1-1.2,0-2.2.2-2.9.5-.7.3-1.3.8-1.7,1.4-.4.6-.6,1.4-.8,2.2-.1.9-.2,1.8-.2,2.8v8.7h-6.4v-20.9ZM296.8,36c0-1.7.3-3.2.9-4.5.6-1.3,1.4-2.5,2.5-3.5,1-1,2.3-1.7,3.7-2.2,1.4-.5,2.9-.8,4.5-.8s3.1.3,4.5.8c1.4.5,2.6,1.3,3.7,2.2,1,1,1.9,2.1,2.5,3.5.6,1.3.9,2.8.9,4.5s-.3,3.2-.9,4.5c-.6,1.3-1.4,2.5-2.5,3.5-1,1-2.3,1.7-3.7,2.2-1.4.5-2.9.8-4.5.8s-3.1-.3-4.5-.8c-1.4-.5-2.6-1.3-3.7-2.2-1-1-1.9-2.1-2.5-3.5-.6-1.3-.9-2.8-.9-4.5ZM303.3,36c0,1.6.5,2.8,1.4,3.8.9,1,2.2,1.5,3.8,1.5s2.9-.5,3.8-1.5c.9-1,1.4-2.3,1.4-3.8s-.5-2.8-1.4-3.8c-.9-1-2.2-1.5-3.8-1.5s-2.9.5-3.8,1.5c-.9,1-1.4,2.2-1.4,3.8ZM343.6,42.8c-1,1.3-2.3,2.3-3.9,3.1-1.6.7-3.2,1.1-4.9,1.1s-3.1-.3-4.5-.8c-1.4-.5-2.7-1.3-3.7-2.2-1-1-1.9-2.1-2.5-3.5-.6-1.3-.9-2.8-.9-4.5s.3-3.2.9-4.5c.6-1.3,1.4-2.5,2.5-3.5,1-1,2.3-1.7,3.7-2.2,1.4-.5,2.9-.8,4.5-.8s2.8.3,4.1.8c1.2.5,2.2,1.3,3.1,2.2.8,1,1.5,2.1,1.9,3.5.5,1.3.7,2.8.7,4.5v2h-15c.3,1.2.8,2.2,1.7,2.9.9.7,1.9,1.1,3.2,1.1s2-.2,2.7-.7c.7-.5,1.4-1.1,1.9-1.8l4.5,3.3ZM338.1,33.6c0-1.1-.3-2-1.1-2.8-.7-.8-1.7-1.2-2.9-1.2s-1.3.1-1.9.3c-.5.2-1,.5-1.4.9-.4.4-.7.8-.9,1.2-.2.5-.3,1-.4,1.5h8.5,0ZM22.1,10.5h-11.6v11.6h11.6v-11.6ZM22.1,49.9h-11.6v11.6h11.6v-11.6ZM61.5,10.5h-11.6v11.6h11.6v-11.6ZM61.5,49.9h-11.6v11.6h11.6v-11.6ZM8.2,27.8L0,36l8.2,8.2,8.2-8.2-8.2-8.2ZM36,55.7l-8.2,8.2,8.2,8.2,8.2-8.2-8.2-8.2ZM36,0l-8.2,8.2,8.2,8.2,8.2-8.2L36,0ZM63.8,27.8l-8.2,8.2,8.2,8.2,8.2-8.2-8.2-8.2Z"/>
</svg>