<?xml version="1.0" encoding="UTF-8"?>
<svg id="Layer_1" xmlns="http://www.w3.org/2000/svg" version="1.1" viewBox="0 0 84 84">
  <!-- Generator: Adobe Illustrator 29.0.0, SVG Export Plug-In . SVG Version: 2.1.0 Build 186)  -->
  <defs>
    <style>
      .st0 {
        fill: #f900d3;
      }

      .st0, .st1, .st2 {
        stroke: #f900d3;
        stroke-miterlimit: 10;
      }

      .st1 {
        stroke-linecap: square;
      }

      .st1, .st2 {
        fill: none;
        stroke-width: 2px;
      }
    </style>
  </defs>
  <rect class="st1" x="5" y="5" width="74" height="74"/>
  <g>
    <path class="st0" d="M55,30.6c-3.1-3.1-7.3-4.9-11.7-4.9s-8.6,1.7-11.7,4.9c-3.1,3.1-4.9,7.3-4.9,11.7s1.7,8.6,4.9,11.7c3.1,3.1,7.3,4.9,11.7,4.9s8.6-1.7,11.7-4.9c3.1-3.1,4.9-7.3,4.9-11.7s-1.7-8.6-4.9-11.7ZM46.4,29c.4-.7.5-1.6.5-2.1,1.9.4,3.6,1.2,5.1,2.2-.1.1-.2.2-.3.2,0,0-.2,0-.4-.1-.1,0-.2,0-.3-.1-.2,0-.4-.1-.7,0-.3.1-.5.4-.6.9,0,.3-.2.6-.3.7s-.1,0-.1,0c0,0,0,0,0,0-.4-.5-1.1-.5-1.6-.5s-.4,0-.6,0c-.3,0-.6-.2-.6-.4,0-.2,0-.5.2-.7h0ZM40.6,26.7c0,.2,0,.5,0,.8,0,.4.3.7.6.9.4.2.8.4,1,.7,0,0,.1.2.1.2,0,0,0,.1,0,.2-.2.3-.2.7-.2,1.1,0,.2,0,.4,0,.6,0,.1,0,.2-.1.2,0,0-.1.1-.3.1-.3,0-.5.1-.7.2-.3.1-.5.3-.6.5,0,.2,0,.4,0,.8.1.5.4,1,.6,1.5.1.2.2.4.3.6.2.4.2.7,0,1.2-.6,1.1-.7,1.2-.4,1.9,0,.2,0,.3.2.4,0,.2.2.4.2.6s0,.3-.3.5c-.8.7-1.3,1.3-1.2,2.7.1,1.1,0,1.5-.7,2.1-.3.4-.4.8,0,1.2.4.6,1.2,1,1.8,1.3,0,0,.2,0,.2.1.3.2.5.3.5.6,0,.7-.4,2.1-1,2.6-.3.2-.5.3-.7.4-.4.1-.8.3-1.3,1-.2.3-.3.5-.3.7s.1.4.2.6c0,0,0,0,0,0,0,0,0,0,0,.2-.2.3-.6.7-.8.7,0,0,0,0-.2,0-.2-.2-.3-.5-.3-.7,0-.1,0-.2,0-.3,0-.2-.2-.2-.3-.3,0,0-.2-.1-.2-.2,0,0,0-.2,0-.3.5-.8.4-1.7-.2-2.8-.3-.5-.3-.8-.2-1.1,0-.2.2-.5.3-.9v-.2c.2-.2.2-.4.3-.5,0-.2.1-.3.1-.5s0-.3,0-.5c0-.2,0-.4-.2-.7,0-.5,0-.8.1-1,0,0,.1-.2.2-.3.1-.2.2-.3.2-.5,0-.4-.2-.7-.4-.8-.4-.3-.8-.4-1.3-.3-.5.1-.9.4-1.3.7-.1,0-.2.2-.3.2-.7.4-1.3.6-1.7.4-.3,0-.4-.4-.7-.7-.1-.2-.2-.4-.4-.6-.3-.4-.7-.5-1-.5-.1,0-.3,0-.3,0,0,0-.1-.2,0-.8.1-.6,0-1.2-.1-1.8-.3-.9-1-1.6-1.3-1.9,1.9-5.3,6.6-9.2,12.3-10.2h0ZM27.4,42.3c0-1.7.3-3.2.7-4.7.3.3.7.8.9,1.4.2.5.2.9.1,1.4-.2.7-.1,1.1,0,1.4.2.2.5.3.7.3.2,0,.5,0,.7.3.1.1.2.3.3.5.2.4.5.8,1,1,.6.2,1.3,0,2.2-.5.1,0,.2-.2.4-.2.3-.2.7-.5,1-.6.3,0,.5,0,.7.1.1.1.2.2.2.2,0,0,0,.2-.2.3,0,0-.1.2-.2.3-.2.4-.3.9-.2,1.5,0,.3.1.6.2.8s0,.3,0,.3,0,0,0,.2c0,.1-.1.3-.2.6v.2c-.2.4-.4.7-.4,1-.1.5,0,.9.3,1.5.5.9.5,1.6.2,2.2-.2.3-.2.6-.1.8,0,.2.3.4.4.5,0,0,.1,0,.1.1,0,0,0,.1,0,.2,0,.3.2.7.5,1,.2.2.5.3.6.3h0c.5,0,1.1-.7,1.3-1,.3-.4.1-.8,0-1,0,0,0,0,0,0,0,0,0-.1,0-.2s0-.1.2-.3c.4-.5.7-.6,1.1-.8.3,0,.6-.2.9-.5.9-.7,1.2-2.3,1.2-3.1s-.6-1-.8-1.2c0,0-.2,0-.2-.1-.6-.3-1.2-.6-1.5-1.1-.2-.2,0-.3,0-.4.7-.7,1-1.3.8-2.6-.1-1.1.3-1.5.9-2.2.3-.3.5-.6.5-1,0-.3-.1-.6-.2-.8,0-.1,0-.2-.1-.3,0-.3,0-.8.4-1.4.4-.7.3-1.3,0-1.8,0-.2-.2-.5-.3-.7-.2-.4-.4-.8-.5-1.3,0-.2,0-.3,0-.4,0,0,0,0,.2-.2.2,0,.4-.1.6-.2.3,0,.5-.2.7-.4.1-.1.2-.3.2-.5,0-.2,0-.5,0-.8,0-.3,0-.6.1-.8.2-.2.2-.5.2-.7,0-.2-.1-.4-.3-.6-.3-.3-.7-.5-1.2-.8-.2,0-.3-.2-.3-.4,0-.3,0-.6.1-.8.6,0,1.3-.1,1.9-.1,1,0,2,0,2.9.3,0,.6,0,1.4-.3,1.9-.4.6-.3,1-.2,1.3.2.4.6.8,1.2.8.2,0,.5,0,.7,0,.6,0,.9,0,1.1.3.2.2.4.3.6.3s0,0,0,0c.2,0,.4-.1.6-.3.2-.2.4-.6.5-1.1,0-.2.1-.3.2-.4,0,0,.1,0,.3,0,0,0,.2,0,.3,0,.2,0,.4.1.6.2.2,0,.6,0,.9-.5.6.4,1.2.9,1.7,1.4-.2,0-.5.2-.7.3-.5.3-.7.9-.7,1.5,0,.6,0,.7,0,.8s0,0-.2,0c-.2,0-.4,0-.5.3-.3.3-.2.7-.2,1,0,0,0,0,0,.1,0,.1,0,.2-.2.3h0c-.3.2-.7.4-.9.7-.1.1-.2.2-.2.3,0,0-.1.2-.2.2s0,0-.2,0c-.2,0-.5-.3-.7-.6h0c-.6-.6-1.3-.9-2-1-1,0-1.8.3-2.2.9-.4.6-.4,1.3,0,1.9.2.3.3.5.4.7.2.4.4.7,1.1,1.1.2.1.2.2.2.2,0,0,0,.2,0,.4-.1.3-.3.8,0,1.4.1.3.1.5.2.7,0,0,0,.1,0,.2,0,.2,0,.5.3.7.2.2.5.3,1.1.4.1,0,.1,0,.1,0,0,0,0,.2,0,.2h0c0,.3-.2.7-.2,1,0,.4.3.8.8,1.1.6.3,1,.4,1.3.4.2,0,.3-.1.4-.2s.2,0,.2,0c.1,0,.3,0,.5.1.2.1.2.2.2.3,0,0,0,.2-.2.5,0,0,0,0,0,0-.3.4-.6.8-.6,1.3,0,.7-.2,1.2-.9,1.5-.9.4-1.1,1.1-1.2,1.9,0,.2-.1.2-.2.3-.6.2-1.1.6-1.2,1.1-.1.6.2,1.1.8,1.4.5.2,1.1.4,1.7.4s.8,0,1.3-.2c0,0,.2,0,.2,0,0,0,0,0,0,0,0,0,.2,0,.4.1.4.2.8.2,1.1,0h0c0,0,.1,0,.2,0-2.7,2.3-6.2,3.6-10.1,3.6-8.8,0-15.9-7.1-15.9-15.9h0ZM53.3,54c-.4-.1,0-.3-.2-.2h0c-.3,0-.5,0-.7,0-.3-.1-.5-.2-.7-.2-.1,0-.2,0-.3.1,0,0,0,0-.1,0-1.1.4-1.9.1-2.6-.2-.3-.1-.5-.4-.4-.6,0-.3.3-.5.7-.6.4-.1.6-.4.7-.8.1-.8.3-1.2.8-1.4.9-.4,1.4-1.1,1.3-2.1,0-.3.2-.6.4-.9,0,0,0,0,0,0,.2-.3.3-.6.3-.8,0-.2,0-.6-.6-.9-.3-.2-.6-.2-.8-.2-.2,0-.4,0-.5.2,0,0-.2,0-.2,0-.2,0-.5,0-.9-.3-.4-.2-.5-.4-.5-.6,0-.2,0-.4.1-.6h0c0-.3,0-.6,0-.8-.1-.2-.4-.4-.7-.4-.4,0-.6-.1-.7-.2,0,0,0-.1,0-.3,0,0,0,0,0-.2,0-.3,0-.6-.2-.9-.1-.3,0-.6,0-.9,0-.2.1-.4.1-.7,0-.3-.2-.5-.6-.7-.6-.3-.6-.4-.8-.8,0-.2-.2-.4-.5-.8-.3-.5-.2-.9,0-1.1.4-.6,1.4-.6,1.6-.6.6,0,1.1.3,1.6.7h0c.4.4.7.7,1.1.8.3,0,.6,0,.8-.2.1-.1.2-.2.3-.4,0,0,.1-.2.2-.3.2-.2.5-.4.7-.5h0c.2-.2.5-.3.5-.9,0,0,0,0,0-.2,0-.1,0-.4,0-.4,0,0,0,0,.2,0,.2,0,.4,0,.6-.3.2-.2.3-.6.2-1.2,0-.4.1-.7.4-.9s.7-.3.9-.3c2.7,2.8,4.4,6.6,4.4,10.8s-2,8.6-5.1,11.5h0l-.8.2Z"/>
    <path class="st2" d="M25.1,24.2c3.3-3.3,7.6-5.8,12.4-6.9"/>
    <path class="st2" d="M22.6,57.5c-3.1-4.2-5-9.5-5-15.2s.5-5.9,1.5-8.5"/>
    <path class="st2" d="M46.9,67.7c-1.2.2-2.4.3-3.6.3-6,0-11.5-2.1-15.9-5.5"/>
    <path class="st2" d="M65.3,29.1c2.3,3.9,3.6,8.4,3.6,13.2,0,9.7-5.4,18.1-13.3,22.5"/>
    <path class="st2" d="M52,18.2c3.4,1.2,6.5,3.2,9,5.6"/>
    <circle class="st2" cx="44" cy="15.8" r="3.7"/>
    <circle class="st2" cx="53.1" cy="68.6" r="2.3"/>
    <circle class="st2" cx="68.9" cy="20.3" r="3"/>
    <line class="st2" x1="44" y1="19.5" x2="44" y2="25.7"/>
    <line class="st2" x1="49.2" y1="57.5" x2="52.2" y2="67.1"/>
    <circle class="st2" cx="19.6" cy="27.4" r="2.3"/>
    <line class="st2" x1="28.2" y1="35.3" x2="21" y2="28.3"/>
    <line class="st2" x1="55.7" y1="32.4" x2="66.4" y2="22.7"/>
    <circle class="st2" cx="18.7" cy="65.9" r="3"/>
    <line class="st2" x1="31.4" y1="53.1" x2="21.1" y2="63.4"/>
  </g>
</svg>