<?xml version="1.0" encoding="UTF-8"?>
<svg id="Layer_1" xmlns="http://www.w3.org/2000/svg" version="1.1" viewBox="0 0 84 84">
  <!-- Generator: Adobe Illustrator 29.0.0, SVG Export Plug-In . SVG Version: 2.1.0 Build 186)  -->
  <defs>
    <style>
      .st0 {
        fill: none;
        stroke: #f900d3;
        stroke-linecap: square;
        stroke-miterlimit: 10;
        stroke-width: 2px;
      }

      .st1 {
        fill: #f900d3;
      }
    </style>
  </defs>
  <rect class="st0" x="5" y="5" width="74" height="74"/>
  <path class="st1" d="M51.6,48.9H16.6c-.4,0-.8-.2-1.1-.6s-.2-.8,0-1.2L33,12.6c.2-.4.6-.7,1.1-.7h0c.5,0,.9.3,1.1.7l17.5,34.5c.2.4.2.8,0,1.2-.2.4-.6.6-1.1.6h0ZM17.6,48.1,18.3,46.6h31.6l-15.8-31.1-15.8,31.1h0ZM33.2,13.6"/>
  <path class="st1" d="M33.9,44.1c-.9,0-1.5-.2-1.8-.6-.4-.4-.5-.9-.5-1.4v-.6c0-.6.2-1,.5-1.4.4-.4,1-.6,1.8-.6s1.5.2,1.8.6c.4.4.5.9.5,1.4v.6c0,.6-.2,1-.5,1.4-.4.4-1,.6-1.8.6ZM33.1,37.9l-1.3-7.6v-5.2h4.2v5.2l-1.2,7.6h-1.7,0Z"/>
  <path class="st1" d="M52.3,70.9c-.3,0-.6-.1-.9-.4l-15.3-16.4c-.3-.3-.4-.8-.2-1.2.2-.4.6-.7,1.1-.7h8v-2.5h2.1v4.6h-7.9l13,14,13-14h-7.9v-27.1h-10.2v5.8l-2.1-4.1v-3.8h14.5v27.1h8c.5,0,.9.3,1.1.7.2.4.1.9-.2,1.2l-15.3,16.4c-.2.2-.5.4-.9.4h0,0ZM66.9,52.6,37.7,52.6"/>
</svg>