<?xml version="1.0" encoding="UTF-8"?>
<svg id="Layer_2" data-name="Layer 2" xmlns="http://www.w3.org/2000/svg" viewBox="0 0 76 76">
  <defs>
    <style>
      .cls-1 {
        fill: #f900d3;
      }
    </style>
  </defs>
  <g id="Layer_3" data-name="Layer 3">
    <g>
      <path class="cls-1" d="M29.8,12.53c0-1.63,1.33-2.96,2.96-2.96h28.27c1.63,0,2.96,1.33,2.96,2.96v24.51c0,1.63-1.33,2.96-2.96,2.96h-14.53l-7.89,6.26v-6.26h-4.16v2h2.16v8.4l10.59-8.4h13.83c2.74,0,4.96-2.23,4.96-4.96V12.53c0-2.74-2.23-4.96-4.96-4.96h-28.27c-2.74,0-4.96,2.23-4.96,4.96v13.15h2v-13.15Z"/>
      <path class="cls-1" d="M47.29,30.54c-1.44.07-3.09-.62-3.96-1.34l-.77-.63-1.27,1.55.77.63c.91.75,2.4,1.47,3.98,1.71v3.41h2v-3.41c2.51-.35,3.71-1.92,3.99-3.38.61-3.25-2.29-4.85-4.53-5.77-2.54-1.05-2.89-1.94-2.91-2.67-.01-.87.73-1.9,2.14-2.07.15-.02.3-.02.45-.03h.18c1.22.02,2.42.48,2.81.78l.79.62,1.24-1.57-.79-.62c-.68-.54-2-1.03-3.37-1.17v-3.29h-2v3.38c-2.26.49-3.47,2.35-3.44,3.99.04,2.48,2.24,3.7,4.14,4.48,3.26,1.34,3.52,2.5,3.33,3.55-.1.52-.56,1.73-2.77,1.83Z"/>
      <path class="cls-1" d="M21.01,26.75c3.05,0,5.53-2.65,5.53-5.9s-2.48-5.9-5.53-5.9-5.53,2.65-5.53,5.9,2.48,5.9,5.53,5.9ZM21.01,16.95c1.95,0,3.53,1.75,3.53,3.9s-1.58,3.9-3.53,3.9-3.53-1.75-3.53-3.9,1.58-3.9,3.53-3.9Z"/>
      <path class="cls-1" d="M14.72,66.88l2-.1-.51-10.02h2.41v-11.35h-2.74v-11.62h-2v11.62h-2.59v-11.36c0-2.42,1.97-4.39,4.39-4.39h10.65c2.42,0,4.39,1.97,4.39,4.39v10.83c0,1.41-1.15,2.55-2.55,2.55h-.04v-13.64h-2v16.47s-.83,16.52-.83,16.52l2,.1.84-16.57v-.89h.04c2.51,0,4.55-2.04,4.55-4.55v-10.83c0-3.53-2.87-6.39-6.39-6.39h-10.65c-3.53,0-6.39,2.87-6.39,6.39v11.36h-3.67v11.35h8.59l.51,10.12ZM7.62,47.4h9v7.35h-.52v-.05s-.98.05-.98.05h-7.51v-7.35Z"/>
      <rect class="cls-1" x="20.01" y="51.62" width="2" height="15.21"/>
      <path class="cls-1" d="M0,0v76h76V0H0ZM74,74H2V2h72v72Z"/>
    </g>
  </g>
</svg>