<?xml version="1.0" encoding="UTF-8"?>
<svg id="Layer_2" data-name="Layer 2" xmlns="http://www.w3.org/2000/svg" viewBox="0 0 76 76">
  <defs>
    <style>
      .cls-1 {
        fill: #f900d3;
      }
    </style>
  </defs>
  <g id="Layer_3" data-name="Layer 3">
    <g>
      <polygon class="cls-1" points="18.28 36.01 20.28 36.01 20.28 19.14 16.66 19.14 23.94 11.08 31.22 19.14 27.6 19.14 27.6 24.29 29.6 24.29 29.6 21.14 35.72 21.14 23.94 8.09 12.16 21.14 18.28 21.14 18.28 36.01"/>
      <polygon class="cls-1" points="52.08 65.41 44.8 57.34 48.42 57.34 48.42 52.19 46.42 52.19 46.42 55.34 40.3 55.34 52.08 68.39 63.87 55.34 57.74 55.34 57.74 40.47 55.74 40.47 55.74 57.34 59.36 57.34 52.08 65.41"/>
      <path class="cls-1" d="M23.48,38.24c0,8.01,6.52,14.53,14.53,14.53s14.53-6.52,14.53-14.53-6.52-14.53-14.53-14.53-14.53,6.52-14.53,14.53ZM38.01,25.71c6.91,0,12.53,5.62,12.53,12.53s-5.62,12.53-12.53,12.53-12.53-5.62-12.53-12.53,5.62-12.53,12.53-12.53Z"/>
      <path class="cls-1" d="M38.33,43.15c-1.19.07-2.55-.51-3.27-1.1l-.77-.63-1.27,1.55.77.63c.77.63,2,1.24,3.33,1.46v2.92h2v-2.91c2.12-.34,3.15-1.71,3.39-2.98.54-2.87-1.99-4.27-3.94-5.07-2.36-.97-2.37-1.75-2.38-2.13,0-.54.44-1.45,1.68-1.61.11-.01.23-.02.34-.02h.2c.98.03,1.97.4,2.27.63l.78.62,1.24-1.57-.79-.62c-.57-.45-1.66-.86-2.8-1.01v-2.82h-2v2.91c-1.93.47-2.95,2.09-2.93,3.51.03,2.19,1.95,3.26,3.61,3.95,3.04,1.25,2.84,2.29,2.74,2.85-.16.85-.97,1.38-2.21,1.44Z"/>
      <path class="cls-1" d="M0,0v76h76V0H0ZM74,74H2V2h72v72Z"/>
    </g>
  </g>
</svg>