<?xml version="1.0" encoding="UTF-8"?>
<svg id="Layer_2" data-name="Layer 2" xmlns="http://www.w3.org/2000/svg" viewBox="0 0 76 76">
  <defs>
    <style>
      .cls-1 {
        fill: #f900d3;
      }
    </style>
  </defs>
  <g id="Layer_3" data-name="Layer 3">
    <g>
      <path class="cls-1" d="M10.74,26.92v22.93c0,1.67,1.35,3.02,3.02,3.02h4.49v-2h-4.49c-.56,0-1.02-.46-1.02-1.02v-21.77l22.85,13.19,22.85-13.19v13.66h2v-14.81l.09-.05-.09-.15v-.87c0-1.58-.78-3.05-2.13-3.95l-22.72-13.87-22.76,13.89c-1.31.88-2.09,2.35-2.09,3.93v.87l-.09.15.09.05ZM13.91,23.6l21.68-13.23,21.64,13.21c.73.49,1.17,1.31,1.2,2.19l-22.84,13.18-22.84-13.18c.03-.88.46-1.7,1.16-2.17Z"/>
      <path class="cls-1" d="M57.5,42.39v-.03s-1.04.03-1.04.03h-28.3l-1.04-.03v.03h-8.21v15.34h-.04s.04.4.04.4v9.71h46.37v-8.22h.04s-.04-.95-.04-.95v-7.4l.04-.95h-.04v-7.92h-7.78ZM63.28,50.15c-2.89-.55-5.15-2.86-5.65-5.75h5.65v5.75ZM26.99,44.39c-.52,3.08-2.97,5.44-6.08,5.83v-5.83h6.08ZM20.91,59.71c3.19.4,5.72,2.94,6.13,6.13h-6.13v-6.13ZM29.05,65.84c-.43-4.3-3.85-7.72-8.15-8.14v-5.46c4.22-.4,7.56-3.64,8.11-7.84h26.58c.54,4,3.69,7.2,7.68,7.79v5.57c-4.1.6-7.27,3.9-7.71,8.09h-26.52ZM57.59,65.84c.39-3.05,2.69-5.49,5.7-6.06v6.06h-5.7Z"/>
      <path class="cls-1" d="M42.1,46.59c-4,0-7.25,3.82-7.25,8.52s3.25,8.52,7.25,8.52,7.25-3.82,7.25-8.52-3.25-8.52-7.25-8.52ZM42.1,61.63c-2.89,0-5.25-2.92-5.25-6.52s2.35-6.52,5.25-6.52,5.25,2.92,5.25,6.52-2.35,6.52-5.25,6.52Z"/>
      <rect class="cls-1" x="29.27" y="54" width="2.22" height="2.22"/>
      <rect class="cls-1" x="52.7" y="54" width="2.22" height="2.22"/>
      <path class="cls-1" d="M0,0v76h76V0H0ZM74,74H2V2h72v72Z"/>
    </g>
  </g>
</svg>