<?xml version="1.0" encoding="UTF-8"?>
<svg id="Layer_2" data-name="Layer 2" xmlns="http://www.w3.org/2000/svg" viewBox="0 0 76 76">
  <defs>
    <style>
      .cls-1 {
        fill: #f900d3;
      }
    </style>
  </defs>
  <g id="Layer_3" data-name="Layer 3">
    <g>
      <polygon class="cls-1" points="19.03 41.38 21.04 41.38 21.03 39.38 19.03 39.38 19.03 41.38"/>
      <path class="cls-1" d="M9.4,48.07c.33,2.57,2.03,4.48,4.1,4.68,1.76,3.52,4.95,6.32,9.71,8.53l-1.1,3.63c-.21.7-.08,1.44.36,2.03.44.59,1.11.93,1.84.93h2.46c2.25,0,4.19-1.45,4.84-3.6l.13-.45c1.7.24,3.3.36,4.53.34,1.38-.02,3.09-.16,4.8-.39l.15.5c.63,2.12,2.62,3.6,4.84,3.6h2.75c.73,0,1.41-.34,1.84-.93.44-.59.57-1.33.36-2.03l-1.15-3.83c6.17-3.18,9.84-8.87,9.88-15.39.71.36,1.48.58,2.3.58,2.78,0,5.05-2.26,5.05-5.05v-2.54h-2v2.54c0,1.68-1.37,3.05-3.05,3.05-.82,0-1.58-.32-2.15-.89l-.37-.37c-.22-1.33-.58-2.61-1.14-3.82l-.42-.91-1.82.83.42.91c.79,1.71,1.18,3.59,1.18,5.58,0,6.03-3.55,11.28-9.5,14.05l-.79.37,1.64,5.47c.04.12-.01.21-.05.26-.03.04-.11.12-.24.12h-2.75c-1.34,0-2.54-.89-2.92-2.17l-.65-2.16-.86.13c-1.9.29-3.86.47-5.39.49-1.36.02-3.15-.14-5.06-.45l-.87-.14-.63,2.12c-.38,1.28-1.59,2.17-2.92,2.17h-2.46c-.13,0-.21-.08-.24-.12s-.08-.14-.05-.26l1.61-5.33-.82-.35c-5-2.17-8.2-4.93-9.77-8.45l-.26-.59h-.92c-1.2,0-2.27-1.27-2.49-2.96l-.37-2.83h2.94l.14-.84c.52-3.13,2.24-6.09,4.99-8.54l.41-.37-1.38-8.01c2.19.09,4.06.55,5.92,1.47l.9.44.88-1.8-.9-.44c-2.46-1.2-4.97-1.73-8.01-1.68l-1.17.02,1.59,9.26c-2.62,2.47-4.35,5.38-5.05,8.49h-2c-.39,0-.76.17-1.02.46s-.38.69-.33,1.07l.46,3.55Z"/>
      <path class="cls-1" d="M44.05,42.11c8.93,0,16.2-7.25,16.2-16.17s-7.27-16.17-16.2-16.17-16.2,7.25-16.2,16.17,7.27,16.17,16.2,16.17ZM44.05,11.77c7.83,0,14.2,6.36,14.2,14.17s-6.37,14.17-14.2,14.17-14.2-6.36-14.2-14.17,6.37-14.17,14.2-14.17Z"/>
      <path class="cls-1" d="M44.42,31.53c-1.36.07-2.91-.58-3.73-1.26l-.77-.63-1.27,1.55.77.63c.86.71,2.26,1.39,3.76,1.62v3.24h2v-3.24c2.38-.35,3.52-1.85,3.79-3.24.59-3.12-2.19-4.65-4.33-5.53-2.38-.98-2.72-1.8-2.73-2.48,0-.64.52-1.73,1.98-1.91.13-.02.26-.02.39-.02h.23c1.13.03,2.24.45,2.6.73l.79.62,1.24-1.57-.79-.62c-.64-.51-1.88-.97-3.17-1.11v-3.12h-2v3.22c-2.15.48-3.29,2.26-3.27,3.82.04,2.38,2.14,3.54,3.96,4.29,3.06,1.26,3.31,2.33,3.13,3.31-.09.48-.52,1.6-2.58,1.69Z"/>
      <path class="cls-1" d="M0,0v76h76V0H0ZM74,74H2V2h72v72Z"/>
    </g>
  </g>
</svg>