<?xml version="1.0" encoding="UTF-8"?>
<svg id="Layer_2" data-name="Layer 2" xmlns="http://www.w3.org/2000/svg" viewBox="0 0 76 76">
  <defs>
    <style>
      .cls-1 {
        fill: #f900d3;
      }
    </style>
  </defs>
  <g id="Layer_3" data-name="Layer 3">
    <g>
      <path class="cls-1" d="M10.63,50.29h3.83c1.2,0,2.21-.79,2.58-1.87.91-.19,1.6.37,1.68.43l.19.16c.14.12.28.23.42.34l-.02.02c-1.48,1.5-1.48,3.95,0,5.45.72.73,1.68,1.14,2.7,1.14.06,0,.13-.02.19-.02-.05,1.05.3,2.13,1.09,2.93.72.73,1.68,1.14,2.71,1.14.06,0,.12-.02.19-.02-.05,1.05.3,2.13,1.09,2.93.72.73,1.68,1.14,2.7,1.14.06,0,.13-.02.19-.02-.05,1.05.3,2.13,1.09,2.93.72.73,1.68,1.14,2.71,1.14h0c1.02,0,1.98-.4,2.7-1.14l.12-.12.24.25c.72.72,1.67,1.11,2.68,1.11h.03c1.02,0,1.97-.42,2.69-1.16.53-.54.88-1.22,1.02-1.97.06-.31.08-.62.07-.92.05,0,.1.01.15.01h.03c1.02,0,1.98-.42,2.69-1.15l.28-.29v-.03c.56-.72.82-1.6.79-2.51.04,0,.08.01.11.01h.01c.82,0,1.61-.27,2.25-.76h.06s.4-.4.4-.4c.79-.81,1.14-1.9,1.07-2.98.09,0,.17.03.26.03h.01c1.02,0,1.98-.42,2.72-1.18l.28-.3v-.04c.87-1.12,1.03-2.62.5-3.89l.86-1.44c.31-.4.73-.7,1.2-.87l.32-.12c.35,1.16,1.52,2.03,2.91,2.03h4.49c1.67,0,3.03-1.23,3.03-2.74v-17.18c0-1.51-1.36-2.74-3.03-2.74h-4.49c-1.22,0-2.28.66-2.75,1.61h-9.39c-1.78-.14-7.19-1.01-7.22-1.01-1.37-.24-2.78-.14-4.09.31l-4.13,1.4c-.94.31-1.79.88-2.44,1.64-2.07,2.38-4.08,4.78-5.1,6-.52.62-.96,2.02-.05,3.36,1.21,1.78,3.79,2.23,5.75,1,2-1.26,3.49-2.77,5.08-4.46.52-.54,1.32-.48,2.58-.33.24.03.49.06.73.08l13.51,13.65c.72.73.73,1.91.02,2.64l-.08.08c-.35.32-.77.49-1.22.5h0c-.47,0-.9-.19-1.26-.56l-.11-.11-.6-.67-.04.04-3.4-3.34-1.4,1.43,3.99,3.92.03.03c.71.79.75,2,.11,2.74l-.08.08c-.34.35-.8.55-1.28.55-.49-.03-.94-.19-1.28-.54l-4.08-4.13-1.42,1.4,3.44,3.49h0s.71.71.71.71c.34.34.49.61.53.95.07.58-.11,1.14-.51,1.55l-.06.07c-.33.31-.76.48-1.21.48h-.01c-.48,0-.93-.19-1.28-.54l-4.14-4.1-1.41,1.42,3.48,3.44h0s.71.71.71.71c.43.43.58.95.46,1.59-.07.36-.24.69-.49.95-.34.35-.79.54-1.27.55-.49-.03-.94-.18-1.28-.52l-.37-.38c.81-1.47.62-3.36-.61-4.61-.54-.55-1.22-.92-1.96-1.06.58-1.4.31-3.08-.81-4.22-.59-.6-1.36-.94-2.16-1.05.43-1.34.14-2.87-.9-3.93-1.07-1.09-2.74-1.37-4.12-.84-.14-.74-.48-1.44-1.04-2.01-.72-.73-1.68-1.14-2.7-1.14-1.02,0-1.98.41-2.7,1.14l-.32.33c-.21-.16-.42-.33-.56-.45-.09-.08-.17-.14-.23-.18-.49-.42-1.52-.96-2.76-.89v-15.14h7.73c.28-.02,1.11-.13,2.55-.32l2.37-.31-.26-1.98-2.37.31c-1.02.14-2.18.29-2.34.3h-7.91c-.43-.95-1.38-1.61-2.48-1.61h-3.83c-1.5,0-2.73,1.23-2.73,2.74v17.18c0,1.51,1.22,2.74,2.73,2.74ZM59.42,30.38c0-.4.47-.74,1.03-.74h4.49c.56,0,1.03.34,1.03.74v17.18c0,.4-.47.74-1.03.74h-4.49c-.56,0-1.03-.34-1.03-.74v-17.18ZM40.3,35.28l-.38-.02c-.33-.02-.67-.06-1-.1-1.41-.16-3.01-.35-4.26.94-1.51,1.6-2.9,3.02-4.7,4.15-.93.59-2.37.55-3.03-.42-.36-.54-.07-.96-.07-.96,1.01-1.21,3.02-3.6,5.08-5.97.42-.49.96-.85,1.57-1.06l4.13-1.41c.99-.34,2.06-.42,3.11-.23.22.04,5.54.89,7.48,1.04h9.19s0,14.93,0,14.93l-.89.32c-.86.31-1.6.86-2.15,1.59l-.53.89-13.55-13.7ZM36.04,64.75h0s-.67.66-.67.66h.01s-.14.16-.14.16c-.34.35-.8.54-1.28.54s-.94-.19-1.28-.54c-.72-.73-.72-1.92,0-2.65l.7-.71h0s.06-.07.06-.07l.04-.04c.34-.35.8-.54,1.28-.54s.94.19,1.28.54c.72.73.72,1.92,0,2.65ZM33.28,59.47l-1.22,1.24s0,0,0,0l-.06.06-.74.75c-.69.7-1.87.7-2.56,0-.72-.73-.72-1.92,0-2.65h0s.03-.03.03-.03l.67-.68h0s1.32-1.34,1.32-1.34c.69-.69,1.87-.69,2.56,0,.72.73.72,1.92,0,2.65ZM30.21,51.84c.72.73.72,1.92,0,2.65l-.92.93s0,0,0,0l-.7.71h0s-1.29,1.31-1.29,1.31l-.03.03c-.69.7-1.87.7-2.56,0-.72-.73-.72-1.92,0-2.65l1.62-1.64.14-.14s0,0,0,0l1.18-1.2c.69-.7,1.87-.7,2.56,0ZM23.77,48.45c.48,0,.94.19,1.28.54.72.73.72,1.92,0,2.65l-.14.14-.56.57h0s-.35.36-.35.36h0s-.7.71-.7.71c-.68.7-1.87.7-2.56,0-.72-.73-.72-1.92,0-2.65l1.75-1.79c.34-.35.8-.54,1.28-.54ZM9.91,30.38c0-.41.33-.74.73-.74h3.83c.4,0,.73.33.73.74v17.18c0,.41-.33.74-.73.74h-3.83c-.4,0-.73-.33-.73-.74v-17.18Z"/>
      <path class="cls-1" d="M21.52,26.87c.03-3.33,1.07-6.42,2.8-9.01,1.65,1.59,3.5,2.86,5.53,3.78-.19,1.42-.32,2.91-.35,4.46l-.02,1,2,.04.02-1c.03-1.32.13-2.57.27-3.75,1.98.66,4.08,1.01,6.24,1.01s4.26-.35,6.24-1.01c.15,1.29.25,2.66.27,4.11l2-.02c-.02-1.7-.15-3.31-.35-4.85,2.02-.92,3.88-2.19,5.52-3.78,1.74,2.59,2.77,5.68,2.8,9.01v1s2.01-.02,2.01-.02v-1c-.11-10.11-8.41-18.33-18.5-18.33s-18.38,8.22-18.49,18.33v1s1.99.02,1.99.02v-1ZM38.01,21.41c-2.06,0-4.05-.36-5.93-1.03,1.11-6.07,3.62-9.86,5.93-9.86s4.84,3.79,5.94,9.86c-1.88.67-3.87,1.03-5.94,1.03ZM50.47,16.27c-1.38,1.37-2.94,2.48-4.63,3.31-.69-3.56-1.87-6.48-3.37-8.43,3.15.89,5.92,2.7,8,5.12ZM33.58,11.15c-1.5,1.95-2.69,4.88-3.39,8.44-1.69-.83-3.26-1.94-4.64-3.31,2.09-2.43,4.87-4.23,8.03-5.12Z"/>
      <path class="cls-1" d="M0,0v76h76V0H0ZM74,74H2V2h72v72Z"/>
    </g>
  </g>
</svg>