<?xml version="1.0" encoding="UTF-8"?>
<svg id="Layer_2" data-name="Layer 2" xmlns="http://www.w3.org/2000/svg" viewBox="0 0 76 76">
  <defs>
    <style>
      .cls-1 {
        fill: #f900d3;
      }
    </style>
  </defs>
  <g id="Layer_3" data-name="Layer 3">
    <g>
      <path class="cls-1" d="M18.96,31.87h4.61v-2h-4.61c-1.85,0-3.36-1.51-3.36-3.37v-13.21c0-1.86,1.51-3.37,3.36-3.37h37.55c1.85,0,3.36,1.51,3.36,3.37v13.21c0,1.86-1.51,3.37-3.36,3.37h-4.61v2h4.61c2.95,0,5.36-2.41,5.36-5.37v-13.21c0-2.96-2.4-5.37-5.36-5.37H18.96c-2.95,0-5.36,2.41-5.36,5.37v13.21c0,2.96,2.4,5.37,5.36,5.37Z"/>
      <path class="cls-1" d="M58.18,60.58h.8v-19.25c0-1.31-.55-2.56-1.5-3.44l-6.54-6.11v-10.28h4.96v-2H19.57v2h4.96v23.75h8.56v.04s.98-.04.98-.04h2.17v5.68c0,.92.25,1.81.73,2.59.48.78,1.16,1.41,1.97,1.82.8.4,1.31,1.25,1.31,2.14v3h.63c-1.8,1.53-2.95,3.81-2.95,6.36v1.14h23.09v-1.14c0-2.5-1.11-4.73-2.85-6.27ZM44.54,21.5l-.03.19c-.38,2.8-3.29,4.91-6.78,4.91s-6.41-2.11-6.78-4.91l-.03-.19h13.62ZM28.91,21.5l.06.46c.51,3.79,4.28,6.64,8.77,6.64s8.25-2.86,8.77-6.64l.06-.46h2.38v10.32l-.41.44.41.39v7.27l-4.27-4.28c-.83-.83-1.99-1.14-3.11-.82-1.12.32-1.97,1.21-2.23,2.3-.06.25-.09.51-.09.77,0,1.37.26,2.7.78,3.96.17.4.36.79.57,1.15.05.08.11.16.16.24h-5.79c-.6-4.29-4.05-7.61-8.43-8.05v-13.7h2.38ZM26.53,37.2c3.24.39,5.82,2.84,6.4,6.05h-6.4v-6.05ZM39.84,53.56c-.48-.25-.89-.62-1.18-1.09-.28-.46-.43-1-.43-1.54v-5.68h4.08l2.06,2.07v2.78c0,1.9.77,3.76,2.11,5.09l.71.71,1.41-1.42-.71-.71c-.97-.97-1.52-2.31-1.52-3.68v-3.61l-2.64-2.64v-.6h-.53c-.33-.39-.63-.79-.88-1.23-.17-.3-.32-.61-.46-.93-.42-1.02-.63-2.09-.63-3.19,0-.1.01-.19.04-.3.11-.48.5-.75.83-.85.2-.06.71-.14,1.15.3l5.69,5.7v.59h.59l1.88,1.88,1.42-1.41-1.88-1.89v-7.41l5.18,4.84c.55.51.86,1.23.86,1.98v18.37c-1.26-.77-2.74-1.21-4.32-1.21h-6.38c-1.47,0-2.84.38-4.04,1.05v-2.05c0-1.67-.92-3.17-2.41-3.93ZM39.99,65.98c.42-3.1,3.09-5.5,6.3-5.5h6.38c3.21,0,5.88,2.4,6.3,5.5h-18.98Z"/>
      <rect class="cls-1" x="36.62" y="32.19" width="2.23" height="2.23"/>
      <path class="cls-1" d="M0,0v76h76V0H0ZM74,74H2V2h72v72Z"/>
    </g>
  </g>
</svg>