<?xml version="1.0" encoding="UTF-8"?>
<svg id="Layer_2" data-name="Layer 2" xmlns="http://www.w3.org/2000/svg" viewBox="0 0 76 76">
  <defs>
    <style>
      .cls-1 {
        fill: #f900d3;
      }
    </style>
  </defs>
  <g id="Layer_3" data-name="Layer 3">
    <g>
      <path class="cls-1" d="M34.49,60.56h1v-2h-1c-3.59,0-6.81-5.05-8.52-12.36,2.68-1.01,5.55-1.54,8.52-1.54,1.54,0,3.08.15,4.56.43l.98.19.38-1.96-.98-.19c-1.61-.31-3.28-.47-4.94-.47-3.07,0-6.09.55-8.93,1.59-.51-2.74-.82-5.73-.88-8.86h19.6c-.02,1.17-.07,2.35-.16,3.5l-.08,1,1.99.16.08-1c.1-1.21.14-2.43.16-3.66h12.33c-.04.94-.11,1.87-.26,2.78l-.16.99,1.98.31.16-.99c.21-1.33.32-2.71.32-4.09,0-14.43-11.74-26.17-26.17-26.17s-26.17,11.74-26.17,26.17,11.74,26.17,26.17,26.17ZM29.3,57.99c-4.5-.99-8.54-3.24-11.72-6.36,1.93-1.92,4.13-3.48,6.51-4.63,1.17,4.79,2.98,8.63,5.21,10.98ZM23.66,45.04c-2.75,1.26-5.28,2.99-7.45,5.14-3.46-4-5.63-9.15-5.87-14.79h12.34c.06,3.44.4,6.69.98,9.65ZM16.21,18.61c2.2,2.18,4.71,3.91,7.44,5.17-.58,2.94-.92,6.19-.97,9.62h-12.34c.23-5.64,2.4-10.78,5.86-14.78ZM58.63,33.39h-12.34c-.06-3.43-.4-6.67-.97-9.62,2.73-1.25,5.24-2.99,7.44-5.17,3.46,4,5.63,9.15,5.86,14.78ZM44.3,33.39h-19.61c.05-3.12.36-6.1.87-8.83,2.82,1.03,5.83,1.56,8.93,1.56s6.12-.54,8.93-1.56c.51,2.73.82,5.71.87,8.83ZM44.89,21.77c-1.17-4.79-2.98-8.63-5.21-10.98,4.5.99,8.54,3.24,11.72,6.36-1.93,1.92-4.13,3.48-6.51,4.63ZM43.01,22.58c-2.68,1.01-5.55,1.54-8.52,1.54s-5.84-.53-8.52-1.54c1.71-7.31,4.92-12.36,8.52-12.36s6.81,5.05,8.52,12.36ZM24.09,21.77c-2.38-1.15-4.58-2.7-6.51-4.62,3.18-3.12,7.22-5.37,11.72-6.36-2.23,2.35-4.04,6.2-5.21,10.98Z"/>
      <path class="cls-1" d="M39.03,54.3c0,7.9,6.43,14.33,14.33,14.33s14.33-6.43,14.33-14.33-6.43-14.33-14.33-14.33-14.33,6.43-14.33,14.33ZM65.7,54.3c0,6.8-5.53,12.33-12.33,12.33s-12.33-5.53-12.33-12.33,5.53-12.33,12.33-12.33,12.33,5.53,12.33,12.33Z"/>
      <path class="cls-1" d="M52.48,44.69v2.86c-1.9.47-2.91,2.07-2.89,3.47.03,2.17,1.92,3.23,3.57,3.9,2.98,1.23,2.79,2.25,2.69,2.8-.16.83-.95,1.34-2.17,1.4-1.17.07-2.5-.5-3.21-1.08l-.77-.63-1.27,1.55.77.63c.76.62,1.97,1.22,3.28,1.44v2.88h2v-2.87c2.09-.34,3.1-1.7,3.34-2.94.54-2.84-1.96-4.22-3.89-5.02-2.32-.96-2.33-1.72-2.33-2.09,0-.53.43-1.42,1.65-1.57.13-.02.26-.02.38-.02h.09c.98.01,1.98.39,2.28.62l.79.62,1.24-1.57-.79-.62c-.56-.44-1.63-.85-2.75-.99v-2.78h-2Z"/>
      <path class="cls-1" d="M0,0v76h76V0H0ZM74,74H2V2h72v72Z"/>
    </g>
  </g>
</svg>