<?xml version="1.0" encoding="UTF-8"?>
<svg id="Layer_2" data-name="Layer 2" xmlns="http://www.w3.org/2000/svg" viewBox="0 0 76 76">
  <defs>
    <style>
      .cls-1 {
        fill: #f900d3;
      }
    </style>
  </defs>
  <g id="Layer_3" data-name="Layer 3">
    <g>
      <path class="cls-1" d="M55.75,8.01H7.99v59.67h47.76V8.01ZM53.75,65.68H9.99V10.01h43.76v55.67Z"/>
      <rect class="cls-1" x="16.58" y="40.63" width="30.58" height="2"/>
      <rect class="cls-1" x="16.58" y="47.88" width="30.58" height="2"/>
      <rect class="cls-1" x="16.58" y="54.47" width="30.58" height="2"/>
      <path class="cls-1" d="M31.01,33.82v3.16h2v-3.16c2.55-.35,3.78-1.95,4.06-3.43.62-3.29-2.33-4.92-4.6-5.86-2.59-1.07-2.96-1.98-2.97-2.73-.01-.9.75-1.94,2.19-2.12.14-.02.28-.02.42-.03h.27c1.22.03,2.42.5,2.81.8l.79.62,1.24-1.57-.79-.62c-.69-.55-2.03-1.05-3.43-1.19v-3.03h-2v3.13c-2.31.49-3.53,2.38-3.51,4.04.04,2.51,2.27,3.75,4.21,4.55,3.33,1.37,3.6,2.56,3.39,3.64-.1.53-.58,1.77-2.84,1.88-1.47.07-3.15-.64-4.05-1.37l-.77-.63-1.27,1.55.77.63c.93.76,2.44,1.5,4.06,1.74Z"/>
      <path class="cls-1" d="M62.29,57.16v2.91h2v-2.91l2.69-3.31c.68-.84,1.06-1.9,1.06-2.99v-30.96c0-2.36-1.92-4.28-4.28-4.28h-.92c-2.36,0-4.28,1.92-4.28,4.28v30.96c0,1.09.38,2.15,1.06,2.99l2.68,3.31ZM60.54,19.9c0-1.26,1.02-2.28,2.28-2.28h.92c1.26,0,2.28,1.02,2.28,2.28v1.96h-5.49v-1.96ZM66.03,23.86v27c0,.63-.22,1.24-.61,1.73l-2.13,2.63-2.13-2.63c-.39-.49-.61-1.1-.61-1.73v-27h5.49Z"/>
      <path class="cls-1" d="M0,0v76h76V0H0ZM74,74H2V2h72v72Z"/>
    </g>
  </g>
</svg>