<?xml version="1.0" encoding="UTF-8"?>
<svg id="Layer_2" data-name="Layer 2" xmlns="http://www.w3.org/2000/svg" viewBox="0 0 76 76">
  <defs>
    <style>
      .cls-1 {
        fill: #f900d3;
      }
    </style>
  </defs>
  <g id="Layer_3" data-name="Layer 3">
    <g>
      <rect class="cls-1" x="17.57" y="45.67" width="23.89" height="2"/>
      <rect class="cls-1" x="17.57" y="55.32" width="23.89" height="2"/>
      <path class="cls-1" d="M23.08,37.1v3.74h2v-3.74c2.77-.35,4.09-2.07,4.39-3.65.66-3.5-2.49-5.24-4.92-6.25-2.85-1.18-3.25-2.19-3.26-3.03-.02-1,.83-2.18,2.44-2.38.16-.02.33-.03.49-.03h.22c1.36.03,2.71.54,3.14.89l.79.62,1.24-1.57-.79-.62c-.75-.59-2.22-1.14-3.74-1.28v-3.61h-2v3.71c-2.49.5-3.82,2.53-3.79,4.31.04,2.67,2.43,3.99,4.5,4.84,3.66,1.51,3.95,2.83,3.72,4.03-.11.59-.64,1.98-3.15,2.1-1.62.07-3.46-.7-4.43-1.5l-.77-.63-1.27,1.55.77.63c1.01.83,2.66,1.63,4.42,1.87Z"/>
      <path class="cls-1" d="M52.02,32.93c.59.08.95.41,1.5.99.66.7,1.55,1.67,3.24,1.67s2.59-.96,3.24-1.67c.63-.68,1-1.03,1.78-1.03s1.15.35,1.78,1.03c.65.7,1.55,1.66,3.24,1.66h1v-18.4c0-4.84-3.8-8.79-8.58-9.06v-.03H16.41c-4.8,0-8.7,3.9-8.7,8.7v51.88h44.31v-35.76ZM58.63,10.11h.15c3.88.03,7.02,3.19,7.02,7.08v16.11c-.25-.17-.48-.42-.78-.73-.65-.7-1.55-1.67-3.24-1.67s-2.59.96-3.24,1.67c-.63.68-1,1.03-1.78,1.03s-1.15-.35-1.78-1.03c-.62-.66-1.46-1.54-2.96-1.65v-12.96c0-4.57,2.72-7.8,6.61-7.85ZM50.02,66.69H9.71V16.81c0-3.7,3.01-6.7,6.7-6.7h36.87c-2.03,1.76-3.27,4.55-3.27,7.85v48.73Z"/>
      <path class="cls-1" d="M0,0v76h76V0H0ZM74,74H2V2h72v72Z"/>
    </g>
  </g>
</svg>