<?xml version="1.0" encoding="UTF-8"?>
<svg id="Layer_2" data-name="Layer 2" xmlns="http://www.w3.org/2000/svg" viewBox="0 0 76 76">
  <defs>
    <style>
      .cls-1 {
        fill: #f900d3;
      }
    </style>
  </defs>
  <g id="Layer_3" data-name="Layer 3">
    <g>
      <polygon class="cls-1" points="31.08 31.98 33.08 31.98 33.08 19.5 30.15 19.5 37.88 10.5 45.6 19.5 42.67 19.5 42.67 31.98 44.67 31.98 44.67 21.5 49.96 21.5 37.88 7.43 25.79 21.5 31.08 21.5 31.08 31.98"/>
      <path class="cls-1" d="M13.54,56.38h2v-21.04h-2.94l7.73-9,7.73,9h-2.94v16.11h0v9.51c0,3.77,5.66,6.72,12.88,6.72s12.88-2.95,12.88-6.72v-9.51h0v-16.11h-2.94l7.73-9,7.73,9h-2.94v21.04h2v-19.04h5.29l-12.08-14.07-12.08,14.07h5.29v8.59c-2.26-1.87-6.24-3.09-10.88-3.09s-8.62,1.22-10.88,3.09v-8.59h5.29l-12.08-14.07-12.08,14.07h5.29v19.04ZM38.01,65.68c-6.41,0-10.88-2.49-10.88-4.72v-2.05c.84.69,1.93,1.31,3.25,1.8,2.21.83,4.85,1.26,7.63,1.26,4.63,0,8.61-1.22,10.88-3.09v2.07c0,2.23-4.47,4.72-10.88,4.72ZM48.89,55.26c0,2.23-4.47,4.72-10.88,4.72-2.54,0-4.94-.39-6.93-1.14-2.47-.93-3.95-2.26-3.95-3.58v-2.07c2.26,1.87,6.24,3.09,10.88,3.09s8.61-1.22,10.88-3.09v2.07ZM38.01,44.84c6.41,0,10.88,2.49,10.88,4.72s-4.47,4.72-10.88,4.72-10.88-2.49-10.88-4.72,4.47-4.72,10.88-4.72Z"/>
      <path class="cls-1" d="M0,0v76h76V0H0ZM74,74H2V2h72v72Z"/>
    </g>
  </g>
</svg>