<?xml version="1.0" encoding="UTF-8"?>
<svg id="Layer_2" data-name="Layer 2" xmlns="http://www.w3.org/2000/svg" viewBox="0 0 76 76">
  <defs>
    <style>
      .cls-1 {
        fill: #f900d3;
      }
    </style>
  </defs>
  <g id="Layer_3" data-name="Layer 3">
    <g>
      <path class="cls-1" d="M39.01,56.71H10.2v-29.32h42.02v8.72h2v-8.72h0v-2h0v-10.07h-7.8v2h5.8v8.07H10.2v-8.07h6.35v2.29c0,1.81,1.47,3.29,3.28,3.29s3.28-1.48,3.28-3.29v-6.59c0-1.81-1.47-3.29-3.28-3.29s-3.28,1.48-3.28,3.29v2.29h-8.35v43.39h30.81v-2ZM18.55,13.03c0-.71.57-1.29,1.28-1.29s1.28.58,1.28,1.29v6.59c0,.71-.57,1.29-1.28,1.29s-1.28-.58-1.28-1.29v-6.59Z"/>
      <path class="cls-1" d="M39.32,19.62c0,1.81,1.47,3.29,3.28,3.29s3.28-1.48,3.28-3.29v-6.59c0-1.81-1.47-3.29-3.28-3.29s-3.28,1.48-3.28,3.29v2.29h-15.67v2h15.67v2.29ZM41.32,13.03c0-.71.57-1.29,1.28-1.29s1.28.58,1.28,1.29v6.59c0,.71-.57,1.29-1.28,1.29s-1.28-.58-1.28-1.29v-6.59Z"/>
      <polygon class="cls-1" points="27.96 33.47 25.96 33.47 25.96 35.47 27.99 35.47 27.96 33.47"/>
      <polygon class="cls-1" points="27.96 41.05 25.96 41.05 25.96 43.05 27.99 43.05 27.96 41.05"/>
      <polygon class="cls-1" points="25.96 50.63 27.99 50.63 27.96 48.63 25.96 48.63 25.96 50.63"/>
      <polygon class="cls-1" points="36.43 33.47 34.43 33.47 34.43 35.47 36.46 35.47 36.43 33.47"/>
      <polygon class="cls-1" points="36.43 41.05 34.43 41.05 34.43 43.05 36.46 43.05 36.43 41.05"/>
      <polygon class="cls-1" points="34.43 50.63 36.46 50.63 36.43 48.63 34.43 48.63 34.43 50.63"/>
      <polygon class="cls-1" points="42.9 33.47 42.9 35.47 44.94 35.47 44.9 33.47 42.9 33.47"/>
      <polygon class="cls-1" points="19.49 41.05 17.49 41.05 17.49 43.05 19.52 43.05 19.49 41.05"/>
      <polygon class="cls-1" points="17.49 50.63 19.52 50.63 19.49 48.63 17.49 48.63 17.49 50.63"/>
      <path class="cls-1" d="M38.38,51.55c0,8.12,6.6,14.72,14.72,14.72s14.72-6.6,14.72-14.72-6.6-14.72-14.72-14.72-14.72,6.6-14.72,14.72ZM65.82,51.55c0,7.01-5.71,12.72-12.72,12.72s-12.72-5.71-12.72-12.72,5.71-12.72,12.72-12.72,12.72,5.71,12.72,12.72Z"/>
      <path class="cls-1" d="M52.42,41.2v3.05c-2.03.48-3.1,2.17-3.08,3.65.04,2.28,2.03,3.39,3.77,4.11,2.84,1.17,3.08,2.17,2.91,3.06-.08.44-.48,1.46-2.38,1.55-1.29.06-2.71-.55-3.47-1.17l-.77-.63-1.27,1.55.77.63c.81.67,2.12,1.31,3.52,1.54v3.07h2v-3.06c2.24-.35,3.32-1.78,3.56-3.1.56-2.98-2.08-4.44-4.11-5.28-2.21-.91-2.52-1.67-2.53-2.29,0-.59.48-1.58,1.82-1.75.12-.01.24-.02.37-.02h.19c1.05.03,2.11.42,2.44.68l.78.62,1.24-1.57-.79-.62c-.6-.48-1.76-.91-2.97-1.06v-2.95h-2Z"/>
      <path class="cls-1" d="M0,0v76h76V0H0ZM74,74H2V2h72v72Z"/>
    </g>
  </g>
</svg>