<?xml version="1.0" encoding="UTF-8"?>
<svg id="Layer_2" data-name="Layer 2" xmlns="http://www.w3.org/2000/svg" viewBox="0 0 75.99 76">
  <defs>
    <style>
      .cls-1 {
        fill: #f900d3;
      }
    </style>
  </defs>
  <g id="Layer_1-2" data-name="Layer 1">
    <g>
      <path class="cls-1" d="M0,0v76h75.99V0H0ZM73.99,74H2V2h71.99v72Z"/>
      <path class="cls-1" d="M34.5,18.78c-1.1,0-2.04.82-2.19,1.91l-.26,1.88c-.27.1-.54.2-.8.31-.26.11-.52.22-.79.35l-1.52-1.15c-.87-.66-2.12-.58-2.9.2l-4.17,4.17c-.86.78-.98,2.06-.28,2.98l1.15,1.52c-.12.26-.24.52-.35.79-.11.27-.21.54-.31.81l-1.73.24c-1.16.08-2.07,1.05-2.07,2.22v6c0,1.1.82,2.05,1.92,2.2l1.88.26c.1.27.2.54.31.81.11.26.23.52.35.79l-1.15,1.52c-.66.87-.58,2.12.2,2.9l4.17,4.17c.76.84,2.07.97,2.98.28l1.52-1.15c.26.12.52.24.79.35.27.11.54.21.81.31l.24,1.73c.08,1.16,1.05,2.07,2.22,2.07h6s0,0,0,0c1.1,0,2.05-.82,2.2-1.91l.26-1.88c.27-.09.54-.2.8-.31.26-.11.52-.22.79-.35l1.52,1.14c.88.67,2.12.58,2.9-.2l4.17-4.17c.86-.78.98-2.06.28-2.98l-1.15-1.52c.12-.26.24-.52.35-.79.11-.27.21-.54.31-.81l1.73-.24c1.16-.08,2.07-1.05,2.07-2.22v-6c0-1.1-.83-2.05-1.92-2.2l-1.88-.26c-.1-.28-.2-.54-.31-.81-.11-.26-.23-.52-.35-.79l1.15-1.52c.66-.87.58-2.12-.2-2.9l-4.17-4.17c-.76-.84-2.07-.97-2.98-.28l-1.52,1.15c-.26-.12-.52-.24-.79-.35-.27-.11-.54-.21-.81-.31l-.24-1.73c-.08-1.16-1.05-2.07-2.22-2.07h-6s0,0,0,0ZM40.51,20.78c.12,0,.21.09.23.28l.42,3.04.61.19c.42.13.84.28,1.24.45.41.17.8.36,1.19.56l.56.3,2.52-1.91c.09-.07.22-.06.33.06l4.2,4.2c.08.08.09.2.02.29l-1.9,2.52.3.56c.21.39.39.79.56,1.19.17.4.32.82.45,1.24l.19.6,3.12.44c.12.02.19.12.19.22v6.01c0,.12-.09.21-.27.23l-3.05.42-.19.61c-.13.42-.28.83-.45,1.24-.17.41-.36.81-.56,1.19l-.3.56,1.91,2.52c.07.09.06.22-.06.33l-4.21,4.2c-.08.08-.2.09-.29.02l-2.52-1.9-.56.3c-.41.21-.81.4-1.19.56-.4.17-.82.32-1.24.45l-.61.19-.44,3.13c-.02.12-.12.19-.22.19h-6.01c-.12,0-.21-.09-.23-.27l-.43-3.04-.61-.19c-.42-.13-.84-.28-1.24-.45-.4-.17-.8-.35-1.19-.56l-.56-.3-2.52,1.91c-.09.07-.22.06-.33-.06l-4.21-4.21c-.08-.08-.09-.2-.02-.29l1.9-2.52-.29-.56c-.21-.39-.39-.79-.56-1.2-.17-.4-.32-.82-.45-1.24l-.19-.61-3.13-.44c-.12-.02-.19-.12-.19-.22v-6.01c0-.12.09-.21.27-.23l3.05-.42.19-.61c.13-.42.28-.83.45-1.24.17-.4.35-.8.56-1.19l.3-.56-1.91-2.52c-.07-.09-.06-.22.06-.33l4.2-4.2c.08-.08.2-.08.29-.02l2.52,1.9.56-.3c.39-.21.79-.39,1.19-.56.4-.17.82-.32,1.24-.45l.61-.19.44-3.13c.01-.11.11-.19.22-.19h6.01Z"/>
      <path class="cls-1" d="M28.37,38.03c0,2.44.95,4.73,2.67,6.46s4.02,2.68,6.46,2.68,4.73-.95,6.46-2.68c1.72-1.72,2.67-4.02,2.67-6.46s-.95-4.73-2.67-6.46h0c-1.72-1.73-4.02-2.68-6.46-2.68s-4.73.95-6.46,2.68c-1.73,1.72-2.68,4.02-2.68,6.46ZM37.5,30.89c1.91,0,3.7.74,5.05,2.09,1.35,1.35,2.09,3.14,2.09,5.04s-.74,3.7-2.09,5.04c-1.35,1.35-3.14,2.09-5.05,2.09s-3.7-.74-5.04-2.09-2.09-3.14-2.09-5.04.74-3.7,2.09-5.04c1.35-1.35,3.14-2.09,5.05-2.09Z"/>
      <path class="cls-1" d="M58.3,53.58c-1.96,0-3.55,1.59-3.55,3.55,0,.69.2,1.32.54,1.87-4.97,4.22-11.22,6.54-17.79,6.54s-12.68-2.26-17.61-6.37l-1.28,1.54c5.29,4.41,11.99,6.84,18.89,6.84s13.94-2.55,19.3-7.19c.46.21.96.34,1.49.34,1.96,0,3.55-1.59,3.55-3.55s-1.59-3.55-3.55-3.55ZM58.3,58.68c-.85,0-1.55-.7-1.55-1.55s.7-1.55,1.55-1.55,1.55.7,1.55,1.55-.7,1.55-1.55,1.55Z"/>
      <path class="cls-1" d="M46.05,14.34c1.13,0,2.13-.54,2.78-1.37,9.85,4.45,16.18,14.21,16.18,25.06,0,3.71-.73,7.32-2.16,10.71l1.84.78c1.54-3.64,2.32-7.5,2.32-11.49,0-11.67-6.83-22.16-17.44-26.92,0-.1.03-.21.03-.31,0-1.96-1.59-3.55-3.55-3.55s-3.55,1.59-3.55,3.55,1.59,3.55,3.55,3.55ZM46.05,9.24c.86,0,1.55.7,1.55,1.55s-.7,1.55-1.55,1.55-1.55-.7-1.55-1.55.7-1.55,1.55-1.55Z"/>
      <path class="cls-1" d="M9.6,52.65c0,1.96,1.59,3.55,3.55,3.55s3.55-1.59,3.55-3.55-1.59-3.55-3.55-3.55c-.27,0-.53.04-.78.09-1.57-3.52-2.37-7.28-2.37-11.17,0-15.17,12.34-27.51,27.51-27.51v-2c-16.27,0-29.51,13.24-29.51,29.51,0,4.24.89,8.33,2.62,12.15-.63.64-1.02,1.51-1.02,2.48ZM14.7,52.65c0,.85-.7,1.55-1.55,1.55s-1.55-.7-1.55-1.55.7-1.55,1.55-1.55,1.55.7,1.55,1.55Z"/>
    </g>
  </g>
</svg>