<?xml version="1.0" encoding="UTF-8"?>
<svg id="Layer_2" data-name="Layer 2" xmlns="http://www.w3.org/2000/svg" viewBox="0 0 75.99 76">
  <defs>
    <style>
      .cls-1 {
        fill: #f900d3;
      }
    </style>
  </defs>
  <g id="Layer_1-2" data-name="Layer 1">
    <g>
      <path class="cls-1" d="M0,0v76h75.99V0H0ZM73.99,74H2V2h71.99v72Z"/>
      <rect class="cls-1" x="28.96" y="36.1" width="4.99" height="4.99"/>
      <polygon class="cls-1" points="15.16 22.45 38.18 10.7 38.18 27.64 38.18 66.06 38.18 66.71 40.27 66.71 40.27 66.06 40.27 29.73 58.99 29.73 58.99 66.06 61.08 66.06 61.08 27.64 40.27 27.64 40.27 7.28 13.06 21.17 13.06 66.71 15.16 66.71 15.16 22.45"/>
      <rect class="cls-1" x="18.71" y="26.33" width="4.99" height="4.99"/>
      <rect class="cls-1" x="28.96" y="26.33" width="4.99" height="4.99"/>
      <rect class="cls-1" x="18.71" y="36.1" width="4.99" height="4.99"/>
      <rect class="cls-1" x="18.71" y="45.88" width="4.99" height="4.99"/>
      <rect class="cls-1" x="28.96" y="45.88" width="4.99" height="4.99"/>
      <rect class="cls-1" x="18.71" y="55.65" width="4.99" height="4.99"/>
      <rect class="cls-1" x="28.96" y="55.65" width="4.99" height="4.99"/>
      <rect class="cls-1" x="43.29" y="33.87" width="11.7" height="2.09"/>
      <rect class="cls-1" x="43.29" y="40.04" width="11.7" height="2.09"/>
      <rect class="cls-1" x="43.29" y="46.32" width="11.7" height="2.09"/>
    </g>
  </g>
</svg>