<?xml version="1.0" encoding="UTF-8"?>
<svg id="Layer_2" data-name="Layer 2" xmlns="http://www.w3.org/2000/svg" viewBox="0 0 76 76">
  <defs>
    <style>
      .cls-1 {
        fill: #f900d3;
      }
    </style>
  </defs>
  <g id="Layer_1-2" data-name="Layer 1">
    <g>
      <path class="cls-1" d="M45.35,39.2l.55.36.55-.36c18.02-11.83,17.8-21.19,16.88-24.67-1-3.74-4.12-6.3-7.95-6.53-3.05-.18-6.96,1.28-9.48,5.74-2.03-3.58-5.21-5.7-8.8-5.75-3.94-.05-7.36,2.43-8.52,6.21-3.32,10.8,12,21.88,16.78,25.01ZM30.48,14.77c.89-2.88,3.48-4.79,6.47-4.79.04,0,.07,0,.11,0,3.36.05,6.31,2.46,7.9,6.44l.93,2.32.93-2.32c1.69-4.24,4.84-6.64,8.43-6.43,2.96.18,5.36,2.16,6.14,5.05,1.67,6.27-4.11,14.51-15.49,22.12-17.15-11.46-16.14-20.02-15.41-22.39Z"/>
      <path class="cls-1" d="M0,0v76h76V0H0ZM74,74H2V2h72v72Z"/>
      <path class="cls-1" d="M24.36,69.94l-12.87-15.14,5.05-4.29,12.87,15.14-5.05,4.29ZM14.31,55.03l10.28,12.09,2-1.7-10.28-12.09-2,1.7ZM29.38,63.38l-10.45-12.44,6.8-5.78c2.58-2.19,5.85-3.41,9.24-3.44l13.58-.11c1.03-.03,2.03.42,2.74,1.18s1.06,1.79.98,2.82c-.16,2-1.94,3.52-3.93,3.39l-4.12-.28c-.21-.01-.42.06-.58.2-.16.14-.26.34-.27.55-.03.44.29.81.73.85l6.22.54c.38.04.76-.1,1.03-.36l8.77-8.4c.8-.77,1.83-1.18,2.95-1.14,1.11.03,2.13.49,2.89,1.29.76.81,1.16,1.86,1.12,2.97-.04,1.11-.5,2.13-1.32,2.89l-10.1,9.37c-1.97,1.83-4.63,2.77-7.31,2.59l-13.52-.91-5.46,4.23ZM21.75,51.17l7.93,9.45,4.54-3.52,14.28.96c2.13.14,4.25-.61,5.81-2.06l10.1-9.37c.42-.39.66-.92.68-1.49.02-.57-.19-1.11-.58-1.53-.39-.41-.92-.65-1.49-.66-.59,0-1.11.19-1.52.59l-8.77,8.4c-.69.66-1.64,1-2.59.91l-6.22-.54c-1.53-.13-2.65-1.44-2.56-2.97.05-.75.38-1.44.95-1.93.56-.5,1.3-.74,2.04-.69l4.12.28c.91.07,1.73-.64,1.8-1.55.04-.48-.12-.94-.45-1.29-.33-.35-.8-.56-1.26-.54l-13.58.11c-2.91.02-5.74,1.08-7.96,2.96l-5.29,4.5Z"/>
    </g>
  </g>
</svg>