<?xml version="1.0" encoding="UTF-8"?>
<svg id="Layer_2" data-name="Layer 2" xmlns="http://www.w3.org/2000/svg" viewBox="0 0 75.99 76">
  <defs>
    <style>
      .cls-1 {
        fill: #f900d3;
      }
    </style>
  </defs>
  <g id="Layer_1-2" data-name="Layer 1">
    <g>
      <path class="cls-1" d="M0,0v76h75.99V0H0ZM73.99,74H2V2h71.99v72Z"/>
      <polygon class="cls-1" points="12.5 24.38 25.46 24.38 25.46 53.5 27.46 53.5 27.46 22.38 10.5 22.38 10.5 53.5 12.5 53.5 12.5 24.38"/>
      <polygon class="cls-1" points="49.98 34.04 62.94 34.04 62.94 54 64.94 54 64.94 32.04 47.98 32.04 47.98 54 49.98 54 49.98 34.04"/>
      <polygon class="cls-1" points="52.09 37.18 51.08 39.18 60.92 39.18 61.84 37.18 52.09 37.18"/>
      <polygon class="cls-1" points="52.09 40.68 51.08 42.68 60.92 42.68 61.84 40.68 52.09 40.68"/>
      <polygon class="cls-1" points="51.08 46.68 60.92 46.68 61.84 44.68 52.09 44.68 51.08 46.68"/>
      <rect class="cls-1" x="13.58" y="25.72" width="2.15" height="2.15"/>
      <rect class="cls-1" x="13.58" y="29.47" width="2.15" height="2.15"/>
      <rect class="cls-1" x="13.58" y="33.29" width="2.15" height="2.15"/>
      <rect class="cls-1" x="13.58" y="37.15" width="2.15" height="2.15"/>
      <rect class="cls-1" x="13.58" y="41.24" width="2.15" height="2.15"/>
      <rect class="cls-1" x="17.91" y="25.72" width="2.15" height="2.15"/>
      <rect class="cls-1" x="17.91" y="29.47" width="2.15" height="2.15"/>
      <rect class="cls-1" x="17.91" y="33.29" width="2.15" height="2.15"/>
      <rect class="cls-1" x="17.91" y="37.15" width="2.15" height="2.15"/>
      <rect class="cls-1" x="17.91" y="41.24" width="2.15" height="2.15"/>
      <rect class="cls-1" x="22.38" y="25.72" width="2.15" height="2.15"/>
      <rect class="cls-1" x="22.38" y="29.47" width="2.15" height="2.15"/>
      <rect class="cls-1" x="22.38" y="33.29" width="2.15" height="2.15"/>
      <rect class="cls-1" x="22.38" y="37.15" width="2.15" height="2.15"/>
      <rect class="cls-1" x="22.38" y="41.24" width="2.15" height="2.15"/>
      <rect class="cls-1" x="13.58" y="45.85" width="2.15" height="2.15"/>
      <rect class="cls-1" x="17.91" y="45.85" width="2.15" height="2.15"/>
      <rect class="cls-1" x="22.38" y="45.85" width="2.15" height="2.15"/>
      <polygon class="cls-1" points="31.95 40.3 44.05 40.3 44.08 42.21 46.94 39.25 43.98 36.39 44.01 38.3 31.91 38.3 31.88 36.39 29.02 39.35 31.98 42.21 31.95 40.3"/>
      <polygon class="cls-1" points="68.1 55.37 9.34 55.37 7.98 57.37 66.89 57.37 68.1 55.37"/>
    </g>
  </g>
</svg>