<?xml version="1.0" encoding="UTF-8"?>
<svg xmlns="http://www.w3.org/2000/svg" version="1.1" viewBox="0 0 1000 1000">
  <defs>
    <style>
      .cls-1 {
        fill: #fff;
      }

      .cls-2 {
        fill: #f900d3;
      }
    </style>
  </defs>
  <!-- Generator: Adobe Illustrator 28.7.1, SVG Export Plug-In . SVG Version: 1.2.0 Build 142)  -->
  <g>
    <g id="Layer_1">
      <g id="Layer_3">
        <path class="cls-2" d="M.1.1v999.8h999.8V.1H.1ZM972.1,972.1H27.9V27.9h944.3v944.3Z"/>
      </g>
      <g id="Layer_2">
        <path class="cls-2" d="M634.6,198.1v27.7h137.5v635.4H227.9V225.8h137.5v-27.7h-165.2v690.8h599.7V198.1h-165.2Z"/>
        <g>
          <path class="cls-1" d="M351.5,125.1v152.5h297V125.1h-297ZM634.6,263.8h-269.3v-124.8h269.3v124.8Z"/>
          <path class="cls-2" d="M337.7,111.3v180.2h324.7V111.3h-324.7ZM634.6,263.8h-269.3v-124.8h269.3v124.8Z"/>
        </g>
        <g>
          <rect class="cls-2" x="443.8" y="398.2" width="271.6" height="27.7"/>
          <rect class="cls-2" x="443.8" y="556.2" width="271.6" height="27.7"/>
          <rect class="cls-2" x="443.8" y="714.3" width="271.6" height="27.7"/>
          <polygon class="cls-2" points="312.2 431.6 274.8 394.2 294.4 374.6 312.2 392.4 349.4 355.3 368.9 374.9 312.2 431.6"/>
          <polygon class="cls-2" points="312.2 589.7 274.8 552.2 294.4 532.7 312.2 550.5 349.4 513.3 368.9 532.9 312.2 589.7"/>
          <polygon class="cls-2" points="312.2 747.7 274.8 710.3 294.4 690.7 312.2 708.6 349.4 671.4 368.9 691 312.2 747.7"/>
        </g>
      </g>
    </g>
  </g>
</svg>