<?xml version="1.0" encoding="UTF-8"?>
<svg id="Layer_1" xmlns="http://www.w3.org/2000/svg" version="1.1" viewBox="0 0 1000 1000">
  <!-- Generator: Adobe Illustrator 29.0.1, SVG Export Plug-In . SVG Version: 2.1.0 Build 192)  -->
  <defs>
    <style>
      .st0 {
        fill: #f900d3;
      }
    </style>
  </defs>
  <path class="st0" d="M0,0v999.8h999.8V0H0ZM972.1,972.1H27.9V27.9h944.3v944.3Z"/>
  <path class="st0" d="M223.3,777c35.8,35.8,77.6,64,124.1,83.7,48.1,20.4,99.3,30.7,152,30.7s103.8-10.3,152-30.7c46.5-19.7,88.2-47.8,124.1-83.7s64-77.6,83.7-124.1c20.4-48.1,30.7-99.3,30.7-152s-10.3-103.8-30.7-152c-19.7-46.5-47.8-88.2-83.7-124.1-35.8-35.8-77.6-64-124.1-83.7-48.1-20.4-99.3-30.7-152-30.7s-103.8,10.3-152,30.7c-46.5,19.7-88.2,47.8-124.1,83.7-35.8,35.8-64,77.6-83.7,124.1-20.4,48.1-30.7,99.3-30.7,152s10.3,103.8,30.7,152c19.7,46.5,47.8,88.2,83.7,124.1ZM242.8,244.5c65.6-65.6,152-103,244.4-106v67.5h27.7v-67.4c91,3.8,176,41.1,240.8,105.9,65.7,65.6,103,152,106,244.4h-70v27.7h69.9c-3.8,91-41.1,176-105.9,240.8-64.8,64.8-149.8,102.1-240.8,105.9v-71.7h-27.7v71.8c-92.4-3-178.7-40.4-244.4-106s-102.1-149.8-105.9-240.8h74.8v-27.7h-74.9c3-92.4,40.4-178.7,106-244.4Z"/>
  <polygon class="st0" points="612.7 591.3 514.9 493.6 514.9 279.4 487.2 279.4 487.2 505.1 593.2 610.9 612.7 591.3"/>
</svg>