<?xml version="1.0" encoding="UTF-8"?>
<svg id="Layer_2" data-name="Layer 2" xmlns="http://www.w3.org/2000/svg" viewBox="0 0 75.99 76">
  <defs>
    <style>
      .cls-1 {
        fill: #f900d3;
      }
    </style>
  </defs>
  <g id="Layer_1-2" data-name="Layer 1">
    <g>
      <path class="cls-1" d="M0,0v76h75.99V0H0ZM73.99,74H2V2h71.99v72Z"/>
      <path class="cls-1" d="M12.8,28.8v4c0,.26.44,1.57.44,1.59.5,1.43,1.4,2.67,2.91,3.99l.03,6.33c-.02.09-.41.23-.58.29-.23.08-.46.16-.64.28-1.15.78-1.59,2.33-1.08,3.66-1.28.17-2.28.96-2.65,2.12-.4,1.26.04,2.63,1.11,3.55-.46.89-.52,1.93-.17,2.81.32.8.95,1.4,1.77,1.7-.03.11-.06.22-.08.32-.19.72-.33,1.24.05,2.18.4.99,1.14,1.61,2.26,1.88v4.76h1.83v-4.67l.03-.03h9.61v4.71h1.95v-4.71h3.55c1.26,0,3.57-1.12,4.5-1.87.19-.16.44-.43.71-.73.27-.3.71-.79.81-.83.94-.08,5.68-.17,6.48,0,.18.9.68,1.63,1.41,2.05.78.45,1.76.54,2.72.25.2,1.32,1.03,2.33,2.22,2.67,1.24.35,2.54-.1,3.43-1.2.86.48,1.88.56,2.76.22.81-.32,1.44-.96,1.74-1.8.89.36,1.8.37,2.58.02.88-.4,1.55-1.2,1.87-2.27.02,0,.03,0,.05.02.05.03.12.08.23.08h3.61l-.04-.28c-.02-.13,0-.29,0-.46.03-.39.06-.82-.26-1.14l-.07-.07h-3.53v-9.61l.03-.03h3.83v-1.83h-3.83l-.03-.04v-3.16c0-.55-.29-1.71-.43-2.19-.56-1.88-1.75-3.13-3.04-4.35l-.03-6.22c.02-.11.47-.29.68-.37.25-.1.49-.19.67-.32,1.03-.76,1.39-2.05,1.02-3.64,1.28-.11,2.27-.9,2.63-2.12.32-1.08.07-2.53-1.16-3.46.58-1.16.62-2.85-.46-3.89-.14-.13-.41-.28-.7-.43-.13-.07-.31-.17-.42-.24.6-1.3.19-2.98-.95-3.82-.27-.19-.53-.29-.78-.38-.18-.06-.34-.13-.5-.22v-4.04h-1.83v4.07l-.04.03h-9.57l-.03-.03v-4.19h-1.95v4.19l-.03.03h-3.88c-.69,0-2.55.81-3.12,1.14-.71.41-1.25.95-1.78,1.47-.25.25-.5.5-.78.74l-6.32.03c-.32-1-.94-1.76-1.75-2.15-.75-.37-1.61-.41-2.51-.12-.13-1.28-.91-2.29-2.1-2.66-1.29-.41-2.64.04-3.51,1.15-.16-.04-.31-.11-.46-.17-.28-.12-.57-.25-.96-.27-1.65-.09-2.53.93-3.17,2-1.53-.45-2.77-.17-3.62.81-.27.32-.4.64-.53.95-.07.16-.13.32-.21.47h-4.03v1.83h3.97s.06.05.08.07v9.61s-.05.05-.08.08h-4.09v1.83h4.19l.03.03ZM14.62,16.04c.08-.91.64-1.3,1.16-1.31.55,0,1.15.48,1.25,1.55.08.92.04,1.92,0,2.89-.03.92-.07,1.88,0,2.77.01.31.23.55.57.64.38.1.91.02,1.1-.29l.04-.06.14-8.3c.29-.66.78-1.01,1.3-.94.57.09.99.67,1.07,1.49.12,1.21.07,2.56.02,3.86-.05,1.21-.1,2.45-.01,3.6,0,.31.22.55.56.64.38.1.91.02,1.11-.29l.04-.06.16-9.24c.33-.64.82-.97,1.31-.88.55.1.96.7,1.04,1.52.13,1.36.07,2.86.02,4.31-.05,1.34-.1,2.72,0,4.04.07.39.43.66.87.66h.03c.4-.01.83-.26.91-.8.14-.98.08-2.08.03-3.14-.05-1.07-.11-2.17.03-3.15.35-.61.84-.92,1.31-.82.55.11.96.72,1.03,1.55.17,1.83.08,3.82,0,5.76-.08,1.91-.16,3.89,0,5.72.02.25.09,1.01.68,1.01h3.51c-.6,3.51-3.01,6.81-6.22,8.47l-.12.06v.14c-.02.13.05.23.11.29v6.96h-9.64v-7.3l-.1-.07c-2.01-1.49-3.08-3.18-3.26-5.15-.25-2.69-.15-5.62-.04-8.46.09-2.57.19-5.22.02-7.66ZM60.05,16.19c-.3.03-1.08.01-1.98,0-2.97-.05-4-.03-4.25.22-.23.23-.3.59-.18.95.12.35.39.6.73.65,1.19.1,2.49.04,3.74-.01,1.35-.06,2.75-.13,3.98.02.81.09,1.18.68,1.17,1.18,0,.51-.41,1.13-1.52,1.23-1.09.09-2.3.04-3.47-.01-1.27-.06-2.59-.12-3.78.01-.65.07-.89.48-.91.85-.02.47.31.89.8.98,1.32.1,2.73.04,4.1-.01,1.46-.06,2.97-.12,4.34.01.9.08,1.31.68,1.31,1.19,0,.5-.41,1.12-1.55,1.22-1.22.1-2.58.04-3.89-.02-1.42-.06-2.89-.13-4.21.01-.65.07-.89.48-.91.84-.02.46.32.89.8.98.93.07,1.94.03,2.9,0,1.02-.04,2.06-.09,3.01,0,.93.09,1.23.72,1.2,1.22-.04.61-.53,1.22-1.42,1.18h-11.8c-.09-.01-.24,0-.41.15-.22.19-.42.56-.42.76v3.27c-2.66-.44-5.38-2.05-7.16-4.28-.13-.16-.25-.36-.38-.56-.41-.66-.88-1.4-1.69-1.4h-6.69v-9.61l.03-.03h7.23l.07-.06c.32-.26.58-.58.82-.88.23-.28.46-.57.75-.82.95-.82,2.49-1.49,3.74-1.61,2.65-.26,5.56-.15,8.38-.04,2.56.1,5.2.2,7.62.02.94.08,1.36.65,1.36,1.18,0,.55-.46,1.14-1.48,1.23ZM60.13,53.78c-.1-.71-.56-1.03-.96-1.03h0c-.4,0-.86.32-.96,1.03-.17,1.2-.09,2.59-.02,3.94.07,1.25.14,2.55,0,3.66-.08.68-.55.98-.97,1.04-.45.07-1.02-.14-1.29-.74-.11-1.21-.06-2.53,0-3.81.06-1.33.11-2.71-.02-3.98-.08-.78-.54-1.14-.97-1.15-.43,0-.86.31-.96,1.03-.19,1.35-.11,2.93-.03,4.45.07,1.32.14,2.69.03,3.88-.06.65-.41,1.09-.92,1.18-.43.08-1.01-.13-1.34-.77-.12-1.34-.06-2.79,0-4.2.06-1.48.12-3.02-.02-4.42-.08-.78-.54-1.14-.97-1.15h-.02c-.4,0-.85.32-.95,1.03-.14.96-.08,2.05-.03,3.1.05,1.04.11,2.12-.03,3.08-.26.49-.75.76-1.25.7-.39-.05-.86-.33-.98-.93l-.09-12.35-.02-.1s-.3-.54-.56-.54h-3.63c.45-2.65,1.89-5.18,3.98-6.99.11-.09.34-.25.6-.44,1.22-.87,1.66-1.24,1.66-1.55v-7.02l.03-.03h9.61v7.13l.04.06c.29.45.69.79,1.08,1.12.3.25.58.49.81.78.75.91,1.24,2.06,1.44,3.3l.02,16.6c-.12.55-.49.93-.99.99-.4.05-.93-.11-1.25-.71-.13-.95-.08-2.03-.03-3.08.05-1.05.11-2.13-.03-3.09ZM15.73,59.88c.19-.32.52-.53.9-.58.29-.03.61-.05.95-.05.57,0,1.18.04,1.79.07,1.18.07,2.41.14,3.3-.05.64-.14.81-.67.77-1.08-.04-.36-.24-.72-.55-.72h-7.83c-.13-.02-.77-.29-.87-.37-.35-.3-.48-.71-.35-1.12.16-.49.65-.86,1.22-.91,1.23-.12,2.59-.06,3.9-.01,1.23.05,2.51.1,3.7.01l.12-.04c.7-.45.77-.86.71-1.12-.1-.42-.64-.72-1.43-.79-1.44-.13-2.93-.06-4.37,0-1.11.05-2.25.11-3.35.06-.91-.03-1.32-.55-1.4-.99-.08-.42.12-.99.87-1.31l9.08-.17h.08s.06-.05.06-.05c.44-.33.55-.89.23-1.4-.21-.27-.85-.35-.98-.37-.95-.11-1.99-.06-2.99-.02-.91.04-1.84.09-2.68,0-.73-.07-1.06-.6-1.06-1.1,0-.53.36-1.11,1.18-1.19,1.93-.19,4.07-.1,6.14-.02,1.89.08,3.85.16,5.66.03.25.04.53-.12.72-.27.12-.1.33-.3.33-.53v-3.5c2.74.57,5.13,1.96,6.93,4.02.09.1.25.33.44.59.87,1.21,1.2,1.61,1.5,1.61h7.05v9.64h-6.93c-.38,0-.78.46-1.35,1.17-.19.24-.38.47-.51.59-1.59,1.46-3.46,1.66-5.39,1.75-4.11.19-9.94.29-13.99,0-.67-.05-1.46-.17-1.68-.72-.15-.37-.13-.78.07-1.11ZM35.48,30.2c.11-.45.28-1.16.37-1.44l2.05.06c2.39,3.37,5.76,5.56,9.53,6.2v2.1c-2.97,2.14-4.94,4.85-5.86,8.08-.03.09-.06.27-.1.47-.06.28-.16.83-.25,1.04l-2.06-.06c-2.4-3.46-5.87-5.7-9.56-6.17l.05-2.18c2.7-1.89,4.69-4.46,5.61-7.23.04-.13.13-.48.22-.87Z"/>
    </g>
  </g>
</svg>