<?xml version="1.0" encoding="UTF-8"?>
<svg id="Layer_2" data-name="Layer 2" xmlns="http://www.w3.org/2000/svg" viewBox="0 0 75.99 76">
  <defs>
    <style>
      .cls-1 {
        fill: #f900d3;
      }
    </style>
  </defs>
  <g id="Layer_1-2" data-name="Layer 1">
    <g>
      <path class="cls-1" d="M0,0v76h75.99V0H0ZM73.99,74H2V2h71.99v72Z"/>
      <path class="cls-1" d="M8.04,51.49l.35.56h59.26l.28-.28.06-8.93c-.5-3.96-3.3-6.31-7.22-6.54-2.66-.16-6.45-.16-9.1,0-1,.06-2.02.27-2.94.66-1.23-1.17-2.98-2.07-4.69-2.24-3.82-.38-8.24.23-12.13.02-1.73.22-3.37,1.01-4.6,2.22-.93-.38-1.94-.6-2.94-.66-2.58-.17-8.95-.3-11.26.34-6.78,1.85-4.77,9.61-5.06,14.86ZM51.1,37.89c3.36-.27,7.07.21,10.47,0,2.32.14,4.95,2.73,4.95,5.06v7.68h-2.96v-5.29c0-.63-1.48-.59-1.48-.11v5.4h-11.03v-8.82c0-.47-.38-1.68-.57-2.16-.1-.26-.77-1.44-.69-1.53.46,0,.85-.2,1.3-.23ZM26.47,42.27c0-3.39,3.15-5.87,6.31-6.09,2.95-.2,7.53-.2,10.48,0,2.47.17,4.73,1.52,5.72,3.83.12.28.47,1.22.47,1.46v9.16h-3.41v-5.97c0-.57-1.48-.65-1.48,0v5.97h-13.08v-5.97c0-.46-1.48-.75-1.48,0v5.97h-3.53v-8.36ZM9.52,42.84c0-2.25,2.69-4.86,4.95-4.95,3.39.21,7.13-.29,10.47,0,.23.02,1.29.21,1.3.4-.29.48-.57.98-.77,1.51-.14.38-.48,1.45-.48,1.79v9.04h-11.03v-5.29c0-.65-1.48-.65-1.48,0v5.29h-2.96v-7.79Z"/>
      <path class="cls-1" d="M35.74,33.34c6.22,1.8,11.77-4.1,9.5-10.19-1.92-5.16-8.8-6.65-12.7-2.74-4.11,4.11-2.38,11.31,3.2,12.93ZM37.48,19.72c7.71-.72,9.38,10.94,1.64,12.34-8.42,1.53-10.19-11.54-1.64-12.34Z"/>
      <path class="cls-1" d="M21.13,35.11c8.49-1.68,6.78-14.51-1.85-13.91-9.82.68-7.84,15.83,1.85,13.91ZM14.3,27.48c.22-2.25,2.28-4.39,4.52-4.69,4.95-.67,8.32,4.75,5.31,8.72-3.4,4.48-10.39,1.69-9.83-4.03Z"/>
      <path class="cls-1" d="M57.65,35.11c8.54-1.69,6.75-14.55-1.85-13.91-9.86.74-7.78,15.82,1.85,13.91ZM55.34,22.79c7.69-1.04,8.59,10.15,1.66,10.88-7.5.79-8.24-9.99-1.66-10.88Z"/>
    </g>
  </g>
</svg>