<?xml version="1.0" encoding="UTF-8"?>
<svg id="Layer_2" data-name="Layer 2" xmlns="http://www.w3.org/2000/svg" viewBox="0 0 75.99 76">
  <defs>
    <style>
      .cls-1 {
        fill: #f900d3;
      }
    </style>
  </defs>
  <g id="Layer_1-2" data-name="Layer 1">
    <g>
      <path class="cls-1" d="M0,0v76h75.99V0H0ZM73.99,74H2V2h71.99v72Z"/>
      <path class="cls-1" d="M57.09,40.87h-10.36c.58-1.77,1.7-2.64.95-4.65-1.12-3-5.56-2.84-6.53.21-.6,1.89.52,2.76,1.01,4.44h-8.88v-10.09c-2.2-.33-3.54,2.16-5.7.79-1.6-1.02-1.59-3.38,0-4.4,2.15-1.38,3.47,1.16,5.7.79v-11.17H8.13v49.23s48.97,0,48.97,0v-25.16ZM9.47,18.14h22.33v8.21c-.48-.13-.91-.53-1.39-.7-3.17-1.13-6.12,1.6-5.24,4.84.8,2.97,4.33,3.65,6.63,1.91v8.47h-9.69c-.43,2.26,1.96,3.26.86,5.5-.92,1.87-3.8,1.85-4.65-.03-.97-2.15,1.23-3.29.96-5.47h-9.82v-22.73ZM31.8,55.33v9.35H9.47v-22.33h8.21c-1.16,1.61-1.42,3.69-.13,5.31,2.79,3.52,8.5.41,6.83-4-.18-.48-.55-.82-.64-1.31h8.07v9.21c0,1.38,1.8,1.03,2.63.75,1.08-.36,1.62-1.26,2.92-.78,1.55.57,1.91,2.71.5,3.65-1.68,1.12-2.7-.6-4.36-.74-.61-.05-1.69.01-1.69.88ZM55.61,64.68h-22.33v-8.88c1.67.43,2.57,1.59,4.44,1.01,3.07-.94,3.22-5.41.21-6.53-2.01-.75-2.88.37-4.65.95v-8.88h9.35c.82,0,.91-.96.88-1.55-.1-1.65-1.86-2.89-.73-4.49.81-1.15,2.65-1.13,3.42.06,1.16,1.8-1.52,3.7-.74,5.45.08.18.65.54.8.54h9.35v22.33Z"/>
      <path class="cls-1" d="M35.79,22.56c1.78.8,2.8-.17,4.49-.25l-1.46,10.07,11.01,1.77v-1.95c0-.26-.39-.87-.47-1.14-1.17-4.2,5.13-4.76,5.05-.87-.03,1.38-.96,1.77-1.45,2.86-.21.47-.32,1.01-.44,1.51l11.1,1.62,3.84-24.68-24.89-3.99-1.48,10.09c-1.44-.22-1.9-1.53-3.56-1.62-3.79-.22-5.15,5.05-1.74,6.58ZM37.13,17.34c1.56-.11,3.36,2.85,5.04,1.42l1.6-9.57,22.07,3.31-3.36,22.2-8.07-1.21c.33-.84,1.09-1.34,1.29-2.28,1.07-5.15-5.72-6.89-7.54-2.7-.67,1.54-.17,2.54.2,4.04l-8.01-1.34,1.32-9.79c-.19-.4-1.03-.58-1.45-.58-1.49,0-2.68,1.28-4.09.34-1.67-1.11-.88-3.68,1.02-3.82Z"/>
    </g>
  </g>
</svg>