<?xml version="1.0" encoding="UTF-8"?>
<svg id="Layer_2" data-name="Layer 2" xmlns="http://www.w3.org/2000/svg" viewBox="0 0 75.99 76">
  <defs>
    <style>
      .cls-1 {
        fill: #f900d3;
      }
    </style>
  </defs>
  <g id="Layer_1-2" data-name="Layer 1">
    <g>
      <path class="cls-1" d="M0,0v76h75.99V0H0ZM73.99,74H2V2h71.99v72Z"/>
      <path class="cls-1" d="M29.75,33.17h-13.53v34.85h13.53v-34.85ZM27.75,66.02h-9.53v-30.85h9.53v30.85Z"/>
      <path class="cls-1" d="M30.98,68.02h13.53v-29.41h-13.53v29.41ZM32.98,40.61h9.53v25.41h-9.53v-25.41Z"/>
      <path class="cls-1" d="M45.96,68.02h13.53v-23.93h-13.53v23.93ZM47.96,46.09h9.53v19.93h-9.53v-19.93Z"/>
      <polygon class="cls-1" points="50.23 40.4 50.77 42.33 55.92 40.89 54.82 34.92 52.85 35.29 53.41 38.29 20.76 20.93 20.65 23.07 52.21 39.85 50.23 40.4"/>
      <path class="cls-1" d="M43.47,16.88c.12-.21.12-.46,0-.66-.12-.21-.34-.33-.57-.33h-1.91v-1.48h-1.32v1.54c-3.76.88-3.23,6.29.66,6.4.69,0,1.32.37,1.66.95.34.59.34,1.32,0,1.91-.34.59-.97.95-1.66.95h-3.31v1.32h2.66v1.68h1.32v-1.74c3.76-.88,3.23-6.29-.66-6.4-2.52-.08-2.52-3.74,0-3.82h2.57c.24,0,.45-.11.57-.32Z"/>
      <path class="cls-1" d="M39.25,9.95c6.84,0,12.4,5.56,12.4,12.4,0,4.12-2.52,8.65-5.94,10.96l1.81,1.12c3.96-2.67,6.07-7.31,6.07-12.08,0-7.91-6.43-14.34-14.34-14.34s-14.34,6.43-14.34,14.34l1.71.97c0-6.84,5.79-13.37,12.62-13.37Z"/>
    </g>
  </g>
</svg>