<?xml version="1.0" encoding="UTF-8"?>
<svg id="Layer_1" xmlns="http://www.w3.org/2000/svg" version="1.1" viewBox="0 0 84 84">
  <!-- Generator: Adobe Illustrator 29.5.1, SVG Export Plug-In . SVG Version: 2.1.0 Build 141)  -->
  <defs>
    <style>
      .st0 {
        fill: none;
        stroke: #f900d3;
        stroke-linecap: square;
        stroke-miterlimit: 10;
        stroke-width: 2px;
      }

      .st1 {
        fill: #f900d3;
      }
    </style>
  </defs>
  <rect class="st0" x="5" y="5" width="74" height="74"/>
  <g id="Layer_11">
    <g id="Layer_1-2">
      <path class="st1" d="M57.3,61.3c.8-.6,1.3-1.8,1.3-2.7s-.3-1.8-1-2.5-.4-.4-.6-.5c.3-.6.5.1.5-1.9s-1.6-3.6-3.6-3.6h-6.5c.7-1.9,1.4-5.2.5-9.5-.1-.8-.6-1.5-1.2-2-.6-.5-1.2-.8-2.2-.8s-1.9.4-2.6,1.1c-.6.7-.9,1.6-.9,2.6,0,1.9,0,4.6-2,6.4l-3.7,2.5c-.3-.7-1-1.2-1.8-1.2h-4c-1.1,0-2,.9-2,2v19.3c0,1.1.9,2,2,2h4c1.1,0,2-.9,2-1.9l2.8.6c1.6.5,3.2.8,4.9.8h10.4-.3c.9,0,1.8-.4,2.5-1.1.7-.6,1.1-1.8,1.1-2.5s-.2-1.3-.5-1.9c1-.6,1.6-1.8,1.6-3s0-1-.3-1.4c-.1-.3-.2-.6-.4-.8ZM33.7,70.5c0,.2-.1.2-.2.2h-4c-.2,0-.2-.1-.2-.2v-19.3c0-.2.1-.2.2-.2h4c.2,0,.2,0,.2.2v19.3ZM47.6,51.9h6.6c1,0,1.8.8,1.8,1.8s-.2,1-.5,1.3l-.2.2c-.3.3-.3.6-.3,1s.4.6.7.7c.3,0,.6.2.9.5.3.4.5.5.5,1.3s-.3,1.2-.8,1.5c-.1,0-.2.2-.4.2-.3,0-.6.4-.6.8,0,.4.1.7.4.9q0,0,.3.2c0,0,.2.2.2.2.1.1.2.2.2.4,0,.2,0-.2,0,.7s-.3,1.2-.8,1.5c-.2.1-.4.2-.7.3-.1,0-.3.1-.4.2-.2.1-.3.3-.3.5,0,.3,0,.7.4.9.4.3.7.9.7,1.4s-.2,1-.5,1.3c-.4.3-.8.5-1.3.5h-10.4c-1.5,0-2.9-.2-4.3-.7h0c0,0-2.9-.8-2.9-.8v-16.5l4.2-2.9c2.4-2.3,2.7-5.5,2.6-7.8,0-.5.2-1,.5-1.3.4-.4.9-.6,1.3-.6s.8.2,1.1.4c.3.3.6.6.6,1,1,5-.2,8.4-.8,9.6-.2.3-.2.6,0,.9.2.2.5.4.8.4h1.2Z"/>
      <path class="st1" d="M39.1,32.4c-.3,0-.6,0-.9-.3-.5-.4-.8-1.1-.6-1.7l1.8-5.4-4.6-3.4c-.5-.4-.8-1.1-.6-1.7s.8-1.1,1.5-1.1h5.7l1.8-5.4c.2-.6.8-1.1,1.5-1.1h0c.7,0,1.3.4,1.5,1.1l1.8,5.4h5.7c.7,0,1.3.4,1.5,1.1.2.6,0,1.3-.6,1.7l-4.6,3.4,1.8,5.4c.2.6,0,1.3-.6,1.7s-1.3.4-1.8,0l-4.6-3.4-4.6,3.4c-.3.2-.6.3-.9.3h-.2ZM44.6,26.8c.3,0,.6.1.9.3l3.9,2.8-1.5-4.6c-.2-.6,0-1.3.6-1.7l3.9-2.8h-4.8c-.7,0-1.3-.4-1.5-1.1l-1.5-4.6-1.5,4.6c-.2.6-.8,1.1-1.5,1.1h-4.8l3.9,2.8c.5.4.8,1.1.6,1.7l-1.5,4.6,3.9-2.8c.3-.2.6-.3.9-.3h0Z"/>
      <path class="st1" d="M23.4,39.6c-.3,0-.6,0-.8-.3-.5-.4-.7-1-.5-1.6l1.1-3.5-3-2.1c-.5-.4-.7-1-.5-1.6s.7-1,1.3-1h3.6l1.1-3.5c.2-.6.7-1,1.3-1s1.2.4,1.3,1l1.1,3.5h3.6c.6,0,1.2.4,1.3,1,.2.6,0,1.2-.5,1.6l-3,2.1,1.1,3.5c.2.6,0,1.2-.5,1.6s-1.2.4-1.7,0l-3-2.1-3,2.1c-.2.2-.5.3-.8.3h.5ZM27.2,35.5c.3,0,.6,0,.8.3l2.5,1.8-.9-2.9c-.2-.6,0-1.2.5-1.6l2.5-1.8h-3c-.6,0-1.2-.4-1.3-1l-.9-2.9-.9,2.9c-.2.6-.7,1-1.3,1h-3l2.5,1.8c.5.4.7,1,.5,1.6l-.9,2.9,2.5-1.8c.2-.2.5-.3.8-.3h-.4Z"/>
      <path class="st1" d="M58.2,40.2c-.3,0-.6,0-.8-.3-.5-.4-.7-1-.5-1.6l1.1-3.5-3-2.1c-.5-.4-.7-1-.5-1.6s.7-1,1.3-1h3.6l1.1-3.5c.2-.6.7-1,1.3-1s1.2.4,1.3,1l1.1,3.5h3.6c.6,0,1.2.4,1.3,1,.2.6,0,1.2-.5,1.6l-3,2.1,1.1,3.5c.2.6,0,1.2-.5,1.6s-1.2.4-1.7,0l-3-2.1-3,2.1c-.2.2-.5.3-.8.3h.5ZM61.9,36.1c.3,0,.6,0,.8.3l2.5,1.8-.9-2.9c-.2-.6,0-1.2.5-1.6l2.5-1.8h-3c-.6,0-1.2-.4-1.3-1l-.9-2.9-.9,2.9c-.2.6-.7,1-1.3,1h-3l2.5,1.8c.5.4.7,1,.5,1.6l-.9,2.9,2.5-1.8c.2-.2.5-.3.8-.3h-.4Z"/>
    </g>
  </g>
</svg>