<?xml version="1.0" encoding="UTF-8"?>
<svg id="Layer_2" data-name="Layer 2" xmlns="http://www.w3.org/2000/svg" viewBox="0 0 75.99 76">
  <defs>
    <style>
      .cls-1 {
        fill: #f900d3;
      }
    </style>
  </defs>
  <g id="Layer_1-2" data-name="Layer 1">
    <g>
      <path class="cls-1" d="M0,0v76h75.99V0H0ZM73.99,74H2V2h71.99v72Z"/>
      <path class="cls-1" d="M38.18,45.14c0,5.67,4.61,10.28,10.28,10.28,2.66,0,5.07-1.02,6.9-2.68l1.4,1.4-1.29,1.18,8.36,9.19,4.05-3.68-8.36-9.19-1.27,1.16-1.54-1.54c1.28-1.71,2.04-3.83,2.04-6.12,0-5.67-4.61-10.28-10.28-10.28s-10.28,4.61-10.28,10.28ZM65.05,60.7l-1.09.99-5.67-6.23,1.09-.99,5.67,6.23ZM56.75,45.14c0,4.57-3.72,8.28-8.28,8.28s-8.28-3.72-8.28-8.28,3.72-8.28,8.28-8.28,8.28,3.72,8.28,8.28Z"/>
      <path class="cls-1" d="M42.95,29.57c1.95,0,3.54-1.59,3.54-3.54s-1.59-3.54-3.54-3.54-3.54,1.59-3.54,3.54c0,.66.19,1.28.51,1.81l-5.74,5.12c-.47-.23-1-.38-1.56-.38-.45,0-.88.09-1.27.25l-2.72-3.87c.36-.55.57-1.21.57-1.92,0-1.95-1.59-3.54-3.54-3.54s-3.54,1.59-3.54,3.54c0,.66.19,1.26.5,1.79l-5.46,5.4c-.47-.24-1-.38-1.56-.38-1.95,0-3.54,1.59-3.54,3.54s1.59,3.54,3.54,3.54,3.54-1.59,3.54-3.54c0-.66-.19-1.27-.51-1.8l5.45-5.39c.48.24,1,.39,1.57.39.51,0,1-.11,1.44-.31l2.66,3.79c-.42.58-.68,1.29-.68,2.07,0,1.95,1.59,3.54,3.54,3.54s3.54-1.59,3.54-3.54c0-.66-.19-1.27-.51-1.8l5.74-5.13c.47.23.99.37,1.55.37ZM42.95,24.49c.85,0,1.54.69,1.54,1.54s-.69,1.54-1.54,1.54-1.54-.69-1.54-1.54.69-1.54,1.54-1.54ZM15.62,38.93c-.85,0-1.54-.69-1.54-1.54s.69-1.54,1.54-1.54,1.54.69,1.54,1.54-.69,1.54-1.54,1.54ZM24.13,27.04c0-.85.69-1.54,1.54-1.54s1.54.69,1.54,1.54-.69,1.54-1.54,1.54-1.54-.69-1.54-1.54ZM32.63,37.66c-.85,0-1.54-.69-1.54-1.54s.69-1.54,1.54-1.54,1.54.69,1.54,1.54-.69,1.54-1.54,1.54Z"/>
      <path class="cls-1" d="M12.41,50.49h25.91l-.79-2H12.41c-1.17,0-2.12-.95-2.12-2.12v-25.22c0-1.17.95-2.12,2.12-2.12h36.45c1.17,0,2.12.95,2.12,2.12v12.12l2,1.6v-13.72c0-2.27-1.85-4.12-4.12-4.12H12.41c-2.27,0-4.12,1.85-4.12,4.12v25.22c0,2.27,1.85,4.12,4.12,4.12Z"/>
      <rect class="cls-1" x="11.97" y="19.83" width="3.18" height="2"/>
      <rect class="cls-1" x="16.56" y="19.83" width="3.18" height="2"/>
      <rect class="cls-1" x="21.54" y="19.83" width="3.18" height="2"/>
    </g>
  </g>
</svg>