<?xml version="1.0" encoding="UTF-8"?>
<svg id="Layer_2" data-name="Layer 2" xmlns="http://www.w3.org/2000/svg" viewBox="0 0 76 76">
  <defs>
    <style>
      .cls-1 {
        fill: #f900d3;
      }
    </style>
  </defs>
  <g id="Layer_1-2" data-name="Layer 1">
    <g>
      <path class="cls-1" d="M59.66,31.85l-15.57-15.57L7.91,52.46v15.57h15.57L59.66,31.85ZM56.83,31.85l-33.77,33.77-12.75-12.75L44.09,19.1l12.75,12.75ZM9.91,55.28l10.75,10.75h-10.75v-10.75Z"/>
      <path class="cls-1" d="M65.71,25.81c2.95-2.95,2.95-7.75,0-10.7l-4.88-4.88c-2.95-2.95-7.75-2.95-10.7,0l-4.32,4.32,15.58,15.57,4.32-4.32ZM51.55,11.65c1.05-1.05,2.45-1.63,3.93-1.63s2.88.58,3.93,1.63l4.88,4.88c1.05,1.05,1.63,2.45,1.63,3.93s-.58,2.88-1.63,3.93l-2.9,2.9-12.75-12.75,2.9-2.9Z"/>
      <path class="cls-1" d="M0,0v76h76V0H0ZM74,74H2V2h72v72Z"/>
    </g>
  </g>
</svg>