<?xml version="1.0" encoding="UTF-8"?>
<svg id="Layer_2" data-name="Layer 2" xmlns="http://www.w3.org/2000/svg" viewBox="0 0 76 76">
  <defs>
    <style>
      .cls-1 {
        fill: #f900d3;
      }
    </style>
  </defs>
  <g id="Layer_1-2" data-name="Layer 1">
    <g>
      <path class="cls-1" d="M9.89,27.11h2v-6.08l18.65,9.02h.27l-8.38,35.92c-.11.48,0,.97.3,1.35.31.39.77.61,1.26.61h26.77c.5,0,.96-.22,1.26-.61.3-.39.41-.88.3-1.35l-8.65-36.37,21.65-8.54v6.4h2v-7.24c.54-.37.81-1.02.64-1.66-.18-.69-.79-1.16-1.5-1.16h-25.69s-1.96-8.25-1.96-8.25c-.17-.72-.81-1.23-1.56-1.23h0c-.75,0-1.39.51-1.56,1.24l-1.92,8.25H9.08s-.88.07-.88.07l-.18.78-.13.87,1.99.96v7.05ZM46.02,48.09h-15.41l11.67-15.74,3.74,15.74ZM41.51,30.04l-12.61,17.01,3.97-17.01h8.65ZM33.33,28.04l2.02-8.66h3.85s2.06,8.66,2.06,8.66h-7.93ZM28.25,49.82c.21.17.46.27.73.27h14.93l-17.91,15.83h-1.51l3.76-16.1ZM29.02,65.93l17.55-15.52,3.69,15.52h-21.24ZM64.1,19.38l-20.89,8.24-1.96-8.24h22.85ZM37.25,11.22l1.47,6.17h-2.91s1.44-6.17,1.44-6.17ZM33.29,19.38l-2.02,8.66h-.28l-17.89-8.65h20.19Z"/>
      <path class="cls-1" d="M0,0v76h76V0H0ZM74,74H2V2h72v72Z"/>
    </g>
  </g>
</svg>