<?xml version="1.0" encoding="UTF-8"?>
<svg id="Layer_2" data-name="Layer 2" xmlns="http://www.w3.org/2000/svg" viewBox="0 0 75.99 76">
  <defs>
    <style>
      .cls-1 {
        fill: #f900d3;
      }
    </style>
  </defs>
  <g id="Layer_1-2" data-name="Layer 1">
    <g>
      <path class="cls-1" d="M0,0v76h75.99V0H0ZM73.99,74H2V2h71.99v72Z"/>
      <path class="cls-1" d="M64.77,7.57h-14.68v27.22l-20.86-12v12.37l-19.63-11.72v45.57h55.17V7.57ZM62.77,67.01H11.6V26.97l19.63,11.72v-12.44l20.86,12V9.57h10.68v57.44Z"/>
      <rect class="cls-1" x="17.43" y="41.83" width="6.95" height="6.95"/>
      <rect class="cls-1" x="17.43" y="54.9" width="6.95" height="6.95"/>
      <rect class="cls-1" x="30.23" y="41.83" width="6.95" height="6.95"/>
      <rect class="cls-1" x="30.23" y="54.9" width="6.95" height="6.95"/>
      <rect class="cls-1" x="43.04" y="41.83" width="6.95" height="6.95"/>
      <rect class="cls-1" x="43.04" y="54.9" width="6.95" height="6.95"/>
    </g>
  </g>
</svg>