<?xml version="1.0" encoding="UTF-8"?>
<svg id="Layer_2" data-name="Layer 2" xmlns="http://www.w3.org/2000/svg" viewBox="0 0 76 76">
  <defs>
    <style>
      .cls-1 {
        fill: #f900d3;
      }
    </style>
  </defs>
  <g id="Layer_1-2" data-name="Layer 1">
    <g>
      <path class="cls-1" d="M68.02,67.05c0-11.15-12.56-20.29-28.31-20.86.26-2.62.41-4.9.46-6.91,6.39-.05,11.58-5.26,11.58-11.67v-1h-1c-4.78,0-8.88,2.89-10.69,7-.41-5.27-1.67-7.24-2.42-7.95-1.97-11.45-12.78-19.3-24.32-17.54l-.99.15.15.99c1.61,10.58,10.76,18.18,21.15,18.18.91,0,1.82-.07,2.75-.19.65.82,2.77,4.69,1.32,18.92-16.25.17-29.39,9.47-29.39,20.88v1h59.71v-1ZM14.64,9.98c9.85-.98,18.91,5.68,20.91,15.38-9.85.98-18.91-5.68-20.91-15.38ZM49.7,28.68c-.49,4.49-4.07,8.06-8.55,8.55.49-4.49,4.07-8.06,8.55-8.55ZM10.35,66.05c.77-9.95,12.95-17.88,27.82-17.88s27.05,7.94,27.82,17.88H10.35Z"/>
      <path class="cls-1" d="M0,0v76h76V0H0ZM74,74H2V2h72v72Z"/>
    </g>
  </g>
</svg>