<?xml version="1.0" encoding="UTF-8"?>
<svg id="Layer_2" data-name="Layer 2" xmlns="http://www.w3.org/2000/svg" viewBox="0 0 75.99 76">
  <defs>
    <style>
      .cls-1 {
        fill: #f900d3;
      }
    </style>
  </defs>
  <g id="Layer_1-2" data-name="Layer 1">
    <g>
      <path class="cls-1" d="M0,0v76h75.99V0H0ZM73.99,74H2V2h71.99v72Z"/>
      <path class="cls-1" d="M50.3,41.15l-9.49,11.97c-1.41,1.78-1.88,3.87-1.47,6.57l.68,4.53v.02s0,.01,0,.02v4.02h14.74v-1.02c.04-1.46.2-3.18,1.26-4.84l7.71-12.11c.69-1.08.97-2.59,1.18-3.68l.02-.09v-18.89c0-1.49-.68-2.34-1.24-2.8-.58-.47-1.36-.75-2.13-.78h-.03s0,0,0,0c-.03,0-.06,0-.09,0-1.46,0-2.98.91-3.11,2.95l-1.02,16.31v.03s0,.03,0,.03c0,.9-.32,1.76-.95,2.56l-6.86,8.65c-.05.07-.12.09-.17.09-.05,0-.12,0-.19-.05-.07-.05-.09-.12-.09-.17,0-.05,0-.12.05-.19l6.86-8.65c.51-.64.79-1.32.83-2.03v-.06s0-.06,0-.06c0-.01,0-.02,0-.04v-.09s0-.04,0-.04c-.03-1.02-.55-2.01-1.45-2.72-1.36-1.08-3.52-1.37-5.05.56ZM54.07,42.21c.4.31.64.73.66,1.12h0c0,.06,0,.12,0,.18-.03.27-.16.55-.39.84l-6.86,8.65c-.79,1-.63,2.46.37,3.25.49.39,1.09.56,1.71.49.61-.07,1.16-.38,1.55-.86l6.86-8.65c.91-1.15,1.4-2.47,1.4-3.82l1.02-16.27c.02-.25.06-1.01,1.04-1.01.02,0,.05,0,.07,0,.34.01,1.36.17,1.36,1.51v18.7c-.17.92-.41,2.14-.88,2.86l-7.71,12.11c-1.08,1.7-1.42,3.43-1.52,4.9h-10.67v-1.96c0-.12,0-.24-.03-.35l-.68-4.53c-.32-2.12,0-3.66,1.05-4.98l9.49-11.97c.82-1.03,1.7-.59,2.15-.23Z"/>
      <path class="cls-1" d="M13.09,50.31l7.71,12.11c1.06,1.66,1.22,3.38,1.24,4.85v1.02h14.75v-4.02s0-.02,0-.02l.68-4.55c.41-2.7-.06-4.79-1.47-6.57l-9.49-11.97c-1.53-1.93-3.69-1.64-5.05-.56-.89.7-1.42,1.7-1.45,2.72v.04s0,.09,0,.09c0,.01,0,.02,0,.03v.06s0,.06,0,.06c.05.71.33,1.39.84,2.03l6.86,8.65c.05.07.06.14.05.19,0,.05-.03.12-.09.17-.11.09-.27.07-.36-.04l-6.86-8.65c-.64-.8-.96-1.66-.95-2.56v-.03s-1.02-16.34-1.02-16.34c-.13-2.1-1.71-2.99-3.22-2.94-.77.02-1.55.31-2.13.78-.57.46-1.24,1.31-1.24,2.8v18.89l.02.09c.21,1.1.49,2.6,1.18,3.68ZM13.95,27.64c0-1.36,1.05-1.5,1.38-1.51,1.04-.03,1.08.75,1.1,1.01l1.02,16.27c0,1.35.49,2.66,1.4,3.81l6.86,8.65c.79,1,2.25,1.17,3.25.37,1-.79,1.17-2.25.37-3.25l-6.86-8.65c-.23-.29-.36-.58-.39-.85,0-.06,0-.11,0-.17h0c.02-.4.27-.81.66-1.13.45-.36,1.33-.81,2.15.23l9.49,11.97c1.05,1.32,1.37,2.85,1.05,4.98l-.68,4.53c-.02.11-.03.23-.03.35v1.96h-10.67c-.1-1.47-.44-3.21-1.52-4.91l-7.71-12.11c-.46-.72-.7-1.94-.88-2.86v-18.7Z"/>
      <path class="cls-1" d="M39.09,21.93c3.67,0,6.65-2.98,6.65-6.65s-2.98-6.65-6.65-6.65-6.65,2.98-6.65,6.65,2.98,6.65,6.65,6.65ZM39.09,10.7c2.53,0,4.59,2.06,4.59,4.59s-2.06,4.59-4.59,4.59-4.59-2.06-4.59-4.59,2.06-4.59,4.59-4.59Z"/>
      <path class="cls-1" d="M53.09,37.19c0-7.72-6.28-14.01-14.01-14.01s-14.01,6.28-14.01,14.01v1.03h28.01v-1.03ZM27.19,36.16c.52-6.1,5.66-10.91,11.9-10.91s11.37,4.81,11.9,10.91h-23.8Z"/>
    </g>
  </g>
</svg>