<?xml version="1.0" encoding="UTF-8"?>
<svg id="Layer_2" data-name="Layer 2" xmlns="http://www.w3.org/2000/svg" viewBox="0 0 76 76">
  <defs>
    <style>
      .cls-1 {
        fill: #f900d3;
      }
    </style>
  </defs>
  <g id="Layer_1-2" data-name="Layer 1">
    <g>
      <path class="cls-1" d="M38.04,20.12c-7.87,0-14.26,6.4-14.26,14.27,0,3.41,1.23,6.72,3.43,9.26l3.91,5.31v5.15h14.17v-5.04l4.94-7.27c1.37-2.24,2.09-4.8,2.09-7.41,0-7.87-6.4-14.27-14.27-14.27ZM48.54,40.7l-5.26,7.74v3.65h-10.17v-3.81l-4.35-5.9c-1.93-2.23-2.99-5.08-2.99-8.01,0-6.76,5.5-12.27,12.26-12.27s12.27,5.5,12.27,12.27c0,2.24-.62,4.44-1.77,6.32Z"/>
      <rect class="cls-1" x="30.95" y="56.04" width="14.52" height="2"/>
      <rect class="cls-1" x="30.95" y="60.06" width="14.52" height="2"/>
      <rect class="cls-1" x="32.92" y="64.01" width="10.57" height="2"/>
      <rect class="cls-1" x="14.48" y="38.64" width="7.6" height="2" transform="translate(-11.57 7.79) rotate(-18.38)"/>
      <rect class="cls-1" x="17.28" y="21.69" width="2" height="7.6" transform="translate(-11.89 34.08) rotate(-70.26)"/>
      <rect class="cls-1" x="24.16" y="11.41" width="2" height="7.6" transform="translate(-4.22 16.12) rotate(-32.93)"/>
      <rect class="cls-1" x="44.84" y="14.21" width="7.6" height="2" transform="translate(8.1 46.09) rotate(-54.66)"/>
      <rect class="cls-1" x="36.21" y="7.99" width="2" height="7.6"/>
      <rect class="cls-1" x="53.91" y="25.77" width="7.6" height="2" transform="translate(-5.24 17.57) rotate(-16.57)"/>
      <rect class="cls-1" x="55.59" y="40.13" width="2" height="7.6" transform="translate(-4.55 81.26) rotate(-69.23)"/>
      <path class="cls-1" d="M0,0v76h76V0H0ZM74,74H2V2h72v72Z"/>
    </g>
  </g>
</svg>