<?xml version="1.0" encoding="UTF-8"?>
<svg id="Layer_2" data-name="Layer 2" xmlns="http://www.w3.org/2000/svg" viewBox="0 0 75.99 76">
  <defs>
    <style>
      .cls-1 {
        fill: #f900d3;
      }
    </style>
  </defs>
  <g id="Layer_1-2" data-name="Layer 1">
    <g>
      <path class="cls-1" d="M0,0v76h75.99V0H0ZM73.99,74H2V2h71.99v72Z"/>
      <path class="cls-1" d="M45.77,21.68h-16.14v37.25h16.14V21.68ZM31.39,57.17V23.44h12.62v33.74h-12.62Z"/>
      <path class="cls-1" d="M63.52,32.18h-16.14v26.75h16.14v-26.75ZM49.16,57.17v-23.23h12.62v23.23h-12.62Z"/>
      <path class="cls-1" d="M28.01,39.42H11.87v19.51h16.14v-19.51ZM13.63,57.17v-16h12.62v16h-12.62Z"/>
      <path class="cls-1" d="M67.98,61.1H8.47v5.83h59.51v-5.83ZM66.12,65.08H10.32v-2.12h55.8v2.12Z"/>
      <path class="cls-1" d="M30.9,13.6l3.15,2.29-1.2,3.69c-.11.34.01.71.3.92.13.09.29.14.44.15h.03s0,0,0,0c.17,0,.32-.06.44-.15l3.15-2.29,3.15,2.29c.15.1.32.15.49.15.17,0,.33-.05.48-.15.29-.2.42-.57.3-.92l-1.2-3.69,3.15-2.29c.29-.2.42-.58.3-.92-.11-.34-.42-.56-.78-.56h-3.89l-1.2-3.69c-.11-.33-.43-.56-.78-.56s-.67.23-.78.56l-1.2,3.69h-3.89c-.36,0-.67.23-.78.56-.11.34.01.71.3.92ZM39.3,14.99c-.29.2-.42.57-.3.92l.77,2.38-2.03-1.47c-.13-.11-.31-.17-.48-.17h-.12v.02c-.12.02-.23.07-.33.14l-2.03,1.47.77-2.38c.11-.34-.01-.71-.3-.92l-2.03-1.47h2.5c.36,0,.67-.23.78-.56l.77-2.38.77,2.38c.11.34.43.56.78.56h2.5l-2.03,1.46Z"/>
    </g>
  </g>
</svg>