<?xml version="1.0" encoding="UTF-8"?>
<svg id="Layer_1" xmlns="http://www.w3.org/2000/svg" version="1.1" viewBox="0 0 84 84">
  <!-- Generator: Adobe Illustrator 29.0.0, SVG Export Plug-In . SVG Version: 2.1.0 Build 186)  -->
  <defs>
    <style>
      .st0 {
        stroke-width: .5px;
      }

      .st0, .st1 {
        stroke: #f900d3;
        stroke-miterlimit: 10;
      }

      .st0, .st2 {
        fill: #f900d3;
      }

      .st1 {
        fill: none;
        stroke-linecap: square;
        stroke-width: 2px;
      }
    </style>
  </defs>
  <rect class="st1" x="5" y="5" width="74" height="74"/>
  <g id="Layer_11" data-name="Layer_1">
    <g id="Layer_1-2">
      <path class="st2" d="M13.7,69.9c-.2,0-.4,0-.6-.1-.6-.2-1-.8-1-1.4V22.9c0-2.7,2.2-4.9,4.9-4.9h49.2c2.7,0,4.9,2.2,4.9,4.9v31.7c0,2.7-2.2,4.9-4.9,4.9H24.8l-10,10c-.3.3-.7.5-1.1.5h0ZM17,20.1c-1.5,0-2.7,1.2-2.7,2.7v44.1l9.2-9.2c.3-.3.7-.5,1.1-.5h41.7c1.5,0,2.7-1.2,2.7-2.7v-31.7c0-1.5-1.2-2.7-2.7-2.7H17Z"/>
      <path class="st0" d="M41.2,53.7c-8.4,0-15.2-6.8-15.2-15.2s6.8-15.2,15.2-15.2,15.2,6.8,15.2,15.2-6.8,15.2-15.2,15.2ZM41.2,24.9c-7.5,0-13.7,6.1-13.7,13.7s6.1,13.7,13.7,13.7,13.7-6.1,13.7-13.7-6.1-13.7-13.7-13.7h0Z"/>
      <circle class="st2" cx="36.3" cy="34.1" r="2"/>
      <circle class="st2" cx="47.6" cy="34.1" r="2"/>
      <path class="st2" d="M41.6,50.1c-6.3,0-11.4-5.1-11.4-11.4h1.5c0,5.5,4.5,9.9,9.9,9.9s9.9-4.5,9.9-9.9h1.5c0,6.3-5.1,11.4-11.4,11.4Z"/>
    </g>
  </g>
</svg>