<?xml version="1.0" encoding="UTF-8"?>
<svg id="Layer_1" data-name="Layer 1" xmlns="http://www.w3.org/2000/svg" viewBox="0 0 75.994629 76.001953">
  <defs>
    <style>
      .cls-1 {
        fill: #f900d3;
      }
    </style>
  </defs>
  <path class="cls-1" d="M75.994629,76.001953H0V0h75.994629v76.001953ZM2,74.001953h71.994629V2H2v72.001953Z"/>
  <g id="Layer_1-2" data-name="Layer 1">
    <g id="Layer_1-2" data-name="Layer 1-2">
      <path class="cls-1" d="M35.063322,28.448399c-.319805,0-.626817-.102336-.895454-.294219-.537274-.396559-.767532-1.074544-.550063-1.714153l1.765321-5.42389-4.617983-3.351557c-.537274-.396559-.767532-1.074544-.550063-1.714153.204676-.626817.793118-1.061751,1.458309-1.061751h5.70532l1.765321-5.42389c.204676-.626817.793114-1.061751,1.458309-1.061751h0c.665196,0,1.253634.422141,1.458313,1.061751l1.765321,5.42389h5.705316c.665196,0,1.253634.422141,1.458313,1.061751.204672.626817,0,1.317595-.550063,1.714153l-4.617979,3.351557,1.765321,5.42389c.204672.626817,0,1.317595-.550063,1.714153s-1.26643.396559-1.803696,0l-4.617979-3.351557-4.617983,3.351557c-.268637.191883-.588442.294219-.895454.294219h-.038387ZM40.576754,22.794247c.319805,0,.626821.102336.895454.294219l3.876033,2.814283-1.483891-4.554022c-.204672-.626817,0-1.317595.550063-1.714153l3.876033-2.814283h-4.797073c-.665196,0-1.253634-.422141-1.458313-1.061751l-1.483891-4.554022-1.483895,4.554022c-.204676.626817-.793118,1.061751-1.458309,1.061751h-4.797073l3.876033,2.814283c.537274.396559.767532,1.074544.550063,1.714153l-1.483895,4.554022,3.876033-2.814283c.268637-.191883.588442-.294219.895458-.294219h.051172Z"/>
      <path class="cls-1" d="M19.444051,35.624821c-.294219,0-.575649-.089547-.8187-.268637-.498895-.35818-.703571-.985001-.511688-1.573438l1.125712-3.466686-2.954998-2.149087c-.498895-.35818-.703571-.985001-.511688-1.573438.191883-.575649.729157-.972208,1.330387-.972208h3.645776l1.125712-3.466686c.191883-.575649.729157-.972208,1.330387-.972208s1.151298.383766,1.330387.972208l1.125712,3.466686h3.645776c.614024,0,1.151298.383766,1.330387.972208.191883.575649-.012793,1.215259-.511688,1.573438l-2.954998,2.149087,1.125712,3.466686c.191883.575649-.012793,1.215259-.511688,1.573438s-1.151298.35818-1.650192,0l-2.954998-2.149087-2.954998,2.149087c-.243051.17909-.537274.268637-.8187.268637h.038387ZM23.217748,31.49294c.294219,0,.575649.089547.8187.268637l2.456103,1.778114-.933829-2.891037c-.191883-.575649.012793-1.215259.511688-1.573438l2.456103-1.778114h-3.031752c-.614024,0-1.151298-.383766-1.330387-.972208l-.933829-2.891037-.933829,2.891037c-.191883.575649-.729157.972208-1.330387.972208h-3.031752l2.456103,1.778114c.498895.35818.703571.985001.511688,1.573438l-.933829,2.891037,2.456103-1.778114c.243051-.17909.537274-.268637.8187-.268637h-.025594ZM22.974697,22.691911"/>
      <path class="cls-1" d="M54.174864,36.238845c-.294219,0-.575649-.089547-.818704-.268637-.498899-.35818-.703571-.985001-.511688-1.573438l1.125712-3.466686-2.954994-2.149087c-.498899-.35818-.703571-.985001-.511688-1.573438.191883-.575649.729157-.972208,1.330391-.972208h3.645776l1.125712-3.466686c.191883-.575649.729157-.972208,1.330391-.972208s1.151298.383766,1.330391.972208l1.125712,3.466686h3.645776c.614024,0,1.151298.383766,1.330391.972208.191883.575649,0,1.215259-.511688,1.573438l-2.954994,2.149087,1.125712,3.466686c.191883.575649,0,1.215259-.511688,1.573438s-1.151298.35818-1.650196,0l-2.954994-2.149087-2.954994,2.149087c-.243055.17909-.537274.268637-.818704.268637h.038375-.000008ZM57.948561,32.106967c.294219,0,.575649.089547.818704.268637l2.456103,1.778114-.933829-2.891037c-.191883-.575649,0-1.215259.511688-1.573438l2.456103-1.778114h-3.031752c-.614024,0-1.151298-.383766-1.330391-.972208l-.933829-2.891037-.933829,2.891037c-.191883.575649-.729157.972208-1.330391.972208h-3.031752l2.456103,1.778114c.498899.35818.703571.985001.511688,1.573438l-.933829,2.891037,2.456103-1.778114c.243055-.17909.537274-.268637.818704-.268637h-.025594Z"/>
      <path class="cls-1" d="M44.217876,45.573439h7.223239c1.222982,0,2.713689,1.7023,2.869213,2.887656.080769.615594.203292,2.220224-.424755,2.489903l.000155.160096c1.609807.927306,2.03492,3.078401,1.174986,4.707773-.143959.272768-.74051.893168-.740096,1.105654.000293.150168.298747.475438.376427.708344.570517,1.710564.09747,3.334804-1.340466,4.410683,1.265016,2.245078-.055506,5.176259-2.676837,5.470127-3.978502-.201525-8.222044.27141-12.168874.005483-2.167735-.146056-4.288531-1.084821-6.407693-1.50806-.178232.018119-.179407.601094-.262074.803488-.180934.442983-.689097,1.011548-1.171321,1.109711-.577478.117553-4.830045.110734-5.355019-.026207-.515534-.134478-1.150927-.863783-1.194089-1.412794l.053563-20.589222c.216814-.566865.814948-1.095842,1.42474-1.182144.94483-.133718,3.800385-.120444,4.769945-.009562.349882.040014.643053.166792.914544.388898.35068.28689.369911.664215.706208.800325,2.309397-1.800115,4.575723-2.447636,5.415799-5.557565.414553-1.534659.13811-2.6995.306879-4.146547.428686-3.675602,5.874816-4.23294,6.907714-.305248.775476,2.948819.401294,6.777281-.402187,9.689208ZM51.746805,52.056856c-.817404-.879344.341819-1.37823.639247-1.954007.705915-1.366553-.268883-2.672682-1.701406-2.795359-2.464874-.211086-5.422166.291605-7.826985.006336-1.607975-.190745-.333569-2.200836-.082741-3.129033.56301-2.083442.834251-6.127235.054516-8.139236-.362065-.934259-1.571706-1.375062-2.453062-.885223-1.344882.747457-.847024,2.583435-.933332,3.846039-.14408,2.107763-1.050132,4.128938-2.508738,5.637772l-4.429445,3.065345.030003,16.552962c2.057373.415123,4.221633,1.364129,6.30771,1.51294,3.730473.266114,7.754474-.199294,11.516535.005587,1.423295-.152779,2.250584-1.603274,1.444663-2.865122-.385496-.60358-1.00278-.609413-.693726-1.598505.203289-.650604,1.49205-.456227,1.959894-1.623867.770769-1.923675-1.403408-1.975087-1.118643-3.287691.116925-.53896.567129-.503747.90502-.727542,1.012755-.670775,1.264011-2.028507.338232-2.897092-.457911-.429622-1.173333-.429098-1.447744-.724302ZM25.861074,66.211264h4.181875l.16293-.16293v-19.443004l-.16293-.16293h-4.181875v19.768864Z"/>
    </g>
  </g>
</svg>