<?xml version="1.0" encoding="UTF-8"?>
<svg id="Layer_2" data-name="Layer 2" xmlns="http://www.w3.org/2000/svg" viewBox="0 0 75.99 76">
  <defs>
    <style>
      .cls-1 {
        fill: #f900d3;
      }
    </style>
  </defs>
  <g id="Layer_1-2" data-name="Layer 1">
    <g>
      <path class="cls-1" d="M0,0v76h75.99V0H0ZM73.99,74H2V2h71.99v72Z"/>
      <path class="cls-1" d="M47.32,35.1c-.12.36-.03.76.25,1.08l2.89,2.89-17.63,17.62,3.29-.18,6.12-6.19,10.51-10.51c.42-.42.42-1.08,0-1.5l-2.16-2.16,10.33-1.63-1.63,10.33-2.16-2.16c-.42-.42-1.08-.42-1.5,0l-20.36,20.36-5.8-5.8c-.42-.42-1.08-.42-1.5,0l-9.85,9.84,3.17-.13,7.45-7.45,5.8,5.8c.42.42,1.08.42,1.5,0l20.37-20.36,2.89,2.89c.2.2.48.31.75.31.19,0,.25,0,.33-.06.39-.13.66-.45.71-.85l2.18-13.83c.06-.34-.05-.67-.3-.92l-.07-.07h-.06c-.23-.21-.54-.29-.84-.24l-13.83,2.19c-.38.06-.71.34-.85.71Z"/>
      <path class="cls-1" d="M34.67,39.48v1.25h1.97v-2.6c5.6-1.31,4.82-9.38-.98-9.55-3.76-.11-3.76-5.58,0-5.7h3.83c.35.01.67-.17.86-.48.18-.31.18-.69,0-.98-.18-.31-.51-.49-.86-.49h-2.85v-2.21h-1.97v2.3c-5.6,1.31-4.82,9.38.98,9.55,1.03,0,1.97.55,2.47,1.42.51.88.51,1.97,0,2.85-.51.88-1.45,1.42-2.47,1.42h-4.94v1.97h3.96v1.25Z"/>
      <path class="cls-1" d="M33.71,52.48l1.59-1.57c-11.01-.65-20.91-10.57-20.25-21.58.32-5.33,2.69-10.23,6.69-13.77,4-3.55,9.13-5.33,14.47-5.01,11.01.65,19.45,10.61,18.79,21.62l1.99-.35c.72-12.11-8.55-22.55-20.66-23.27-5.87-.36-11.52,1.61-15.92,5.51s-7.01,9.28-7.36,15.15c-.72,12.11,8.55,22.55,20.66,23.27Z"/>
    </g>
  </g>
</svg>