<?xml version="1.0" encoding="UTF-8"?>
<svg xmlns="http://www.w3.org/2000/svg" viewBox="0 0 1000 1000">
  <defs>
    <style>
      .cls-1 {
        fill: #f900d3;
      }
    </style>
  </defs>
  <g id="Layer_3">
    <path class="cls-1" d="M.1.1v999.8h999.8V.1H.1ZM972.13,972.13H27.87V27.87h944.26v944.26Z"/>
  </g>
  <g id="Layer_2">
    <g>
      <rect class="cls-1" x="267.94" y="861.21" width="464.11" height="27.7"/>
      <g>
        <path class="cls-1" d="M695.71,185.82c-52.28-52.28-121.79-81.07-195.72-81.07s-143.43,28.79-195.71,81.07c-52.28,52.28-81.07,121.79-81.07,195.72,0,31.76,5.32,62.71,15.53,91.82,2.33,6.67,44.34,80.15,44.34,80.15l216.81,334.45,216.89-334.28s42.14-73.64,44.47-80.32c10.21-29.11,15.53-60.06,15.53-91.82,0-73.93-28.79-143.44-81.07-195.72ZM731.69,473.36c-9.14,23.08-85.37,143.23-85.37,143.23l-146.41,217.86-146.35-217.93s-76.13-120.16-85.24-143.16c-11.42-28.84-17.4-59.88-17.4-91.82,0-66.54,25.91-129.09,72.96-176.13,47.04-47.05,109.59-72.96,176.12-72.96s129.09,25.91,176.13,72.96c47.05,47.04,72.96,109.59,72.96,176.13,0,31.94-5.98,62.98-17.4,91.82Z"/>
        <path class="cls-1" d="M500,580.18c-109.53,0-198.64-89.11-198.64-198.64s89.11-198.64,198.64-198.64,198.64,89.11,198.64,198.64-89.11,198.64-198.64,198.64ZM500,210.6c-94.26,0-170.94,76.68-170.94,170.94s76.69,170.94,170.94,170.94,170.94-76.68,170.94-170.94-76.68-170.94-170.94-170.94Z"/>
      </g>
    </g>
  </g>
</svg>