<?xml version="1.0" encoding="UTF-8"?>
<svg id="Layer_2" data-name="Layer 2" xmlns="http://www.w3.org/2000/svg" viewBox="0 0 75.99 76">
  <defs>
    <style>
      .cls-1 {
        fill: #f900d3;
      }
    </style>
  </defs>
  <g id="Layer_1-2" data-name="Layer 1">
    <g>
      <path class="cls-1" d="M0,0v76h75.99V0H0ZM73.99,74H2V2h71.99v72Z"/>
      <path class="cls-1" d="M13.21,37.33c.2.15.43.23.68.23.05,0,.11,0,.16-.01l2.38-.34.51,3.52c.14.96.64,1.81,1.42,2.39.63.47,1.39.72,2.17.72.17,0,.35-.01.53-.04l5.74-.83,4.16,26.57,6.01-7.28-2.25-14.37,5.95-.86-.86-5.96,3.63-.52c3.84-.55,7.73.31,10.96,2.44l4.35,2.87.1.62,5.59-.88-5.94-37.95-5.59.88.11.72-2.98,3.53c-2.5,2.96-5.99,4.89-9.82,5.44l-4.11.59h0s-18.28,2.64-18.28,2.64l-.97.15.02.13c-.56.25-1.06.64-1.43,1.15-.58.78-.82,1.73-.69,2.69l.32,2.24-1.37.2h0s-1.01.13-1.01.13c-.62.09-1.05.66-.96,1.28l1.03,7.15c.04.3.2.56.44.74ZM32.24,64.85l-3.33-21.24,3.03-.47,2.9,18.56-2.61,3.16ZM34.44,45.92l-.57-3.96,3.96-.57.57,3.96-3.96.57ZM62.15,43.95l-1.64.26-5.32-34,1.64-.26,5.32,34ZM40.49,20.21c4.32-.62,8.25-2.8,11.06-6.13l1.86-2.21,4.91,31.33-2.83-1.87c-3.64-2.4-8.03-3.37-12.35-2.75l-3.64.52-2.65-18.38,3.63-.52ZM17.04,24.09c.26-.35.64-.57,1.07-.64l.97-.14h0s15.8-2.29,15.8-2.29l2.65,18.39-16.77,2.42c-.43.06-.86-.05-1.21-.31-.35-.26-.57-.64-.64-1.07l-2.18-15.15c-.06-.43.05-.86.31-1.21ZM15.36,29.8l.78,5.42-1.51.22-.78-5.42,1.51-.22Z"/>
    </g>
  </g>
</svg>