<?xml version="1.0" encoding="UTF-8"?>
<svg id="Layer_2" data-name="Layer 2" xmlns="http://www.w3.org/2000/svg" viewBox="0 0 75.99 76">
  <defs>
    <style>
      .cls-1 {
        fill: #f900d3;
      }
    </style>
  </defs>
  <g id="Layer_1-2" data-name="Layer 1">
    <g>
      <path class="cls-1" d="M0,0v76h75.99V0H0ZM73.99,74H2V2h71.99v72Z"/>
      <path class="cls-1" d="M53.18,50.37l-2.04,2.54v13.68H11.99V12.7h4.08v1.88c0,.56.46,1.02,1.02,1.02s1.02-.46,1.02-1.02v-1.88h2.86v1.88c0,.56.46,1.02,1.02,1.02s1.02-.46,1.02-1.02v-1.88h2.86v1.88c0,.56.46,1.02,1.02,1.02s1.02-.46,1.02-1.02v-1.88h2.86v1.88c0,.56.46,1.02,1.02,1.02s1.02-.46,1.02-1.02v-1.88h2.86v1.88c0,.56.46,1.02,1.02,1.02s1.02-.46,1.02-1.02v-1.88h2.86v1.88c0,.56.46,1.02,1.02,1.02s1.02-.46,1.02-1.02v-1.88h2.86v1.88c0,.56.46,1.02,1.02,1.02s1.02-.46,1.02-1.02v-1.88h3.62v20.25l2.04-3.59V10.66h-5.67v-1.88c0-.56-.46-1.02-1.02-1.02s-1.02.46-1.02,1.02v1.88h-2.86v-1.88c0-.56-.46-1.02-1.02-1.02s-1.02.46-1.02,1.02v1.88h-2.86v-1.88c0-.56-.46-1.02-1.02-1.02s-1.02.46-1.02,1.02v1.88h-2.86v-1.88c0-.56-.46-1.02-1.02-1.02s-1.02.46-1.02,1.02v1.88h-2.86v-1.88c0-.56-.46-1.02-1.02-1.02s-1.02.46-1.02,1.02v1.88h-2.86v-1.88c0-.56-.46-1.02-1.02-1.02s-1.02.46-1.02,1.02v1.88h-2.86v-1.88c0-.56-.46-1.02-1.02-1.02s-1.02.46-1.02,1.02v1.88h-6.12v57.97h43.23v-18.26Z"/>
      <polygon class="cls-1" points="17.74 20.44 17.74 22.48 44.1 22.48 45.64 20.44 17.74 20.44"/>
      <polygon class="cls-1" points="45.64 29.2 17.74 29.2 17.74 31.24 44.1 31.24 45.64 29.2"/>
      <polygon class="cls-1" points="38.28 38.62 17.74 38.62 17.74 40.66 36.82 40.66 38.28 38.62"/>
      <polygon class="cls-1" points="33.05 48.17 17.74 48.17 17.74 50.21 31.13 50.21 33.05 48.17"/>
      <rect class="cls-1" x="17.74" y="56.84" width="9.69" height="2.04"/>
      <path class="cls-1" d="M41.09,51.3s0,0,0,.01v.02s-.15.21-.15.21l.05.03s-.03.07-.04.11l-1.04,6.22c-.09.53.15,1.06.6,1.35.22.14.47.21.73.21s.53-.08.75-.23l5.23-3.53s.05-.06.08-.08l.05.03,17.03-26.48h0s1.1-1.71,1.1-1.71h0s.96-1.5.96-1.5c.37-.58.5-1.27.35-1.94-.15-.67-.54-1.25-1.12-1.62l-2.07-1.33c-.58-.37-1.27-.5-1.94-.35-.67.15-1.25.54-1.62,1.12l-.96,1.5h0s-17.98,27.95-17.98,27.95ZM45.44,54.44l-3.26,2.2.65-3.87,2.61,1.68ZM43.75,50.93l15.93-24.77,2.97,1.91-15.93,24.77-2.97-1.91ZM60.78,24.45l.96-1.5c.08-.12.2-.2.34-.23.14-.03.29,0,.4.07l2.07,1.33c.12.08.2.2.23.34.03.14,0,.28-.07.4l-.96,1.5-.49-.31-2.48-1.6Z"/>
    </g>
  </g>
</svg>