<?xml version="1.0" encoding="UTF-8"?>
<svg id="Layer_2" data-name="Layer 2" xmlns="http://www.w3.org/2000/svg" viewBox="0 0 75.99 76">
  <defs>
    <style>
      .cls-1 {
        fill: #f900d3;
      }
    </style>
  </defs>
  <g id="Layer_1-2" data-name="Layer 1">
    <g>
      <path class="cls-1" d="M0,0v76h75.99V0H0ZM73.99,74H2V2h71.99v72Z"/>
      <path class="cls-1" d="M9.68,27.82c.15.33.57.56.93.61v.04s3-.21,3-.21c.23-.02.47-.03.7-.03.19,0,.35-.02.49-.06l1.36-.1-.16-2.59-2.7.19c1.11-2.38,2.43-4.36,4.01-6.05,6.94-7.42,15.35-10.13,24.98-8.06,7.19,1.54,12.78,5.58,16.58,11.97l1.91,3.54,2.31-1.2-.46-.84c-.03-.09-.07-.18-.16-.35-.43-.93-.95-1.87-1.62-2.94l-.32-.58-.03.02c-6.26-9.62-17.51-14.5-28.77-12.45-9.35,1.7-16.31,6.96-20.7,15.62l-.98-2.27-2.39,1,.62,1.49c.46,1.11.91,2.18,1.38,3.24Z"/>
      <path class="cls-1" d="M32,59.8l-.74-1.2-1.79,1.11-.39.32,1.1,1.81c-2.29-.46-6.94-2.62-9.5-4.74-7.44-6.12-10.7-14.23-9.69-24.1l.05-.48-2.43-.32-.08.47c-.85,5-.09,10.79,2.05,15.5,3.8,8.37,10.32,13.86,19.39,16.31l-1.49,1.87,2.02,1.62.94-1.15c.81-.99,1.61-1.96,2.4-2.94.18-.23.26-.66.09-.95-.63-1.04-1.27-2.08-1.93-3.14Z"/>
      <path class="cls-1" d="M60.24,33.03l-1.15,1.06,1.73,1.93,1.65-1.47c.28,3.23,0,6.28-.85,9.09-2.64,8.76-8.26,14.69-16.68,17.62l-4.06,1.27.74,2.49,2.21-.7c5.26-1.32,9.99-4.13,13.68-8.13,5.59-6.07,8.13-13.45,7.57-21.96l2.14,1.13,1.23-2.27-3.84-2.1c-1.21-.66-1.45-.64-2.46.29-.63.58-1.26,1.16-1.9,1.75Z"/>
      <path class="cls-1" d="M50.46,27.78c-.28-6.54-5.68-12.03-12.32-12.49-3.74-.26-7.31.97-10.05,3.47-2.7,2.47-4.25,5.96-4.25,9.58,0,2.95.99,5.74,2.85,8.08,1.51,1.89,2.98,3.99,4.25,6.09v4.39h12.35v-4.28c1.33-2.17,2.93-4.49,4.31-6.2h0c2-2.48,2.98-5.46,2.85-8.64ZM32.8,32.9h0s-.02.02-.03.02c-.59,0-1.07-.48-1.07-1.07s.48-1.07,1.07-1.07,1.07.48,1.07,1.07c0,.56-.43,1-.98,1.05h-.06ZM41.59,32.9c-.56-.03-1.01-.49-1.01-1.06s.48-1.07,1.07-1.07,1.07.48,1.07,1.07-.48,1.07-1.07,1.07c0,0-.01,0-.02,0h0s-.05,0-.05,0ZM36.11,44.68v-9.55h2.24v9.55h-2.24ZM45.88,35.03h0c-1.44,1.8-3.12,4.22-4.5,6.49l-.3.49v2.67h-.5v-9.55h.95s.08.01.13.01c1.82,0,3.3-1.48,3.3-3.3s-1.48-3.3-3.3-3.3-3.3,1.48-3.3,3.3v1.06h-2.24v-1.06h-.04c0-1.82-1.48-3.29-3.3-3.29s-3.3,1.48-3.3,3.3,1.48,3.3,3.3,3.3c.06,0,.12-.02.19-.02h.93v9.55h-.7v-2.79l-.3-.49c-1.32-2.2-2.86-4.4-4.44-6.37-1.55-1.94-2.37-4.25-2.37-6.69,0-3,1.28-5.89,3.52-7.94,2.28-2.08,5.26-3.11,8.39-2.89,5.52.39,10.02,4.94,10.25,10.36.11,2.63-.71,5.1-2.36,7.15Z"/>
      <rect class="cls-1" x="31.33" y="48.61" width="11.78" height="2.23"/>
      <rect class="cls-1" x="32.8" y="52.51" width="8.84" height="2.23"/>
      <rect class="cls-1" x="34.27" y="56.36" width="5.89" height="2.23"/>
    </g>
  </g>
</svg>