<?xml version="1.0" encoding="UTF-8"?>
<svg id="Layer_2" data-name="Layer 2" xmlns="http://www.w3.org/2000/svg" viewBox="0 0 75.99 76">
  <defs>
    <style>
      .cls-1 {
        fill: #f900d3;
      }
    </style>
  </defs>
  <g id="Layer_1-2" data-name="Layer 1">
    <g>
      <path class="cls-1" d="M0,0v76h75.99V0H0ZM73.99,74H2V2h71.99v72Z"/>
      <path class="cls-1" d="M37.22,34c2.37,0,4.6-.92,6.28-2.6,1.68-1.68,2.6-3.9,2.6-6.28s-.92-4.6-2.6-6.27h0c-1.68-1.68-3.9-2.6-6.28-2.6s-4.6.92-6.28,2.6c-1.68,1.68-2.6,3.9-2.6,6.27s.92,4.6,2.6,6.28c1.68,1.68,3.9,2.6,6.28,2.6ZM32.36,20.26c1.3-1.3,3.03-2.01,4.86-2.01s3.56.71,4.86,2.01c1.3,1.3,2.01,3.03,2.01,4.86s-.71,3.56-2.01,4.86c-1.3,1.3-3.03,2.01-4.86,2.01s-3.56-.71-4.86-2.01c-1.3-1.3-2.01-3.03-2.01-4.86s.71-3.56,2.01-4.86Z"/>
      <path class="cls-1" d="M23.03,29.27l1.39.19c.07.18.14.36.21.54.07.18.15.35.23.53l-.84,1.12c-.59.78-.52,1.89.18,2.59l3.33,3.33c.68.75,1.85.86,2.66.25l1.12-.85c.17.08.35.16.53.23.18.07.36.14.54.21l.18,1.25c.07,1.03.94,1.84,1.97,1.84h4.81s0,0,0,0c.98,0,1.82-.73,1.96-1.7l.19-1.39c.18-.07.36-.14.54-.21.18-.07.36-.15.53-.23l1.12.84c.78.59,1.89.52,2.59-.18l3.33-3.33c.76-.69.87-1.83.25-2.66l-.85-1.12c.08-.18.16-.35.23-.53.08-.18.15-.36.21-.54l1.25-.18c1.03-.07,1.84-.94,1.84-1.97v-4.81c0-.98-.73-1.83-1.71-1.96l-1.39-.19c-.07-.18-.14-.36-.21-.54-.07-.18-.15-.35-.23-.53l.84-1.12c.59-.78.52-1.89-.18-2.59l-3.33-3.33c-.69-.76-1.83-.87-2.66-.25l-1.12.85c-.17-.08-.35-.16-.53-.23-.18-.07-.36-.14-.54-.21l-.18-1.25c-.07-1.03-.94-1.84-1.98-1.84h-4.81s0,0,0,0c-.98,0-1.82.73-1.95,1.7l-.19,1.39c-.18.07-.36.14-.54.21-.18.07-.36.15-.53.23l-1.12-.84c-.78-.59-1.89-.52-2.59.18l-3.33,3.33c-.75.68-.86,1.85-.25,2.66l.85,1.12c-.08.18-.16.35-.23.53-.07.18-.15.36-.21.54l-1.25.18c-1.03.07-1.84.94-1.84,1.97v4.81c0,.98.73,1.83,1.71,1.96ZM23.37,22.51l2.56-.36.19-.61c.1-.33.22-.66.35-.97.13-.32.28-.63.44-.94l.3-.56-1.57-2.13,3.33-3.36,2.12,1.6.56-.3c.31-.16.62-.31.94-.44.32-.13.64-.25.98-.35l.61-.19.34-2.61,4.79.05.36,2.56.61.19c.33.1.66.22.98.35.32.13.63.28.94.44l.56.3,2.12-1.57,3.36,3.33-1.6,2.12.3.56c.16.31.31.62.44.94.13.32.25.65.36.98l.19.6,2.6.34-.05,4.79-2.56.36-.19.61c-.1.33-.22.66-.35.98-.13.32-.28.63-.44.94l-.3.56,1.57,2.12-3.33,3.36-2.12-1.6-.56.3c-.31.16-.62.31-.94.44-.32.13-.64.25-.98.35l-.61.19-.34,2.61-4.79-.05-.36-2.56-.61-.19c-.33-.1-.66-.22-.98-.35-.32-.13-.63-.28-.94-.44l-.56-.3-2.12,1.57-3.36-3.33,1.6-2.12-.3-.56c-.16-.31-.31-.62-.44-.94-.13-.32-.25-.65-.35-.98l-.19-.61-2.61-.34.05-4.79Z"/>
      <path class="cls-1" d="M9.93,66.27c1.96,0,3.55-1.59,3.55-3.55,0-1.61-1.08-2.96-2.56-3.39h0v-7.24h24.71v7.24c-1.47.43-2.55,1.78-2.55,3.39,0,1.96,1.59,3.55,3.55,3.55s3.55-1.59,3.55-3.55c0-1.61-1.08-2.95-2.55-3.39v-7.24h25.86v7.24c-1.47.44-2.55,1.78-2.55,3.39,0,1.96,1.59,3.55,3.55,3.55s3.55-1.59,3.55-3.55c0-1.61-1.08-2.95-2.55-3.39v-9.24h-27.86v-7.14h-2v7.14H8.93v9.24h0c-1.47.43-2.56,1.78-2.56,3.39,0,1.96,1.59,3.55,3.55,3.55ZM38.19,62.72c0,.86-.7,1.55-1.55,1.55s-1.55-.7-1.55-1.55.7-1.55,1.55-1.55,1.55.7,1.55,1.55ZM66.06,62.72c0,.86-.7,1.55-1.55,1.55s-1.55-.7-1.55-1.55.7-1.55,1.55-1.55,1.55.7,1.55,1.55ZM9.93,61.17c.86,0,1.55.7,1.55,1.55s-.7,1.55-1.55,1.55-1.55-.7-1.55-1.55.7-1.55,1.55-1.55Z"/>
    </g>
  </g>
</svg>