<?xml version="1.0" encoding="UTF-8"?>
<svg id="Layer_2" data-name="Layer 2" xmlns="http://www.w3.org/2000/svg" viewBox="0 0 75.99 76">
  <defs>
    <style>
      .cls-1 {
        fill: #f900d3;
      }
    </style>
  </defs>
  <g id="Layer_1-2" data-name="Layer 1">
    <g>
      <path class="cls-1" d="M0,0v76h75.99V0H0ZM73.99,74H2V2h71.99v72Z"/>
      <path class="cls-1" d="M39.23,36.72c2.47,0,4.48-2.01,4.48-4.48s-2.01-4.48-4.48-4.48-4.48,2.01-4.48,4.48,2.01,4.48,4.48,4.48ZM39.23,29.76c1.37,0,2.48,1.11,2.48,2.48s-1.11,2.48-2.48,2.48-2.48-1.11-2.48-2.48,1.11-2.48,2.48-2.48Z"/>
      <path class="cls-1" d="M48.26,46.94c0-4.98-4.05-9.03-9.03-9.03s-9.03,4.05-9.03,9.03v1h18.06v-1ZM32.27,45.94c.49-3.4,3.42-6.03,6.96-6.03s6.47,2.63,6.96,6.03h-13.92Z"/>
      <path class="cls-1" d="M38.66,54.95c4.45,0,8.64-1.73,11.79-4.88,3.15-3.15,4.88-7.33,4.88-11.79s-1.73-8.64-4.88-11.79h0c-3.15-3.15-7.33-4.88-11.79-4.88s-8.64,1.73-11.79,4.88c-3.15,3.15-4.88,7.33-4.88,11.79s1.73,8.64,4.88,11.79c3.15,3.15,7.33,4.88,11.79,4.88ZM28.29,27.91c2.77-2.77,6.46-4.3,10.37-4.3s7.6,1.53,10.37,4.3c2.77,2.77,4.3,6.46,4.3,10.37s-1.53,7.6-4.3,10.37c-2.77,2.77-6.46,4.3-10.37,4.3s-7.6-1.53-10.37-4.3c-2.77-2.77-4.3-6.46-4.3-10.37s1.53-7.6,4.3-10.37Z"/>
      <path class="cls-1" d="M10.56,45.55l3.36.47c.18.54.38,1.08.6,1.59.21.51.45,1.03.71,1.55l-2.04,2.71c-.88,1.16-.77,2.81.26,3.85l6.67,6.67c1.01,1.12,2.75,1.29,3.96.37l2.71-2.05c.51.25,1.03.49,1.55.7.53.22,1.06.42,1.6.6l.44,3.16c.1,1.54,1.4,2.74,2.94,2.74h9.57s0,0,0,0c1.46,0,2.71-1.09,2.91-2.54l.47-3.36c.54-.18,1.07-.38,1.59-.6.51-.21,1.03-.45,1.55-.71l2.71,2.04c1.16.88,2.81.77,3.85-.26l6.67-6.67c1.12-1.01,1.28-2.75.37-3.96l-2.05-2.71c.25-.51.49-1.02.71-1.55.22-.53.42-1.06.6-1.59l3.16-.44c1.54-.1,2.75-1.4,2.75-2.94v-9.57c0-1.46-1.09-2.72-2.54-2.92l-3.36-.47c-.19-.55-.39-1.08-.6-1.59-.21-.51-.45-1.03-.71-1.55l2.04-2.71c.88-1.16.77-2.81-.26-3.85l-6.67-6.67c-1.01-1.12-2.75-1.29-3.96-.37l-2.71,2.05c-.51-.25-1.03-.49-1.55-.7-.53-.22-1.06-.42-1.6-.6l-.44-3.16c-.1-1.54-1.4-2.74-2.94-2.74h-9.57s0,0,0,0c-1.46,0-2.71,1.09-2.91,2.54l-.47,3.36c-.54.18-1.07.38-1.59.6-.51.21-1.03.44-1.55.71l-2.71-2.04c-1.16-.88-2.81-.77-3.85.26l-6.67,6.67c-1.12,1.01-1.28,2.75-.37,3.96l2.05,2.71c-.25.5-.49,1.02-.71,1.55-.22.53-.42,1.06-.6,1.59l-3.16.44c-1.54.1-2.75,1.4-2.75,2.94v9.57c0,1.46,1.09,2.72,2.54,2.92ZM10.97,32.11l4.48-.62.19-.61c.21-.68.46-1.36.73-2.03.28-.67.59-1.32.92-1.95l.3-.56-2.81-3.72c-.29-.39-.24-.94.16-1.3l6.7-6.7c.33-.33.86-.37,1.23-.08l3.72,2.81.56-.3c.66-.35,1.32-.66,1.95-.92.66-.27,1.34-.52,2.03-.73l.61-.19.64-4.61c.06-.46.46-.81.93-.81h9.57c.5,0,.91.38.95.95l.62,4.48.61.19c.68.21,1.36.46,2.03.73.65.27,1.31.58,1.95.92l.56.3,3.72-2.81c.39-.29.94-.24,1.3.16l6.7,6.7c.33.33.37.86.08,1.23l-2.81,3.72.3.56c.34.65.65,1.3.92,1.95.27.64.51,1.32.73,2.03l.19.6,4.61.64c.46.06.81.46.81.93v9.57c0,.5-.38.91-.95.95l-4.48.62-.19.61c-.21.68-.46,1.36-.73,2.03-.28.67-.59,1.32-.92,1.95l-.3.56,2.81,3.72c.29.39.24.94-.16,1.3l-6.7,6.7c-.33.33-.86.37-1.23.08l-3.72-2.81-.56.3c-.66.35-1.31.65-1.95.92-.66.28-1.35.52-2.03.73l-.61.19-.64,4.61c-.06.46-.46.81-.93.81h-9.57c-.5,0-.91-.38-.95-.95l-.62-4.48-.61-.19c-.68-.21-1.36-.46-2.03-.73-.66-.27-1.31-.58-1.95-.92l-.56-.3-3.72,2.81c-.39.29-.94.24-1.3-.16l-6.7-6.7c-.33-.33-.37-.86-.08-1.23l2.81-3.72-.3-.56c-.34-.65-.65-1.3-.92-1.95-.27-.66-.52-1.34-.73-2.03l-.19-.61-4.61-.64c-.46-.06-.81-.46-.81-.93v-9.57c0-.5.38-.91.95-.95Z"/>
    </g>
  </g>
</svg>