<?xml version="1.0" encoding="UTF-8"?>
<svg id="Layer_1" xmlns="http://www.w3.org/2000/svg" version="1.1" viewBox="0 0 84 84">
  <!-- Generator: Adobe Illustrator 29.0.0, SVG Export Plug-In . SVG Version: 2.1.0 Build 186)  -->
  <defs>
    <style>
      .st0 {
        fill: none;
        stroke: #f900d3;
        stroke-linecap: square;
        stroke-miterlimit: 10;
        stroke-width: 2px;
      }

      .st1 {
        fill: #f900d3;
      }
    </style>
  </defs>
  <g id="Layer_11" data-name="Layer_1">
    <rect class="st0" x="5" y="5" width="74" height="74"/>
    <g>
      <path class="st1" d="M43.2,40.7c-2.5,0-4.5-2-4.5-4.5s2-4.5,4.5-4.5,4.5,2,4.5,4.5-2,4.5-4.5,4.5ZM43.2,33.8c-1.4,0-2.5,1.1-2.5,2.5s1.1,2.5,2.5,2.5,2.5-1.1,2.5-2.5-1.1-2.5-2.5-2.5Z"/>
      <path class="st1" d="M52.3,51.9h-18.1v-1c0-5,4.1-9,9-9s9,4.1,9,9v1h.1ZM36.3,49.9h13.9c-.5-3.4-3.4-6-7-6s-6.5,2.6-7,6h.1Z"/>
    </g>
    <path class="st1" d="M37.3,71.9c-1.5,0-2.8-1.2-2.9-2.7l-.4-3.2c-.5-.2-1.1-.4-1.6-.6s-1-.5-1.5-.7l-2.7,2c-1.2.9-2.9.7-4-.4l-6.7-6.7c-1-1-1.1-2.7-.3-3.8l2-2.7c-.3-.5-.5-1-.7-1.5s-.4-1.1-.6-1.6l-3.4-.5c-1.4-.2-2.5-1.5-2.5-2.9v-9.6c0-1.5,1.2-2.8,2.7-2.9l3.2-.4c.2-.5.4-1.1.6-1.6s.5-1,.7-1.5l-2-2.7c-.9-1.2-.7-2.9.4-4l6.7-6.7c1-1,2.7-1.1,3.8-.3l2.7,2c.5-.3,1-.5,1.6-.7.5-.2,1.1-.4,1.6-.6l.5-3.4c.2-1.4,1.4-2.5,2.9-2.5h9.6c1.5,0,2.8,1.2,2.9,2.7l.4,3.2c.5.2,1.1.4,1.6.6s1,.5,1.5.7l2.7-2c1.2-.9,2.9-.7,4,.4l6.7,6.7c1,1,1.1,2.7.3,3.8l-2,2.7c.3.5.5,1,.7,1.5s.4,1,.6,1.6l3.4.5c1.4.2,2.5,1.5,2.5,2.9v9.6c0,1.5-1.2,2.8-2.7,2.9l-3.2.4c-.2.5-.4,1.1-.6,1.6s-.5,1-.7,1.5l2,2.7c.9,1.2.7,2.9-.4,4l-6.7,6.7c-1,1-2.7,1.1-3.8.3l-2.7-2c-.5.3-1,.5-1.6.7-.5.2-1.1.4-1.6.6l-.5,3.4c-.2,1.4-1.4,2.5-2.9,2.5,0,0-9.6,0-9.6,0ZM30.6,62.4l.6.3c.6.3,1.3.6,2,.9.7.3,1.4.5,2,.7l.6.2.6,4.5c0,.6.5,1,1,1h9.6c.5,0,.9-.3.9-.8l.6-4.6.6-.2c.7-.2,1.4-.5,2-.7.6-.3,1.3-.6,2-.9l.6-.3,3.7,2.8c.4.3.9.2,1.2,0l6.7-6.7c.4-.4.4-.9.2-1.3l-2.8-3.7.3-.6c.3-.6.6-1.3.9-1.9.3-.7.5-1.4.7-2l.2-.6,4.5-.6c.6,0,1-.5,1-1v-9.6c0-.5-.4-.9-.8-.9l-4.6-.6-.2-.6c-.2-.7-.5-1.4-.7-2-.3-.6-.6-1.3-.9-2l-.3-.6,2.8-3.7c.3-.4.2-.9,0-1.2l-6.7-6.7c-.4-.4-.9-.4-1.3-.2l-3.7,2.8-.6-.3c-.6-.3-1.3-.6-2-.9s-1.4-.5-2-.7l-.6-.2-.6-4.5c0-.6-.5-1-1-1h-9.6c-.5,0-.9.3-.9.8l-.6,4.6-.6.2c-.7.2-1.4.5-2,.7-.6.3-1.3.6-2,.9l-.6.3-3.7-2.8c-.4-.3-.9-.2-1.2,0l-6.7,6.7c-.4.4-.4.9-.2,1.3l2.8,3.7-.3.6c-.3.6-.6,1.3-.9,1.9-.3.7-.5,1.3-.7,2l-.2.6-4.5.6c-.6,0-1,.5-1,1v9.6c0,.5.4.9.8.9l4.6.6.2.6c.2.7.5,1.4.7,2,.3.6.6,1.3.9,2l.3.6-2.8,3.7c-.3.4-.2.9,0,1.2l6.7,6.7c.4.4.9.4,1.3.2l3.7-2.8h0ZM42.7,58.9c-4.5,0-8.6-1.7-11.8-4.9-3.1-3.2-4.9-7.3-4.9-11.8s1.7-8.6,4.9-11.8c3.1-3.1,7.3-4.9,11.8-4.9s8.6,1.7,11.8,4.9h0c3.1,3.1,4.9,7.3,4.9,11.8s-1.7,8.6-4.9,11.8c-3.2,3.1-7.3,4.9-11.8,4.9ZM42.7,27.6c-3.9,0-7.6,1.5-10.4,4.3-2.8,2.8-4.3,6.5-4.3,10.4s1.5,7.6,4.3,10.4c2.8,2.8,6.5,4.3,10.4,4.3s7.6-1.5,10.4-4.3c2.8-2.8,4.3-6.5,4.3-10.4s-1.5-7.6-4.3-10.4c-2.8-2.8-6.5-4.3-10.4-4.3Z"/>
  </g>
</svg>