<?xml version="1.0" encoding="UTF-8"?>
<svg id="Layer_2" data-name="Layer 2" xmlns="http://www.w3.org/2000/svg" viewBox="0 0 75.99 76">
  <defs>
    <style>
      .cls-1 {
        fill: #f900d3;
      }
    </style>
  </defs>
  <g id="Layer_1-2" data-name="Layer 1">
    <path class="cls-1" d="M75.99,76H0V0h75.99v76ZM2,74h71.99V2H2v72ZM33.7,14.3l-.45-1.95c-4.86,1.12-9.29,3.58-12.83,7.12l1.41,1.41c3.27-3.27,7.38-5.55,11.87-6.59ZM16.01,30.13l-1.89-.67c-.15.43-.3.8-.43,1.14-.7,1.81-1.09,2.81-1.09,7.73,0,5.72,1.78,11.17,5.16,15.77l1.61-1.18c-3.12-4.25-4.77-9.29-4.77-14.58,0-4.55.32-5.37.95-7.01.14-.35.28-.74.45-1.19ZM39.27,63c-5.61,0-10.9-1.84-15.29-5.31l-1.24,1.57c4.75,3.76,10.47,5.75,16.53,5.75,1.28,0,2.56-.09,3.79-.27l-.29-1.98c-1.14.17-2.32.25-3.51.25ZM60.43,25.66c2.29,3.82,3.51,8.21,3.51,12.67,0,9-4.91,17.29-12.81,21.63l.96,1.75c8.54-4.7,13.85-13.66,13.85-23.38,0-4.83-1.31-9.57-3.79-13.7l-1.71,1.03ZM57.73,19.09c-2.71-2.61-5.88-4.58-9.4-5.85l-.68,1.88c3.26,1.17,6.18,2.99,8.69,5.41l1.39-1.44ZM64.94,12.33c-2.2,0-3.99,1.79-3.99,3.99,0,.69.19,1.32.5,1.89l-9.53,8.67c-.19-.21-.36-.42-.56-.62h0c-2.8-2.81-6.42-4.51-10.31-4.91v-4.91c2.14-.46,3.75-2.36,3.75-4.64,0-2.62-2.13-4.75-4.75-4.75s-4.75,2.13-4.75,4.75c0,2.27,1.61,4.18,3.75,4.64v4.82c-4.47.06-8.67,1.82-11.86,4.99-1.12,1.12-2.06,2.38-2.82,3.73l-5.67-5.49c.13-.35.21-.73.21-1.13,0-1.82-1.48-3.29-3.29-3.29s-3.29,1.48-3.29,3.29,1.48,3.29,3.29,3.29c.69,0,1.32-.21,1.85-.57l5.97,5.78c-.83,2.03-1.26,4.21-1.26,6.47,0,3.96,1.34,7.72,3.81,10.76l-9.33,9.33c-.58-.33-1.24-.54-1.96-.54-2.2,0-3.99,1.79-3.99,3.99s1.79,3.99,3.99,3.99,3.99-1.79,3.99-3.99c0-.76-.22-1.46-.59-2.06l9.25-9.25c3.21,3.13,7.43,4.86,11.92,4.86,1.82,0,3.59-.29,5.27-.84l2.36,7.54c-.68.6-1.11,1.47-1.11,2.45,0,1.82,1.48,3.29,3.29,3.29s3.29-1.48,3.29-3.29-1.48-3.29-3.29-3.29c-.11,0-.22.02-.33.03l-2.34-7.46c1.81-.83,3.49-1.98,4.95-3.43,3.23-3.23,5-7.52,5-12.08,0-3.6-1.12-7.03-3.18-9.91l9.63-8.75c.62.39,1.35.63,2.13.63,2.2,0,3.99-1.79,3.99-3.99s-1.79-3.99-3.99-3.99ZM14.33,23.37c0-.71.58-1.29,1.29-1.29s1.29.58,1.29,1.29-.58,1.29-1.29,1.29-1.29-.58-1.29-1.29ZM50.37,64.57c0,.71-.58,1.29-1.29,1.29s-1.29-.58-1.29-1.29.58-1.29,1.29-1.29,1.29.58,1.29,1.29ZM45.43,31.88l.24-.46c-.71-.67-1.5-1.03-2.35-1.07-1.12-.05-2.11.37-2.65,1.13-.54.76-.54,1.71,0,2.47.19.27.29.46.38.65.25.49.48.85,1.25,1.29,0,.02-.01.04-.02.07-.12.37-.31.99.01,1.72.08.18.1.36.12.53,0,.04,0,.09.01.23.04.32.13.69.44.99.24.24.56.4.99.48-.08.25-.16.56-.12.9.04.43.26,1.03,1.07,1.49.68.38,1.18.51,1.65.44.26-.04.44-.14.6-.24,0,0,.04,0,.14.04,0,.01-.02.03-.03.05h0l-.07.1c-.3.4-.71.95-.66,1.66.03.5-.14.77-.62.96-1.13.47-1.36,1.47-1.48,2.22-.74.25-1.25.78-1.38,1.45-.17.81.28,1.59,1.12,1.94.45.2,1.13.46,1.95.46.73,0,.99-.1,1.5-.28.05-.02.1-.04.14-.06.04.02.07.03.11.05.05.02.11.04.16.06-2.51,1.72-5.52,2.65-8.62,2.65-8.49,0-15.4-6.91-15.4-15.4v-.15l-.02-.03c.01-1.17.16-2.34.44-3.48.08.15.16.3.22.47.14.37.18.74.1,1.09-.14.62-.23,1.32.18,1.83.3.37.69.45,1.05.53.21.04.27.06.32.13.1.12.19.27.31.47.25.41.59.97,1.25,1.19.72.26,1.58.09,2.64-.54.09-.06.19-.12.31-.2l.1-.07c.25-.18.59-.42.88-.5.04-.01.08-.02.11-.02-.05.08-.1.15-.15.25-.29.54-.37,1.11-.25,1.79.04.21.07.37.1.51l.09.44-.1.21c-.05.11-.12.25-.18.42l-.1.25c-.15.39-.28.7-.34,1-.13.61-.04,1.14.35,1.87.48.93.36,1.39.18,1.72-.25.45-.31.86-.18,1.23.12.41.41.65.54.72l.03.11c.1.32.25.81.58,1.18.36.39.78.46,1.07.46h0c.79-.05,1.51-.86,1.73-1.24.21-.34.37-.86-.03-1.47.33-.41.51-.47.8-.58.3-.1.66-.24,1.07-.59,1.04-.87,1.43-2.6,1.43-3.49,0-1.06-.73-1.43-1.06-1.59-.08-.05-.17-.1-.26-.14-.37-.19-.96-.49-1.28-.85.69-.77,1-1.44.86-2.86-.09-.87.17-1.14.79-1.74.41-.38.62-.82.64-1.33,0-.41-.13-.75-.26-1.04-.04-.1-.08-.19-.11-.28-.01-.05-.06-.31.35-1.03.53-.94.32-1.69.08-2.25-.1-.24-.21-.47-.33-.71-.2-.4-.38-.77-.47-1.17.12-.03.26-.06.41-.09.38-.07.71-.26.96-.54.16-.19.28-.42.35-.72.08-.31.09-.6.1-.87.01-.38.04-.52.06-.55.21-.33.3-.68.25-1.05-.05-.3-.19-.59-.44-.87-.3-.33-.72-.58-1.32-.97-.01-.07,0-.15.01-.26,1.48-.13,2.67-.09,3.97.12,0,.51-.1.96-.27,1.21-.53.79-.4,1.44-.28,1.75.24.63.86,1.06,1.6,1.13.25.02.49.02.72.02.15,0,.62,0,.7.06.25.34.63.54,1.02.54h.12s-.07-.5-.06-.5l.05.5v-.04.04c.31-.03.62-.19.86-.43.31-.31.53-.75.63-1.22l.15.05c.19.07.39.14.64.17.27.02.65-.03,1.02-.33.25.19.5.4.75.62-.04.02-.07.05-.1.07-.62.45-.93,1.12-.89,1.91,0,.15,0,.25,0,.33-.18.04-.44.13-.67.38-.41.44-.35,1-.32,1.29,0,0,0,.02,0,.03l-.03.02c-.3.18-.68.4-.96.72-.12.13-.21.26-.29.4-.11-.09-.25-.22-.35-.31l-.09-.09M48.07,31.66h0s0,0,0,0ZM45.18,25.8c0,.05-.02.1-.04.15-.52-.36-1.17-.36-1.67-.36-.38,0-.39,0-.45,0h-.11c-.13-.03-.2-.07-.21-.07,0,0,0,0,0,0,0,0,0-.07.11-.25.31-.46.48-1.05.53-1.77.96.26,1.88.62,2.77,1.06-.48.17-.8.58-.94,1.25ZM32.25,49.45h0s0,0,0,0ZM27.96,38.33l-.08-.12c-.12-.2-.25-.41-.41-.59-.41-.48-.89-.6-1.26-.68.01-.08.03-.19.07-.33.15-.67.1-1.36-.16-2.06-.29-.77-.76-1.4-1.18-1.84,1.89-4.81,6.07-8.36,11.09-9.45,0,.11.01.22.03.33.09.55.41.99.9,1.25.38.2.64.37.81.53-.25.44-.26.96-.27,1.3,0,.19-.01.38-.05.54-.27.05-.56.11-.82.21-.43.17-.73.44-.88.8-.13.3-.14.64-.04,1.07.12.54.34.99.55,1.43l.07.14c.11.21.2.42.29.61.15.34.15.48,0,.75-.62,1.1-.75,1.39-.49,2.32.05.17.11.32.17.47.03.08.12.29.13.35,0,0-.02.05-.11.13-.84.79-1.47,1.53-1.31,3.12.1.97-.03,1.15-.53,1.69-.5.53-.54,1.25-.1,1.88.49.7,1.34,1.14,1.94,1.45.09.05.2.1.25.12.14.08.19.12.2.12,0,.69-.37,1.82-.83,2.2-.19.16-.33.21-.55.28-.39.14-.93.33-1.57,1.14-.3.38-.44.7-.44,1.06,0,.34.14.59.24.72-.05.05-.09.1-.14.14-.03-.08-.07-.18-.11-.32-.04-.15-.08-.27-.12-.34-.1-.23-.26-.38-.38-.48.51-.96.45-2.03-.19-3.25-.25-.48-.23-.6-.19-.76.03-.18.13-.43.28-.78l.08-.19c.07-.18.13-.3.21-.49.09-.2.19-.4.19-.69,0-.19-.03-.36-.08-.59l-.15-.74c-.07-.36,0-.55.08-.7.05-.08.09-.16.14-.23.14-.2.28-.44.33-.76.1-.68-.38-1.11-.57-1.27-.49-.43-1.1-.57-1.79-.39-.54.15-1.02.47-1.42.76-.1.07-.19.14-.26.18-.87.5-1.18.43-1.24.41-.09-.03-.22-.24-.35-.45M49.51,49.42c-.13-.13-.33-.17-.62-.11-.24.04-.33.05-.45,0-.28-.13-.59-.24-.95-.23-.21.02-.4.09-.58.2-.94.34-1.63.11-2.2-.14-.08-.04-.12-.07-.14-.07.03-.04.12-.13.32-.18.58-.16.95-.57,1.06-1.2.13-.79.24-.91.47-1.01,1.15-.47,1.74-1.4,1.66-2.61,0-.1.21-.37.34-.55l.07-.09c.27-.37.42-.74.44-1.13,0-.6-.31-1.07-.88-1.35-.41-.2-.74-.28-1.11-.26-.32.03-.54.14-.76.27-.01,0-.15,0-.58-.24-.18-.1-.21-.17-.21-.18,0-.07.06-.25.1-.37l.04-.12c.1-.3.14-.76-.07-1.16-.21-.4-.59-.65-1.09-.7-.14-.01-.24-.03-.29-.04,0-.03,0-.07-.01-.14-.02-.24-.06-.65-.26-1.11-.05-.12-.03-.22.08-.58.07-.22.15-.5.11-.79-.05-.47-.33-.85-.85-1.13-.41-.22-.44-.27-.6-.58-.13-.28-.29-.54-.51-.85-.11-.16-.15-.3,0-.53.29-.42.98-.42,1.2-.41.44.02.85.21,1.25.6l.08.08c.41.38.8.75,1.31.83.62.12,1.03-.11,1.25-.32.18-.16.3-.34.37-.47.04-.06.09-.14.14-.2.12-.13.38-.28.59-.4l.11-.06c.24-.14.8-.48.72-1.33,0-.05,0-.09-.01-.15v-.04c.18-.06.41-.16.61-.39.3-.34.41-.83.37-1.58-.01-.25.06-.35.2-.45.1-.07.23-.13.4-.18,2.61,2.83,4.04,6.47,4.04,10.29,0,4.18-1.76,8.21-4.84,11.08l-.31.09ZM37.29,11.8c0-1.52,1.23-2.75,2.75-2.75s2.75,1.23,2.75,2.75-1.23,2.75-2.75,2.75-2.75-1.23-2.75-2.75ZM14.7,63.86c-1.1,0-1.99-.89-1.99-1.99s.89-1.99,1.99-1.99,1.99.89,1.99,1.99-.89,1.99-1.99,1.99ZM64.94,18.3c-1.1,0-1.99-.89-1.99-1.99s.89-1.99,1.99-1.99,1.99.89,1.99,1.99-.89,1.99-1.99,1.99Z"/>
  </g>
</svg>