<?xml version="1.0" encoding="UTF-8"?>
<svg id="Layer_2" data-name="Layer 2" xmlns="http://www.w3.org/2000/svg" viewBox="0 0 75.99 76">
  <defs>
    <style>
      .cls-1 {
        fill: #f900d3;
      }
    </style>
  </defs>
  <g id="Layer_1-2" data-name="Layer 1">
    <g>
      <path class="cls-1" d="M0,0v76h75.99V0H0ZM73.99,74H2V2h71.99v72Z"/>
      <path class="cls-1" d="M39.37,66.1c1.35,1.2,3.08,1.86,4.88,1.86,1.06,0,2.09-.23,3.06-.68l6.33-2.95c2.05-.96,3.55-2.42,4.34-4.23.82-1.87.79-3.93-.08-5.79l-3.55-7.6c-1.7-3.64-6.04-5.22-9.69-3.52l-3.72,1.76c-1.71-1.84-3.12-3.93-4.18-6.21-1.07-2.3-1.77-4.71-2.07-7.18l3.74-1.75c1.76-.82,3.1-2.28,3.77-4.11.66-1.83.58-3.81-.25-5.57l-3.54-7.59c-.82-1.76-2.28-3.1-4.11-3.77-1.83-.66-3.81-.58-5.57.25l-7.06,3.29c-2.64,1.23-4.29,3.92-4.2,6.84.26,8.97,2.31,17.64,6.09,25.75,3.74,8,9.2,15.34,15.81,21.21ZM22.5,14.11l7.06-3.29c.71-.33,1.47-.5,2.23-.5.61,0,1.22.11,1.81.32,1.33.48,2.38,1.45,2.98,2.73l3.54,7.59c.6,1.28.66,2.72.18,4.04-.48,1.33-1.45,2.38-2.73,2.98l-5.03,2.35.07.7c.28,2.94,1.06,5.81,2.33,8.53,1.26,2.7,2.96,5.15,5.06,7.28l.5.51,5.01-2.37c2.64-1.23,5.79-.09,7.03,2.55l3.54,7.59.04.08c.59,1.31.6,2.76.03,4.07-.59,1.36-1.75,2.47-3.35,3.22l-6.33,2.95c-1.9.88-4.21.52-5.77-.86-6.41-5.69-11.71-12.8-15.33-20.56-3.67-7.86-5.66-16.26-5.91-24.96-.06-2.12,1.13-4.08,3.05-4.97Z"/>
    </g>
  </g>
</svg>