<?xml version="1.0" encoding="UTF-8"?>
<svg xmlns="http://www.w3.org/2000/svg" version="1.1" viewBox="0 0 84 84">
  <!-- Generator: Adobe Illustrator 29.0.0, SVG Export Plug-In . SVG Version: 2.1.0 Build 186)  -->
  <defs>
    <style>
      .st0 {
        fill: #f900d3;
      }
    </style>
  </defs>
  <g id="Layer_4">
    <path class="st0" d="M80,80H4V4h76v76ZM6,78h72V6H6v72Z"/>
  </g>
  <g id="Layer_2">
    <g>
      <path class="st0" d="M11.8,49.7v-2.7h2.3v-10.1h-2.3v-2.7h8.4v2.7h-2.3v10.1h2.3v2.7h-8.4Z"/>
      <path class="st0" d="M30.5,50c-1.2,0-2.3-.2-3.2-.5s-1.8-.8-2.5-1.5c-.7-.7-1.2-1.5-1.6-2.5-.4-1-.6-2.1-.6-3.4s.2-2.5.6-3.5c.4-1,.9-1.9,1.6-2.5.7-.7,1.5-1.2,2.5-1.6s2-.5,3.2-.5,3,.3,4,.9,1.9,1.5,2.6,2.8l-3.3,1.5c-.2-.7-.6-1.2-1.1-1.6-.5-.4-1.2-.6-2.2-.6s-2,.3-2.7,1c-.7.6-1,1.6-1,2.8v2.5c0,1.2.3,2.2,1,2.8.7.6,1.6,1,2.7,1s1.7-.2,2.3-.7,1-1,1.3-1.6l3.1,1.6c-.7,1.2-1.5,2.1-2.6,2.7s-2.4,1-4.1,1Z"/>
      <path class="st0" d="M46.6,50c-1.2,0-2.2-.2-3.2-.5-1-.3-1.8-.8-2.5-1.5-.7-.7-1.2-1.5-1.6-2.5-.4-1-.6-2.2-.6-3.5s.2-2.5.6-3.5c.4-1,.9-1.8,1.6-2.5.7-.7,1.5-1.2,2.5-1.5,1-.3,2-.5,3.2-.5s2.2.2,3.2.5c1,.3,1.8.8,2.5,1.5.7.7,1.2,1.5,1.6,2.5.4,1,.6,2.2.6,3.5s-.2,2.5-.6,3.5c-.4,1-.9,1.8-1.6,2.5-.7.7-1.5,1.2-2.5,1.5-1,.3-2,.5-3.2.5ZM46.6,47c1.2,0,2.1-.3,2.7-1,.6-.7,1-1.6,1-2.9v-2.3c0-1.2-.3-2.2-1-2.9-.6-.7-1.6-1-2.7-1s-2.1.3-2.7,1c-.6.7-1,1.6-1,2.9v2.3c0,1.2.3,2.2,1,2.9.6.7,1.6,1,2.7,1Z"/>
      <path class="st0" d="M63,42.4l-1.7-3.1h0v10.4h-3.6v-15.5h4.2l4.8,7.3,1.7,3.1h0v-10.4h3.6v15.5h-4.2l-4.8-7.3Z"/>
    </g>
  </g>
</svg>