<?xml version="1.0" encoding="UTF-8"?>
<svg id="Layer_2" data-name="Layer 2" xmlns="http://www.w3.org/2000/svg" viewBox="0 0 75.99 76">
  <defs>
    <style>
      .cls-1 {
        fill: #f900d3;
      }
    </style>
  </defs>
  <g id="Layer_1-2" data-name="Layer 1">
    <g>
      <path class="cls-1" d="M0,0v76h75.99V0H0ZM73.99,74H2V2h71.99v72Z"/>
      <path class="cls-1" d="M51.55,46.49c-.01-.52-.31-.99-.79-1.21l-11.79-5.57c-.38-.18-.82-.18-1.18,0l-11.52,5.57c-.48.22-.77.69-.77,1.21-.01.52.27.99.73,1.24l4.47,2.34-4.44,2.14c-.48.22-.77.69-.77,1.21-.01.52.27.99.73,1.24l4.62,2.42-4.58,2.21c-.48.23-.77.69-.77,1.21-.01.52.27.99.73,1.24l11.67,6.11c.2.1.42.15.64.15h0c.21,0,.43-.04.62-.15l11.66-6.11c.46-.23.73-.71.73-1.24-.01-.52-.31-.99-.79-1.21l-4.62-2.18,4.67-2.45c.46-.23.73-.71.73-1.24-.01-.52-.31-.99-.79-1.21l-4.46-2.11,4.53-2.37c.46-.23.73-.71.73-1.24ZM48.06,60.56l-9.55,5.01-9.58-5.01,4.46-2.15,4.5,2.36c.2.1.42.15.64.15h0c.21,0,.43-.04.62-.15l4.42-2.32,4.49,2.11ZM48.06,53.49l-9.55,5.01-9.58-5.01,4.31-2.08,4.64,2.43c.2.11.42.16.64.16s.43-.05.64-.16l4.56-2.39,4.33,2.04ZM38.53,51.57l-9.58-5.01,9.44-4.56,9.69,4.56-9.55,5.01Z"/>
      <path class="cls-1" d="M38.53,60.93h0s0,0-.01,0h.01Z"/>
      <path class="cls-1" d="M38.53,68.01h0s0,0-.01,0h.01Z"/>
      <path class="cls-1" d="M20.84,26.47c1.18,0,2.25-.46,3.06-1.19l3.98,3.58v11.59l2.31-.97v-11.65l-5.02-4.51c.15-.45.25-.92.25-1.42,0-2.53-2.05-4.58-4.58-4.58s-4.58,2.05-4.58,4.58,2.05,4.58,4.58,4.58ZM20.84,19.63c1.25,0,2.27,1.02,2.27,2.27s-1.02,2.27-2.27,2.27-2.27-1.02-2.27-2.27,1.02-2.27,2.27-2.27Z"/>
      <path class="cls-1" d="M48.14,28.86l3.98-3.58c.81.73,1.88,1.19,3.06,1.19,2.53,0,4.58-2.05,4.58-4.58s-2.05-4.58-4.58-4.58-4.58,2.05-4.58,4.58c0,.5.1.97.25,1.42l-5.02,4.51v11.62l2.31,1v-11.59ZM55.18,19.63c1.25,0,2.27,1.02,2.27,2.27s-1.02,2.27-2.27,2.27-2.27-1.02-2.27-2.27,1.02-2.27,2.27-2.27Z"/>
      <path class="cls-1" d="M37.85,16.52h-.48v19.25h2.31v-19.25h-.48c2.21-.33,3.9-2.21,3.9-4.51,0-2.53-2.05-4.58-4.58-4.58s-4.58,2.05-4.58,4.58c0,2.3,1.7,4.18,3.9,4.51ZM38.53,9.74c1.25,0,2.27,1.02,2.27,2.27s-1.02,2.27-2.27,2.27-2.27-1.02-2.27-2.27,1.02-2.27,2.27-2.27Z"/>
    </g>
  </g>
</svg>