<?xml version="1.0" encoding="UTF-8"?>
<svg id="Layer_1" xmlns="http://www.w3.org/2000/svg" version="1.1" viewBox="0 0 84 84">
  <!-- Generator: Adobe Illustrator 29.5.1, SVG Export Plug-In . SVG Version: 2.1.0 Build 141)  -->
  <defs>
    <style>
      .st0, .st1 {
        fill: #f900d3;
      }

      .st0, .st2 {
        display: none;
      }

      .st3 {
        opacity: .2;
      }

      .st4 {
        fill: red;
      }
    </style>
  </defs>
  <path class="st0" d="M-279.3,12v4l.2.2h9.8l.2-.2v-3.9h1.3v3.9c.4.3.9.3,1.4.7,1.1.8,1.5,2.5.8,3.7,0,.2,1,.6,1.3.8,1,1,1,2.6.3,3.8,2.4,1.6,1.5,5.3-1.5,5.3.4,1.3.3,2.8-.9,3.7s-1.4.5-1.4.9v6.4c1.4,1.3,2.5,2.5,3.1,4.3s.4,1.6.4,2.1v3.3l.2.2h3.7v1.3h-3.7l-.2.2v10h3.7c.4.4.1,1,.2,1.4h-3.3s-.2-.2-.5,0c-.6,2-2.4,3-4.4,2.1-.5,2-2.7,2.7-4.4,1.6-1.8,2.4-5.2,1.5-5.4-1.5-1.9.7-3.8,0-4.1-2.2-.2-.3-5.9,0-6.7,0-.4,0-1.2,1.3-1.7,1.6-.9.7-3.2,1.8-4.3,1.8h-3.8v4.7h-1.4v-4.7h-10l-.2.2v4.5h-1.3v-4.7c-1.1-.2-1.9-.7-2.3-1.8s-.1-1.5,0-2.6c-1.9-.5-2.6-2.7-1.6-4.4-2.3-1.8-1.4-5.3,1.6-5.4-.6-1.2-.3-2.9.9-3.7s1.3-.4,1.3-.7v-6.5c-1.3-1.1-2.4-2.3-3-4s-.4-1.3-.4-1.5v-4.1l-.2-.2h-4v-1.3h3.9l.2-.2v-9.8l-.2-.2h-3.8v-1.3h3.9c.3-.5.4-1,.8-1.5.9-1.1,2.3-1.1,3.5-.7.7-1.2,1.5-2.1,3-2s1,.4,1.5.5c1.7-2.4,5.3-1.4,5.3,1.6,2-.8,3.7.2,4.3,2.2h6.6c.9-.8,1.5-1.7,2.6-2.3s2.4-1.1,3-1.1h4l.2-.2v-4h1.4v-.3ZM-310.7,41.5v7.4h10.1v-7.3s-.1,0-.1-.2c3.3-1.7,5.9-5.2,6.4-8.9h-3.8c-.4,0-.4-.5-.4-.8-.3-3.7.3-7.8,0-11.5s-1.9-2.5-2.8-.8c-.3,2,.2,4.4,0,6.3s-1.2.7-1.3.1c-.2-2.7.2-5.7,0-8.3s-2-2.4-2.8-.7l-.2,9.2c-.2.3-1.2.3-1.2-.2-.2-2.4.2-5.1,0-7.5s-2.1-2.4-2.9-.6v8.3c-.3.3-1.3.3-1.4-.2-.1-1.8.2-3.9,0-5.7s-2.7-2.3-2.9-.2c.4,5.2-.5,11,0,16.2s1.6,4,3.4,5.3h-.1ZM-289.7,20.9h-7.2l-.2.2v10h6.9c.9,0,1.4,1.2,1.9,1.9,1.8,2.3,4.7,4,7.6,4.4v-3.6c0-.2.3-.7.5-.7h11.8c2,0,2.3-2.7.2-2.9s-4,.2-5.9,0c-.7-.1-.9-1.2.1-1.3,2.5-.3,5.5.2,8.1,0s2.2-2.7.2-2.9-5.7.2-8.5,0c-.7-.1-.9-1.2.1-1.3,2.3-.2,4.9.2,7.3,0s2.2-2.7.4-2.9-5.3.2-7.7,0c-.5,0-.7-.8-.4-1.2s5.2,0,6.1-.1c2.3-.2,2.3-2.7.1-2.9-5.1.4-11-.5-16,0s-2.9.8-3.9,1.7-1,1.2-1.6,1.7h.1ZM-280.8,38.8c-4-.6-7.4-3-9.6-6.2h-2.3c-.1,0-.6,2.1-.7,2.4-1,2.9-3.1,5.4-5.6,7.2v2.5c3.9.4,7.4,2.9,9.6,6.2h2.3c.2,0,.4-1.3.5-1.6,1-3.4,3-6,5.9-8v-2.4h0ZM-269.2,34.4h-10l-.2.2v7.1c0,.3-1.8,1.5-2.2,1.8-2.2,1.9-3.7,4.6-4.1,7.4h3.9s.3.3.3.4v12.3c.4,1.4,2.2,1.6,2.8.3.3-1.9-.2-4.3,0-6.2s1.3-1.1,1.4,0c.3,2.7-.2,5.9,0,8.7.7,1.4,2.6,1.3,2.8-.5.2-2.6-.3-5.8,0-8.3s1.3-1.1,1.4,0c.3,2.5-.2,5.3,0,7.8.6,1.4,2.6,1.2,2.8-.3.3-2.3-.3-5.3,0-7.6s1.3-1.1,1.4,0c.3,1.9-.2,4.3,0,6.2.7,1.3,2.4,1.1,2.7-.3v-16.6c-.2-1.3-.7-2.5-1.5-3.5s-1.4-1.1-1.9-1.9v-7.3h.4ZM-282.7,52.3h-7.3c-.3,0-1.4-1.8-1.7-2.1-1.9-2.2-4.5-3.6-7.4-4.2v3.8c0,.2-.5.6-.8.5-3.8.3-8.1-.4-11.8,0s-1.9,2.6-.1,2.8,3.9-.2,5.7,0,.7,0,.8.3c.2.4.2.8-.2,1l-9.1.2c-1.7.7-1.3,2.7.6,2.8s5.2-.3,7.7,0,1.7.7.6,1.4c-2.4.2-5.2-.2-7.6,0s-2,1.6-1,2.5.9.4,1,.4h7.8c.3,0,.6,1.1-.3,1.3-1.6.3-4.3-.2-6,0s-1.5,1.1-1.2,2,1.2.8,1.9.9c4.1.3,9.9.2,14,0s3.9-.3,5.6-1.8,1.3-1.7,1.7-1.7h7.2v-10.1h-.1Z"/>
  <g>
    <path class="st1" d="M80,80H4V4h76v76ZM6,78h72V6H6v72Z"/>
    <path class="st1" d="M72,73H12l-1-1V12l1-1h60l1,1v60l-1,1ZM13,71h58V13H13v58Z"/>
    <path class="st1" d="M26.2,61.7l-1.5-.9V23.2l1.5-.9,32.6,18.8v1.7l-32.6,18.8ZM26.7,24.9v34.1l29.6-17.1-29.6-17.1Z"/>
  </g>
  <g id="Grid" class="st2">
    <g>
      <g class="st3">
        <rect class="st4" x="72" y="-.2" width="6" height="84.1"/>
      </g>
      <g class="st3">
        <rect class="st4" y="72" width="84.1" height="6"/>
      </g>
      <g class="st3">
        <rect class="st4" x="-.1" y="6" width="84.1" height="6"/>
      </g>
      <g class="st3">
        <rect class="st4" x="6" width="6" height="84.1"/>
      </g>
    </g>
  </g>
</svg>