<?xml version="1.0" encoding="UTF-8"?>
<svg id="Layer_2" data-name="Layer 2" xmlns="http://www.w3.org/2000/svg" viewBox="0 0 75.99 76">
  <defs>
    <style>
      .cls-1 {
        fill: #f900d3;
      }
    </style>
  </defs>
  <g id="Layer_1-2" data-name="Layer 1">
    <g>
      <path class="cls-1" d="M0,0v76h75.99V0H0ZM73.99,74H2V2h71.99v72Z"/>
      <path class="cls-1" d="M9.57,27.13c.12.28.58.48.86.47.03,0,.06,0,.09,0v.02s2.77-.2,2.77-.2c.24-.02.48-.03.72-.03.19,0,.35-.02.43-.05l1.17-.08-.13-2.11-2.75.2h-.09s-.04,0-.05,0c.06-.13.1-.23.15-.33,1.14-2.45,2.49-4.49,4.12-6.24,7.08-7.56,15.65-10.32,25.47-8.21,7.34,1.58,13.03,5.69,16.92,12.22l1.81,3.36,1.88-.98-.36-.66c-.03-.08-.07-.16-.11-.24l-.04-.09c-.43-.93-.95-1.87-1.63-2.96l-.21-.36h-.02c-6.24-9.75-17.57-14.71-28.93-12.65-9.41,1.71-16.41,7.02-20.8,15.78-.06.11-.11.22-.18.34l-1.1-2.55-1.94.82.53,1.28c.47,1.13.91,2.19,1.39,3.26Z"/>
      <path class="cls-1" d="M31.68,59.69l-.62-1.01-1.8,1.12,1.3,2.14c-2.13-.2-7.37-2.54-10.26-4.92-7.58-6.24-10.9-14.51-9.88-24.56l.02-.24-1.97-.26-.04.24c-.85,5-.08,10.79,2.06,15.51,3.86,8.5,10.52,14.03,19.8,16.43l-1.59,2,1.64,1.32.78-.95c.83-1.01,1.64-1.99,2.43-2.99.13-.16.18-.48.07-.67-.63-1.05-1.28-2.09-1.94-3.16Z"/>
      <path class="cls-1" d="M60.63,32.64l-1.02.94,1.41,1.57,1.85-1.66c.36,3.48.08,6.77-.83,9.78-2.69,8.93-8.42,14.97-17.01,17.97l-3.86,1.21.6,2.03,2-.63c5.27-1.32,10-4.13,13.69-8.13,5.7-6.18,8.23-13.73,7.54-22.45l2.35,1.24,1-1.85-3.65-2c-1.13-.62-1.25-.6-2.19.26-.62.57-1.24,1.14-1.87,1.72Z"/>
      <polygon class="cls-1" points="49.65 52.61 51.65 52.61 51.65 28.73 38.91 28.73 38.91 16.04 21.54 24.91 21.54 53.01 23.54 53.01 23.54 26.14 36.91 19.31 36.91 28.73 36.91 52.61 36.91 53.01 38.91 53.01 38.91 52.61 38.91 30.73 49.65 30.73 49.65 52.61"/>
      <rect class="cls-1" x="25.35" y="28.29" width="3.05" height="3.05"/>
      <rect class="cls-1" x="31.63" y="28.29" width="3.05" height="3.05"/>
      <rect class="cls-1" x="25.35" y="34.27" width="3.05" height="3.05"/>
      <rect class="cls-1" x="31.63" y="34.27" width="3.05" height="3.05"/>
      <rect class="cls-1" x="25.35" y="40.26" width="3.05" height="3.05"/>
      <rect class="cls-1" x="31.63" y="40.26" width="3.05" height="3.05"/>
      <rect class="cls-1" x="25.35" y="46.24" width="3.05" height="3.05"/>
      <rect class="cls-1" x="31.63" y="46.24" width="3.05" height="3.05"/>
      <rect class="cls-1" x="40.4" y="32.55" width="7.16" height="2"/>
      <rect class="cls-1" x="40.4" y="36.33" width="7.16" height="2"/>
      <rect class="cls-1" x="40.4" y="40.17" width="7.16" height="2"/>
    </g>
  </g>
</svg>