<?xml version="1.0" encoding="UTF-8"?>
<svg id="Layer_2" data-name="Layer 2" xmlns="http://www.w3.org/2000/svg" viewBox="0 0 76 76">
  <defs>
    <style>
      .cls-1 {
        fill: #f900d3;
      }
    </style>
  </defs>
  <g id="Layer_3" data-name="Layer 3">
    <g>
      <path class="cls-1" d="M9.91,51.9l7.84,8.34c-1.08.16-1.91,1.08-1.91,2.2v5.58h19.11v-5.58c0-1.23-1-2.23-2.23-2.23h-.07c.03-3.71-.34-8.14-2.05-10.16-2.29-2.72-6.5-3.96-7.66-4.26l-3.12-3.14c-.65-.66-1.51-1-2.45-1-.45,0-.89.1-1.29.27l-.81-3.27v-5.97c0-2.78-1.99-5.18-4.72-5.7l-2.71-.51.31,21.35c.05,1.55.68,3,1.75,4.08ZM32.95,62.44v3.58h-15.11v-3.58c0-.13.1-.23.23-.23h13.53l1,.03v-.03h.11c.13,0,.23.1.23.23ZM10.19,28.94c1.79.34,3.09,1.91,3.09,3.73v6.09l1.15,4.72c-.24.47-.38.99-.38,1.53,0,.84.31,1.65.88,2.27l5.99,6.58,1.48-1.35-5.99-6.58c-.23-.26-.36-.58-.36-.93s.13-.69.38-.95c.26-.27.61-.43.98-.43.38.01.73.14,1,.41l3.53,3.55.28.06s4.68,1.08,6.86,3.67c1.03,1.22,1.6,4.51,1.57,8.87h-10.18l-9.12-9.7c-.73-.74-1.16-1.71-1.19-2.73l-.28-18.89.3.06Z"/>
      <path class="cls-1" d="M45.42,50.05c-1.71,2.02-2.08,6.45-2.05,10.16h-.07c-1.23,0-2.23,1-2.23,2.23v5.58h19.11v-5.58c0-1.19-.94-2.15-2.11-2.22l8.02-8.3c1.09-1.1,1.72-2.55,1.77-4.12l.31-21.34-2.71.51c-2.73.52-4.72,2.92-4.72,5.7v5.99l-.71,3.3c-.43-.2-.9-.32-1.38-.32-.91,0-1.8.34-2.45,1l-3.12,3.15c-1.16.3-5.37,1.54-7.66,4.26ZM58.18,62.44v3.58h-15.11v-3.58c0-.13.1-.23.23-.23h.11v.03s1-.03,1-.03h13.53c.13,0,.23.1.23.23ZM54.09,47.6l3.53-3.55c.26-.27.63-.39,1-.41.38,0,.73.16.98.43.24.26.38.59.38.95s-.13.67-.36.93l-5.99,6.58,1.48,1.35,5.99-6.58c.57-.62.88-1.43.88-2.27,0-.46-.1-.91-.28-1.32l1.02-4.72.02-6.3c0-1.82,1.3-3.4,3.09-3.73l.3-.06-.28,18.87c-.03,1.04-.46,2.02-1.2,2.76l-9.36,9.69h-9.92c-.03-4.36.54-7.65,1.57-8.87,2.18-2.59,6.82-3.66,6.86-3.67l.29-.06Z"/>
      <path class="cls-1" d="M38.09,40.77c9.03,0,16.38-7.35,16.38-16.38s-7.35-16.38-16.38-16.38-16.38,7.35-16.38,16.38,7.35,16.38,16.38,16.38ZM38.09,10.01c7.93,0,14.38,6.45,14.38,14.38s-6.45,14.38-14.38,14.38-14.38-6.45-14.38-14.38,6.45-14.38,14.38-14.38Z"/>
      <path class="cls-1" d="M37.22,31.99v3.28h2v-3.28c2.41-.35,3.56-1.87,3.83-3.28.6-3.15-2.21-4.7-4.37-5.59-2.42-1-2.75-1.84-2.77-2.52-.01-.66.53-1.76,2.02-1.95.13-.02.27-.02.41-.02h.21c1.15.03,2.29.46,2.65.74l.79.62,1.24-1.57-.79-.62c-.65-.51-1.91-.98-3.22-1.13v-3.16h-2v3.26c-2.18.48-3.33,2.28-3.31,3.86.04,2.4,2.16,3.58,4,4.34,3.1,1.28,3.36,2.38,3.17,3.37-.09.49-.53,1.63-2.63,1.73-1.39.07-2.95-.59-3.78-1.28l-.77-.63-1.27,1.55.77.63c.88.72,2.29,1.41,3.81,1.64Z"/>
      <path class="cls-1" d="M0,0v76h76V0H0ZM74,74H2V2h72v72Z"/>
    </g>
  </g>
</svg>