<?xml version="1.0" encoding="UTF-8"?>
<svg id="Layer_2" data-name="Layer 2" xmlns="http://www.w3.org/2000/svg" viewBox="0 0 76 76">
  <defs>
    <style>
      .cls-1 {
        fill: #f900d3;
      }
    </style>
  </defs>
  <g id="Layer_1-2" data-name="Layer 1">
    <g>
      <path class="cls-1" d="M40.88,25.25c.95,0,1.85-.29,2.61-.84.04.05.07.11.07.16v8.56h8.85l-.61-1.4c-.23-.52-.34-1.09-.34-1.7,0-2.51,2.02-4.55,4.51-4.55s4.51,2.04,4.51,4.55c0,.6-.11,1.17-.34,1.7l-.61,1.4h8.88V13.04c0-2.66-2.15-4.82-4.79-4.82h-20.06v8.58c0,.08-.03.16-.08.21-.75-.54-1.66-.83-2.6-.83-2.49,0-4.51,2.03-4.51,4.53s2.02,4.53,4.51,4.53ZM40.88,18.19c.64,0,1.25.24,1.71.69l.32.31.44-.03c1.2-.07,2.15-1.03,2.22-2.29v-6.64h18.06c1.54,0,2.79,1.26,2.79,2.82v18.1h-4.02c.06-.36.09-.72.09-1.09,0-3.61-2.92-6.55-6.51-6.55s-6.51,2.94-6.51,6.55c0,.37.03.74.09,1.09h-3.99v-6.62c-.07-1.2-1.02-2.16-2.22-2.24l-.44-.03-.32.31c-.46.44-1.06.69-1.71.69-1.38,0-2.51-1.14-2.51-2.53s1.13-2.53,2.51-2.53Z"/>
      <path class="cls-1" d="M59.62,43.13c.54-.75.83-1.66.83-2.6,0-2.49-2.03-4.51-4.53-4.51s-4.53,2.02-4.53,4.51c0,.95.29,1.85.84,2.61-.05.04-.11.07-.16.07h-8.56v8.85l1.4-.61c.52-.23,1.09-.34,1.69-.34,2.51,0,4.55,2.02,4.55,4.51s-2.04,4.51-4.55,4.51c-.6,0-1.17-.11-1.7-.34l-1.4-.6v8.87h20.1c2.66,0,4.82-2.15,4.82-4.79v-20.06h-8.58c-.08,0-.16-.03-.21-.08ZM66.42,63.27c0,1.54-1.26,2.79-2.82,2.79h-18.1v-4.02c.36.06.72.09,1.09.09,3.61,0,6.55-2.92,6.55-6.51s-2.94-6.51-6.55-6.51c-.37,0-.74.03-1.09.09v-3.99h6.62c1.2-.07,2.16-1.02,2.24-2.22l.03-.44-.31-.32c-.44-.46-.69-1.06-.69-1.71,0-1.38,1.14-2.51,2.53-2.51s2.53,1.13,2.53,2.51c0,.64-.24,1.25-.69,1.71l-.31.32.03.44c.07,1.2,1.03,2.15,2.29,2.22h6.64v18.06Z"/>
      <path class="cls-1" d="M13.37,68.06h21.5l.04-9.04c0-.18.09-.33.22-.43.82.62,1.82.96,2.87.96,2.64,0,4.79-2.14,4.79-4.77s-2.15-4.77-4.79-4.77c-1.05,0-2.06.34-2.88.96-.15-.1-.26-.26-.26-.43v-9.01h-9.38l.58,1.39c.23.54.34,1.12.34,1.74,0,2.71-2.22,4.91-4.95,4.91s-4.95-2.2-4.95-4.91c0-.62.11-1.21.34-1.74l.58-1.39h-9.15v21.46c0,2.8,2.29,5.07,5.1,5.07ZM10.27,43.53h4.33c-.06.37-.09.74-.09,1.13,0,3.81,3.12,6.91,6.95,6.91s6.95-3.1,6.95-6.91c0-.38-.03-.76-.09-1.13h4.55v7.01c0,1.35,1.12,2.48,2.49,2.52h.42s.3-.28.3-.28c.51-.5,1.19-.77,1.92-.77,1.54,0,2.79,1.24,2.79,2.77s-1.25,2.77-2.79,2.77c-.72,0-1.41-.27-1.92-.77l-.3-.29h-.42c-1.38.04-2.46,1.15-2.46,2.52l-.03,7.05H13.37c-1.71,0-3.1-1.38-3.1-3.07v-19.46Z"/>
      <path class="cls-1" d="M17.63,35.04c-.63.82-.97,1.82-.97,2.87,0,2.63,2.15,4.77,4.79,4.77s4.79-2.14,4.79-4.77c0-1.05-.34-2.05-.97-2.87.1-.17.27-.29.44-.29h9.15v-9.25l-1.4.6c-.57.25-1.19.37-1.85.37-2.73,0-4.95-2.21-4.95-4.92s2.22-4.91,4.95-4.91c.66,0,1.28.12,1.85.37l1.4.6v-9.4H13.37c-2.81,0-5.1,2.28-5.1,5.07v21.46h8.92c.17,0,.34.12.44.29ZM10.27,13.29c0-1.69,1.39-3.07,3.1-3.07h19.5v4.54c-.4-.07-.82-.11-1.25-.11-3.83,0-6.95,3.1-6.95,6.91s3.12,6.92,6.95,6.92c.43,0,.84-.04,1.25-.11v4.39h-7.15c-1.36,0-2.49,1.14-2.53,2.53v.42s.28.3.28.3c.5.51.77,1.18.77,1.9,0,1.53-1.25,2.77-2.79,2.77s-2.79-1.24-2.79-2.77c0-.72.27-1.39.77-1.9l.3-.3v-.42c-.05-1.4-1.18-2.53-2.54-2.53h-6.92V13.29Z"/>
      <path class="cls-1" d="M0,0v76h76V0H0ZM74,74H2V2h72v72Z"/>
    </g>
  </g>
</svg>