<?xml version="1.0" encoding="UTF-8"?>
<svg id="Layer_2" data-name="Layer 2" xmlns="http://www.w3.org/2000/svg" viewBox="0 0 75.99 76">
  <defs>
    <style>
      .cls-1 {
        fill: #f900d3;
      }
    </style>
  </defs>
  <g id="Layer_1-2" data-name="Layer 1">
    <g>
      <path class="cls-1" d="M0,0v76h75.99V0H0ZM73.99,74H2V2h71.99v72Z"/>
      <path class="cls-1" d="M13.5,45.28c1.49.02,3.25.04,5.04,0,.34-.02.56.05.7.19.18.18.2.46.2.72-.01.64,0,1.28,0,1.91.01.98.02,1.98-.03,2.98-.08,1.45.46,2.86,1.49,3.88,1.02,1.01,2.38,1.52,3.82,1.43.69-.03,1.38-.02,2.1-.01.37,0,.75.01,1.14.01h.1v11.02h2.24s.01-.04.02-.06c.01-.05.02-.08.02-.12,0-1.33,0-2.65,0-3.98,0-2.6,0-5.29,0-7.93,0-.85-.39-1.21-1.31-1.21h-4.49c-1.77-.01-2.83-1.08-2.83-2.86v-6.55c0-1.42-.24-1.67-1.63-1.67h-5.4l-.29.29.15-.41c.04-.11.06-.18.08-.25.03-.09.05-.15.08-.21.58-1.06,1.17-2.12,1.76-3.18,1.29-2.34,2.63-4.76,3.93-7.16.13-.25.29-.5.43-.74.45-.74.88-1.44.9-2.35.14-7.98,5.33-14.96,12.92-17.36,5.14-1.62,10.14-1.1,14.84,1.55,3.93,2.22,6.72,5.5,8.28,9.74,1.39,3.79,1.5,7.95.35,13.1-.63,2.86-1.8,5.55-2.93,8.16-.35.8-.71,1.63-1.04,2.46-1.41,3.41-2.7,7.13-2.66,11.21.02,1.98.01,4,0,5.94,0,.99,0,1.98,0,2.97v.66h2.28v-.79c0-.73,0-1.46.02-2.19.02-1.54.04-3.12-.03-4.67-.19-3.97.64-7.89,2.69-12.72,1.59-3.76,2.74-6.85,3.61-9.72,1.33-4.38,1.54-8.52.65-12.33-1.97-8.34-7.1-13.67-15.24-15.83-6.9-1.85-13.24-.34-18.87,4.48-4.31,3.69-6.71,8.55-7.12,14.42-.04.52-.11,1.05-.34,1.48-1.75,3.26-4.07,7.56-6.45,11.81-.47.83-.66,1.57-.62,2.4.06,1.19.35,1.48,1.45,1.48Z"/>
      <path class="cls-1" d="M41.21,17.76c-3.17-.22-6.18.82-8.49,2.93-2.28,2.09-3.59,5.04-3.59,8.1,0,2.49.83,4.85,2.41,6.83,1.26,1.58,2.49,3.34,3.56,5.1v3.74h10.5v-3.64c1.11-1.81,2.45-3.75,3.6-5.19h0c1.69-2.09,2.52-4.62,2.41-7.3-.23-5.53-4.8-10.16-10.41-10.56ZM36.72,32.55h0s-.02.02-.02.02c-.46,0-.84-.38-.84-.84s.38-.84.84-.84.84.38.84.84c0,.43-.33.78-.75.82h-.06ZM44.1,32.55c-.43-.03-.78-.38-.78-.82s.38-.84.84-.84.83.38.83.84-.38.84-.83.84c0,0,0,0-.01,0h0s-.04,0-.04,0ZM39.56,42.45v-7.9h1.76v7.9h-1.76ZM47.65,34.36h0c-1.21,1.52-2.63,3.56-3.79,5.46l-.26.43v2.2h-.29v-7.9h.73s.07.01.11.01c1.56,0,2.83-1.27,2.83-2.84s-1.27-2.84-2.83-2.84-2.84,1.27-2.84,2.84v.82h-1.76v-.82h-.04c0-1.56-1.27-2.83-2.83-2.83s-2.84,1.27-2.84,2.84,1.27,2.84,2.84,2.84c.06,0,.11-.01.16-.02h.71v7.9h-.46v-2.3l-.26-.43c-1.11-1.84-2.4-3.7-3.73-5.36-1.29-1.62-1.97-3.54-1.97-5.58,0-2.5,1.07-4.91,2.94-6.62,1.9-1.74,4.38-2.6,7-2.41,4.6.32,8.36,4.12,8.55,8.64.09,2.19-.59,4.25-1.97,5.96Z"/>
      <rect class="cls-1" x="35.48" y="45.75" width="9.9" height="2"/>
      <rect class="cls-1" x="36.72" y="49.03" width="7.42" height="2"/>
      <rect class="cls-1" x="37.95" y="52.26" width="4.95" height="2"/>
    </g>
  </g>
</svg>