<?xml version="1.0" encoding="UTF-8"?>
<svg id="Layer_2" data-name="Layer 2" xmlns="http://www.w3.org/2000/svg" viewBox="0 0 75.99 76">
  <defs>
    <style>
      .cls-1 {
        fill: #f900d3;
      }
    </style>
  </defs>
  <g id="Layer_1-2" data-name="Layer 1">
    <g>
      <path class="cls-1" d="M0,0v76h75.99V0H0ZM73.99,74H2V2h71.99v72Z"/>
      <path class="cls-1" d="M25.39,38.76c0,11.74,9.55,21.28,21.28,21.28s21.28-9.55,21.28-21.28c0-11.13-8.6-20.28-19.5-21.19v-1.84h3.09v-2.01h-8.19v2.01h3.09v1.76c-11.63.12-21.06,9.61-21.06,21.27ZM65.94,38.76c0,10.62-8.65,19.27-19.27,19.27s-19.27-8.65-19.27-19.27,8.65-19.27,19.27-19.27,19.27,8.65,19.27,19.27Z"/>
      <rect class="cls-1" x="46.44" y="20.82" width="2.01" height="3.8"/>
      <rect class="cls-1" x="46.44" y="52.89" width="2.01" height="3.8"/>
      <rect class="cls-1" x="28.73" y="37.75" width="3.8" height="2.01"/>
      <rect class="cls-1" x="60.8" y="37.75" width="3.8" height="2.01"/>
      <path class="cls-1" d="M45.66,36.67c-1.38.38-2.2,1.81-1.82,3.19.02.06.04.11.06.17l-.99.99,1.42,1.42.92-.92c.35.16.71.26,1.09.26.22,0,.46-.04.69-.09.67-.18,1.23-.62,1.57-1.22s.43-1.3.25-1.98c-.03-.1-.07-.18-.11-.27l7.37-7.52-1.44-1.41-7.34,7.5c-.52-.21-1.1-.27-1.68-.12ZM46.86,39.48c-.07.13-.2.22-.35.27-.15.04-.31.02-.45-.06-.13-.07-.22-.2-.27-.35-.08-.31.09-.64.41-.72.05-.02.11-.02.15-.02.26,0,.5.18.57.44.04.15.02.31-.06.45Z"/>
      <polygon class="cls-1" points="25.54 30.42 8.14 30.42 8.14 32.43 24.49 32.43 25.54 30.42"/>
      <polygon class="cls-1" points="9.89 43.63 21.69 43.63 22.68 41.62 9.89 41.62 9.89 43.63"/>
      <polygon class="cls-1" points="12.06 35.87 12.06 37.88 21.31 38 21.92 35.87 12.06 35.87"/>
      <polygon class="cls-1" points="9.34 49.31 23.98 49.31 25.33 47.3 9.34 47.3 9.34 49.31"/>
    </g>
  </g>
</svg>