<?xml version="1.0" encoding="UTF-8"?>
<svg id="Layer_2" data-name="Layer 2" xmlns="http://www.w3.org/2000/svg" viewBox="0 0 75.99 76">
  <defs>
    <style>
      .cls-1 {
        fill: #f900d3;
      }
    </style>
  </defs>
  <g id="Layer_1-2" data-name="Layer 1">
    <g>
      <path class="cls-1" d="M0,0v76h75.99V0H0ZM73.99,74H2V2h71.99v72Z"/>
      <path class="cls-1" d="M12.62,44.87h35-.01c.43-.01.83-.23,1.06-.6.21-.37.24-.83.04-1.22L31.21,8.56c-.2-.43-.63-.69-1.1-.69s-.89.27-1.1.69L11.52,43.07c-.2.39-.19.85.04,1.22.23.37.63.59,1.06.59ZM30.12,11.44l15.79,31.14H14.34l15.79-31.14Z"/>
      <polygon class="cls-1" points="30.8 33.94 32.03 26.35 32.03 21.16 27.86 21.16 27.86 26.35 29.12 33.94 30.8 33.94"/>
      <path class="cls-1" d="M31.76,36.02c-.37-.39-.97-.59-1.83-.59s-1.48.2-1.83.59c-.36.4-.54.87-.54,1.45v.64c0,.57.17,1.06.54,1.45.37.39.97.59,1.83.59s1.46-.2,1.83-.59c.36-.4.54-.87.54-1.45v-.64c0-.57-.19-1.06-.54-1.45Z"/>
      <path class="cls-1" d="M43.25,23.27h10.2v27.07h7.86l-12.96,13.95-12.96-13.95h7.86v-4.61h-2.15v2.46h-8.04c-.47,0-.89.27-1.07.69-.19.4-.1.87.2,1.19l15.28,16.45c.21.24.53.37.86.37h.03c.33,0,.64-.14.86-.37l15.28-16.45c.3-.32.37-.79.2-1.19-.19-.42-.6-.69-1.07-.69h-8.04v-27.07h-14.5v3.83l2.15,4.11v-5.79Z"/>
    </g>
  </g>
</svg>