<?xml version="1.0" encoding="UTF-8"?>
<svg id="Layer_2" data-name="Layer 2" xmlns="http://www.w3.org/2000/svg" viewBox="0 0 75.99 76">
  <defs>
    <style>
      .cls-1 {
        fill: #f900d3;
      }
    </style>
  </defs>
  <g id="Layer_1-2" data-name="Layer 1">
    <g>
      <path class="cls-1" d="M0,0v76h75.99V0H0ZM73.99,74H2V2h71.99v72Z"/>
      <path class="cls-1" d="M24.04,67.7c.19.21.48.33.77.33h.02c.3,0,.58-.12.77-.33l12.44-13.39c.27-.29.34-.71.18-1.08-.16-.36-.53-.61-.96-.61h-6.45v-2.14l-1.94-.97v5.05h6.27l-10.34,11.11-10.34-11.11h6.27v-22.03h4.76l1.74-1.94h-8.44v22.03h-6.45c-.42,0-.8.23-.96.61-.16.36-.08.79.18,1.08l12.44,13.39Z"/>
      <path class="cls-1" d="M30.63,32.4c-1,.24-1.85.53-2.53.85-1.27.61-1.94,1.34-1.94,2.22v10.11c0,1.31,1.56,2.37,4.5,3.09,2.55.62,5.92.96,9.49.96h.01c3.56.01,6.94-.33,9.49-.94,2.94-.71,4.5-1.78,4.5-3.09v-10.11c-.01-.87-.67-1.61-1.94-2.22-.67-.31-1.51-.61-2.52-.85l.24-.24c2.61-2.61,4.06-6.09,4.06-9.78s-1.44-7.17-4.06-9.78c-2.61-2.61-6.09-4.06-9.78-4.06s-7.17,1.44-9.78,4.06-4.06,6.09-4.06,9.78,1.44,7.17,4.06,9.78c.08.07.17.16.24.23ZM40.16,10.27c3.23,0,6.28,1.27,8.57,3.56,2.3,2.29,3.56,5.34,3.56,8.57s-1.27,6.28-3.56,8.57c-2.29,2.29-5.35,3.55-8.57,3.55s-6.25-1.25-8.53-3.51l-.04-.04c-2.29-2.29-3.55-5.34-3.55-8.57s1.26-6.28,3.55-8.57c2.29-2.3,5.34-3.56,8.57-3.56ZM40.15,44.56c3.57,0,6.94-.34,9.49-.96,1.14-.28,2.08-.61,2.8-.99v2.95c0,.23-.67.81-3.2,1.43-2.41.58-5.64.91-9.09.91s-6.67-.33-9.09-.91c-2.53-.62-3.2-1.2-3.2-1.43v-2.95c.73.39,1.66.71,2.8.99,2.55.62,5.92.96,9.49.96ZM52.44,40.52c0,.23-.67.81-3.2,1.43-2.41.58-5.64.91-9.09.91s-6.67-.33-9.09-.91c-2.53-.62-3.2-1.2-3.2-1.43v-2.95c.73.39,1.66.71,2.8.99,2.55.62,5.92.96,9.49.96s6.94-.34,9.49-.96c1.14-.28,2.08-.61,2.8-.99v2.95ZM49.26,36.9c-2.41.58-5.64.91-9.09.91s-6.68-.31-9.09-.91c-2.53-.62-3.2-1.2-3.2-1.43,0,0,.04-.25.96-.69.81-.39,2.02-.73,3.49-1,2.31,1.59,5.02,2.43,7.84,2.43s5.53-.84,7.84-2.43c1.46.28,2.68.62,3.49,1,.92.44.96.46.96.69s-.67.81-3.2,1.43Z"/>
      <path class="cls-1" d="M37.63,27.55h1.91v1.68h1.32v-1.74c3.76-.88,3.23-6.29-.66-6.4-2.52-.08-2.52-3.74,0-3.82h2.57c.24,0,.45-.11.57-.32.12-.21.12-.46,0-.66-.12-.21-.34-.33-.57-.33h-1.91v-1.48h-1.32v1.54c-3.76.88-3.23,6.29.66,6.4.69,0,1.32.37,1.66.95.34.59.34,1.32,0,1.91-.34.59-.97.95-1.66.95h-3.31v1.32h.74Z"/>
    </g>
  </g>
</svg>