<?xml version="1.0" encoding="UTF-8"?>
<svg id="Layer_2" data-name="Layer 2" xmlns="http://www.w3.org/2000/svg" viewBox="0 0 75.99 76">
  <defs>
    <style>
      .cls-1 {
        fill: #f900d3;
      }
    </style>
  </defs>
  <g id="Layer_1-2" data-name="Layer 1">
    <g>
      <path class="cls-1" d="M0,0v76h75.99V0H0ZM73.99,74H2V2h71.99v72Z"/>
      <path class="cls-1" d="M38.24,58.78l12.22-11.76c2.03-1.95,3.2-4.69,3.2-7.51v-16.01l-15.72-5.95-15.84,5.95v15.73c0,2.89,1.21,5.67,3.32,7.64l12.82,11.92ZM24.1,24.87l13.83-5.19,13.72,5.19v14.63c0,2.28-.94,4.5-2.59,6.07l-10.85,10.45-11.43-10.63c-1.71-1.59-2.69-3.84-2.69-6.17v-14.35Z"/>
      <path class="cls-1" d="M44.39,31.26h-1.33c-.05-2.73-2.27-4.94-5.01-4.94h-.01c-2.74,0-4.97,2.21-5.01,4.94h-1.67v13.04h13.04v-13.04ZM38.03,28.32h.01c1.64,0,2.98,1.31,3.02,2.94h-6.05c.05-1.63,1.38-2.94,3.02-2.94ZM42.39,42.3h-9.04v-9.04h9.04v9.04Z"/>
      <path class="cls-1" d="M59.38,32.5l3.91-3.9c.32.11.66.18,1.02.18,1.83,0,3.33-1.49,3.33-3.33s-1.49-3.33-3.33-3.33-3.33,1.49-3.33,3.33c0,.74.25,1.41.66,1.97l-3.09,3.08h-4.37l1.04,2h4.15ZM64.32,24.13c.73,0,1.33.6,1.33,1.33s-.6,1.33-1.33,1.33-1.33-.6-1.33-1.33.6-1.33,1.33-1.33Z"/>
      <path class="cls-1" d="M10.84,42.94c1.48,0,2.73-.98,3.16-2.33h6.02l.95-2h-6.97c-.43-1.34-1.67-2.33-3.16-2.33-1.83,0-3.33,1.49-3.33,3.33s1.49,3.33,3.33,3.33ZM10.84,38.29c.73,0,1.33.6,1.33,1.33s-.6,1.33-1.33,1.33-1.33-.6-1.33-1.33.6-1.33,1.33-1.33Z"/>
      <path class="cls-1" d="M10.84,29.26c.36,0,.71-.07,1.03-.18l3.89,3.89h4.35l.85-2h-4.38l-3.07-3.07c.41-.55.65-1.23.65-1.96,0-1.83-1.49-3.33-3.33-3.33s-3.33,1.49-3.33,3.33,1.49,3.33,3.33,3.33ZM10.84,24.6c.73,0,1.33.6,1.33,1.33s-.6,1.33-1.33,1.33-1.33-.6-1.33-1.33.6-1.33,1.33-1.33Z"/>
      <path class="cls-1" d="M61.99,39.72v-.13c.39,1.41,1.67,2.46,3.2,2.46,1.83,0,3.33-1.49,3.33-3.33s-1.49-3.33-3.33-3.33c-1.53,0-2.81,1.05-3.2,2.46v-.13h-7.8l1.04,2h6.75ZM65.19,37.39c.73,0,1.33.6,1.33,1.33s-.6,1.33-1.33,1.33-1.33-.6-1.33-1.33.6-1.33,1.33-1.33Z"/>
    </g>
  </g>
</svg>