<?xml version="1.0" encoding="UTF-8"?>
<svg id="Layer_2" data-name="Layer 2" xmlns="http://www.w3.org/2000/svg" viewBox="0 0 76 76">
  <defs>
    <style>
      .cls-1 {
        fill: #f900d3;
      }
    </style>
  </defs>
  <g id="Layer_1-2" data-name="Layer 1">
    <g>
      <path class="cls-1" d="M0,0v76h76V0H0ZM74,74H2V2h72v72Z"/>
      <path class="cls-1" d="M38,26.31c4.41,0,9.5-.73,14.85-2.91l.62-.25v-5.11l-15.51-10.15-15.51,10.15v5.08l.58.27c.38.18,6.39,2.93,14.98,2.93ZM24.45,19.12l13.51-8.84,13.51,8.84v2.68c-12.9,4.99-24.37,1.07-27.03.01v-2.69Z"/>
      <path class="cls-1" d="M23.97,25.82l-1.42-.66v11.9l.58.27c.38.18,6.39,2.93,14.98,2.93,4.41,0,9.5-.73,14.85-2.91l.62-.25v-11.85l-1.38.56c-14.91,6.08-28.09.08-28.23.02ZM51.57,35.74c-12.9,4.99-24.37,1.07-27.03.01v-7.54c3.79,1.41,14.6,4.51,27.03-.03v7.55Z"/>
      <path class="cls-1" d="M23.97,39.77l-1.42-.66v11.9l.58.27c.38.18,6.39,2.93,14.98,2.93,4.41,0,9.5-.73,14.85-2.91l.62-.25v-11.85l-1.38.56c-14.91,6.08-28.09.08-28.23.02ZM51.57,49.69c-12.9,4.99-24.37,1.07-27.03.01v-7.54c3.79,1.41,14.6,4.51,27.03-.03v7.55Z"/>
      <path class="cls-1" d="M23.97,53.71l-1.42-.66v11.9l.58.27c.38.18,6.39,2.93,14.98,2.93,4.41,0,9.5-.73,14.85-2.91l.62-.25v-11.85l-1.38.56c-14.91,6.08-28.09.08-28.23.02ZM51.57,63.63c-12.9,4.99-24.37,1.07-27.03.01v-7.54c3.79,1.41,14.6,4.51,27.03-.03v7.55Z"/>
    </g>
  </g>
</svg>