<?xml version="1.0" encoding="UTF-8"?>
<svg id="Layer_2" data-name="Layer 2" xmlns="http://www.w3.org/2000/svg" viewBox="0 0 75.99 76">
  <defs>
    <style>
      .cls-1 {
        fill: #f900d3;
      }
    </style>
  </defs>
  <g id="Layer_1-2" data-name="Layer 1">
    <g>
      <path class="cls-1" d="M0,0v76h75.99V0H0ZM73.99,74H2V2h71.99v72Z"/>
      <path class="cls-1" d="M24.54,45.49l15.45,8.82v-.33s13.05-7.87,13.05-7.87v-13.3h-.13l.08-.05-14.3-8.71-14.23,8.12.07.04v13.28ZM26.54,44.33v-10.94l11.74,6.91-.22,10.6-11.52-6.58ZM51.04,44.98l-11,6.63.23-11.03,10.77-6.63v11.02ZM38.66,26.37l10.5,6.4-9.65,5.94-11.06-6.51,10.2-5.82Z"/>
      <path class="cls-1" d="M10.93,51.24c0,3.1,2.52,5.62,5.62,5.62,1.35,0,2.59-.48,3.56-1.27l12.26,8.74c.27,2.85,2.67,5.08,5.59,5.08s5.32-2.23,5.59-5.08l12.31-8.72c.97.78,2.19,1.25,3.53,1.25,3.1,0,5.62-2.52,5.62-5.62,0-2.76-2-5.05-4.62-5.52v-13.39c2.62-.47,4.62-2.77,4.62-5.52,0-3.1-2.52-5.62-5.62-5.62-1.35,0-2.59.48-3.56,1.27l-12.33-8c.04-.28.07-.56.07-.85,0-3.1-2.52-5.62-5.62-5.62s-5.62,2.52-5.62,5.62c0,.56.08,1.1.24,1.61l-11.93,6.98c-1.03-1.1-2.48-1.79-4.1-1.79-3.1,0-5.62,2.52-5.62,5.62,0,2.76,2,5.05,4.62,5.52v14.16c-2.62.47-4.62,2.77-4.62,5.52ZM16.55,54.86c-2,0-3.62-1.62-3.62-3.62s1.62-3.62,3.62-3.62,3.62,1.62,3.62,3.62-1.62,3.62-3.62,3.62ZM37.96,67.41c-2,0-3.62-1.62-3.62-3.62s1.62-3.62,3.62-3.62,3.62,1.62,3.62,3.62-1.62,3.62-3.62,3.62ZM63.01,51.24c0,2-1.62,3.62-3.62,3.62s-3.62-1.62-3.62-3.62,1.62-3.62,3.62-3.62,3.62,1.62,3.62,3.62ZM59.4,23.19c2,0,3.62,1.62,3.62,3.62s-1.62,3.62-3.62,3.62-3.62-1.62-3.62-3.62,1.62-3.62,3.62-3.62ZM37.96,9.99c2,0,3.62,1.62,3.62,3.62s-1.62,3.62-3.62,3.62-3.62-1.62-3.62-3.62,1.62-3.62,3.62-3.62ZM33.49,17c1.03,1.35,2.65,2.23,4.47,2.23,2.08,0,3.9-1.14,4.87-2.83l11.7,7.6c-.48.83-.76,1.78-.76,2.81,0,2.76,2,5.05,4.62,5.52v13.39c-2.62.47-4.62,2.77-4.62,5.52,0,1.04.29,2.01.78,2.84l-11.25,7.97c-.73-2.25-2.85-3.88-5.34-3.88s-4.6,1.63-5.34,3.88l-11.22-8c.48-.83.76-1.79.76-2.81,0-2.76-2-5.05-4.62-5.52v-14.16c2.62-.47,4.62-2.77,4.62-5.52,0-.76-.15-1.49-.43-2.15l11.76-6.88ZM12.93,26.03c0-2,1.62-3.62,3.62-3.62s3.62,1.62,3.62,3.62-1.62,3.62-3.62,3.62-3.62-1.62-3.62-3.62Z"/>
    </g>
  </g>
</svg>