<?xml version="1.0" encoding="UTF-8"?>
<svg id="Layer_2" data-name="Layer 2" xmlns="http://www.w3.org/2000/svg" viewBox="0 0 75.99 76">
  <defs>
    <style>
      .cls-1 {
        fill: #f900d3;
      }
    </style>
  </defs>
  <g id="Layer_1-2" data-name="Layer 1">
    <g>
      <path class="cls-1" d="M0,0v76h75.99V0H0ZM73.99,74H2V2h71.99v72Z"/>
      <path class="cls-1" d="M21.6,35.57c-2.49.12-4.67,2.37-4.75,4.92-.02.74-.02,1.5-.02,2.23v.93c0,.81,0,1.63,0,2.44,0,.9.3,1.19,1.21,1.19h32.77s7.23,0,7.23,0c.86,0,1.16-.3,1.16-1.17v-1.76c0-1.19,0-2.42,0-3.63,0-1.35-.5-2.55-1.47-3.57-1.04-1.1-2.39-1.66-4.03-1.67h-.36c-.25,0-.51,0-.76,0h-.82s.35-.1.35-.1c.91-.25,1.68-.68,2.3-1.3.99-.98,1.54-2.31,1.54-3.76.01-2.95-2.31-5.28-5.29-5.31-.03,0-.05,0-.08,0-1.35,0-2.64.54-3.63,1.52-1.02,1.01-1.58,2.34-1.58,3.76.03,2.42,1.59,4.46,3.88,5.09l.34.1h-.36c-.15,0-.31,0-.46,0-.35,0-.71,0-1.06.01-.61.01-1.21.15-1.78.28l-.3.07c-.08.02-.13.03-.15-.01-1.1-.97-2.42-1.46-3.9-1.46h-.01c-.35,0-.69,0-1.04,0h-.83s-.34,0-.34,0l.33-.1c.95-.29,1.83-.82,2.52-1.55,1.06-1.1,1.63-2.56,1.58-4,.04-1.47-.52-2.89-1.6-4-1.1-1.13-2.62-1.79-4.17-1.79-1.53,0-3.04.63-4.13,1.73-1.07,1.07-1.66,2.52-1.66,4.08,0,1.55.6,3,1.68,4.08.68.67,1.53,1.17,2.46,1.45l.33.1h-.35c-.29,0-.57,0-.85,0-.34,0-.68,0-1.02,0h-.03c-1.43,0-2.77.5-3.87,1.44h-.01s-.09.03-.13.02c-.19-.03-.38-.08-.57-.13h-.03c-.37-.1-.75-.2-1.16-.2h-.29c-.53,0-1.06,0-1.59,0h-.38s.37-.1.37-.1c2.33-.62,3.9-2.66,3.89-5.09,0-2.98-2.27-5.25-5.27-5.28-1.42.01-2.75.55-3.73,1.52-1.02,1-1.58,2.33-1.58,3.74,0,1.44.56,2.8,1.59,3.82.64.64,1.43,1.08,2.33,1.32l.35.09h-.64c-.69.02-1.41.03-2.1.06ZM47.29,30.28c0-.9.34-1.73.97-2.35.63-.63,1.49-.98,2.41-.98,1.88,0,3.34,1.5,3.34,3.4,0,1.86-1.5,3.31-3.41,3.31-1.83,0-3.31-1.52-3.31-3.39ZM46.84,37.49c.18-.03.37-.06.55-.06,1.71-.01,3.38-.01,5.23,0h1.18c1.93,0,3.46,1.5,3.49,3.42.01.83,0,1.68,0,2.49,0,.65,0,1.29,0,2.01v.05h-.05c-.3-.02-.64-.02-1.07,0h-.05s0-.05,0-.05c0-.64,0-1.28,0-1.93v-.86c0-.08,0-.16,0-.24-.03-.55-.41-.91-.95-.91-.56,0-.93.38-.94.95v.47c0,.83-.02,1.69,0,2.54v.06h-.05c-2.1-.02-4.43-.02-6.69,0h-.05s0-.05,0-.05c0-.63,0-1.28,0-1.91,0-.72,0-1.46.01-2.2.02-1.1,0-2.39-.65-3.68l-.03-.06h.07ZM35.26,31.48c-.72-.73-1.14-1.75-1.12-2.75,0-1.04.4-2.01,1.14-2.75.73-.73,1.7-1.13,2.72-1.13h0c1.03,0,2.01.41,2.74,1.15.73.74,1.13,1.71,1.13,2.74-.01,1.85-1.37,3.84-3.86,3.85,0,0-.01,0-.02,0-1.47,0-2.4-.78-2.74-1.12ZM30.47,45.34c0-.51,0-1.02,0-1.53v-.13c0-1.34,0-2.72.08-4.08.1-1.63,1.74-3.22,3.38-3.27,2.79-.09,5.31-.1,7.72-.05,1.98.04,3.41,1.28,3.83,3.29.03.14.03.28.03.42v1.81c0,1.16,0,2.31,0,3.54v.05h-.05c-.41-.02-.85-.02-1.42,0h-.05s0-.05,0-.05c0-1.1.02-2.27-.01-3.44,0-.36-.28-.71-.55-.87-.33-.21-.8-.03-1.02.15-.25.22-.29.59-.29.79-.01,1.19-.02,2.26,0,3.36l.02.07h-.07c-.98-.02-1.97-.02-2.93-.02h-1.12s-1.12,0-1.12,0c-1.04,0-1.98,0-2.93.01h-.06s0-.06,0-.06c.02-1.11.02-2.24,0-3.37,0-.33-.2-.71-.47-.9-.27-.19-.6-.22-.88-.08-.32.16-.52.51-.53.91,0,.53,0,1.08,0,1.6v1.13c0,.23,0,.46,0,.7v.05s-.05,0-.05,0c-.42,0-.88,0-1.44,0h-.05s0-.05,0-.05ZM22.93,32.63c-.62-.65-.95-1.5-.92-2.35,0-1.87,1.47-3.33,3.35-3.33.9,0,1.75.35,2.39.98.63.63.98,1.48.98,2.38,0,1.88-1.51,3.35-3.43,3.35h0c-.87,0-1.74-.38-2.37-1.04ZM28.63,37.43c.18,0,.37.03.52.05h.06s-.07.24-.07.24c-.18.57-.35,1.11-.49,1.65-.07.28-.07.56-.07.81v.16s0,.93,0,.93c0,1.33,0,2.71,0,4.07v.05s-.05,0-.05,0c0,0,0,0-.01,0s0,0-.01,0c-1.09,0-2.21-.01-3.32-.01s-2.24,0-3.36.01h-.05s0-.05,0-.05c.02-1.03.02-2.04,0-3-.01-.34-.26-.72-.56-.87-.36-.17-.8.03-.98.16-.26.18-.31.53-.32.79,0,.83-.02,1.82,0,2.92v.05s-.05,0-.05,0c-.34-.01-.68,0-1.09,0h-.05s0-.05,0-.05c0-.47,0-.95,0-1.42-.01-1.08-.02-2.18.03-3.26.09-1.84,1.58-3.23,3.48-3.23h1.34c1.7,0,3.37,0,5.07,0Z"/>
      <path class="cls-1" d="M9.5,27.1h0c.14.32.62.54.95.54.55-.02,1.08-.06,1.55-.1.68-.05,1.37-.11,2.05-.11.07,0,.12,0,.17-.02l1.3-.06-.11-2.42-2.55.12.09-.19c1.12-2.38,2.44-4.37,4.04-6.08,7.04-7.52,15.56-10.27,25.34-8.17,8.14,1.75,14.23,6.61,18.08,14.46.42.85.7.78,1.6.4l.15-.06c.3-.12.48-.28.56-.49.11-.3-.02-.57-.16-.87-5.48-11.75-18.19-18.34-30.89-16.03-9.4,1.71-16.4,6.99-20.81,15.71l-.12.24-1.05-2.43-2.17.91.58,1.39c.45,1.07.91,2.19,1.39,3.27Z"/>
      <path class="cls-1" d="M31.91,59.68l-.79-1.27-2.01,1.25,1.23,2.03-.28-.06c-2.33-.47-7.06-2.67-9.66-4.81-7.54-6.21-10.85-14.43-9.82-24.43l.04-.36-2.21-.29-.06.35c-.86,5.02-.08,10.84,2.06,15.57,3.82,8.42,10.38,13.93,19.5,16.4l.18.05-1.54,1.94,1.84,1.47.87-1.07c.82-1,1.62-1.98,2.42-2.96.16-.19.22-.57.08-.81-.6-1-1.22-1.99-1.85-3Z"/>
      <path class="cls-1" d="M60.63,32.4l-1.19,1.1,1.57,1.75,1.76-1.58.02.25c.28,3.28,0,6.38-.87,9.23-2.65,8.78-8.27,14.77-16.7,17.79l-4.11,1.26.69,2.33,3.61-1.07v-.03s.09-.03.09-.03c4.59-1.46,8.76-4.12,12.04-7.68,5.62-6.09,8.17-13.52,7.6-22.08v-.22s2.24,1.19,2.24,1.19l1.12-2.07-3.76-2.06c-1.18-.64-1.35-.62-2.33.28-.6.55-1.19,1.1-1.8,1.65Z"/>
    </g>
  </g>
</svg>