<?xml version="1.0" encoding="UTF-8"?>
<svg id="Layer_2" data-name="Layer 2" xmlns="http://www.w3.org/2000/svg" viewBox="0 0 75.99 76">
  <defs>
    <style>
      .cls-1 {
        fill: #f900d3;
      }
    </style>
  </defs>
  <g id="Layer_1-2" data-name="Layer 1">
    <g>
      <path class="cls-1" d="M0,0v76h75.99V0H0ZM73.99,74H2V2h71.99v72Z"/>
      <path class="cls-1" d="M46.81,50.05c-.11-.19-.3-.33-.51-.37l-4.34-.85c-1.61-.31-2.89-.39-4.01-.24-1.16.16-2.19.56-3.15,1.23l-5-.56h-.09c-.27,0-.53.14-.66.37l-4.53,7.84c-.17.26-.17.59,0,.85l1.27,1.87-.05.07h0c-.43.62-.56,1.38-.36,2.08.1.36.28.7.52.96.26.29.58.5.92.61.1.03.21.06.31.07,0,.3.06.59.17.87.14.37.37.7.65.94.31.27.69.44,1.09.49.23.03.47.01.72-.04.02.06.04.13.06.2.14.38.37.71.67.95.33.26.73.41,1.15.43.21.01.42,0,.63-.06.05.13.11.26.19.39.19.3.45.57.76.76.32.2.69.31,1.06.34.05,0,.1,0,.15,0,.66,0,1.28-.3,1.76-.85l.12-.14c.33.17.67.31,1.03.43.56.19,1.13.31,1.72.37.81.07,1.55,0,2.14-.22.41-.15.75-.37,1-.65.23-.25.38-.53.45-.84.43.03.84-.02,1.19-.15.39-.14.73-.37.96-.67.22-.27.35-.59.38-.92.32-.01.62-.09.9-.23.35-.17.65-.45.85-.79.19-.32.3-.69.31-1.07,0-.09,0-.18,0-.27.15-.01.29-.04.44-.09.39-.12.73-.35.99-.67.24-.3.4-.67.45-1.08.06-.47-.03-.95-.24-1.41l1.92-1.6c.32-.23.42-.66.22-1l-4.22-7.37ZM41.42,58.81c-.2.05-.36.17-.47.34-.11.17-.14.38-.09.57.05.2.17.37.34.47l4.24,2.61c.2.18.3.42.3.69,0,.12-.04.24-.1.34-.06.09-.13.16-.23.21-.23.11-.56.09-.91-.04l-4-2.42c-.36-.21-.83-.1-1.04.26-.11.17-.14.38-.09.58.05.2.17.36.34.46l3.9,2.36c.04.07.06.14.06.2,0,.06-.02.11-.07.17-.06.08-.16.14-.28.18-.22.08-.62.13-1.19-.05l-3.08-1.52c-.37-.19-.83-.03-1.01.35-.18.37-.03.83.34,1.02l2.79,1.38s0,.01,0,.02c0,.08-.04.15-.1.21-.09.1-.23.19-.41.25-.39.14-.9.19-1.48.13-.46-.04-.92-.14-1.37-.3-.2-.07-.41-.15-.61-.24l.24-.38c.25-.39.33-.91.22-1.41-.1-.46-.35-.88-.72-1.2-.38-.34-.8-.54-1.24-.6,0-.11-.01-.21-.03-.32-.09-.53-.37-1.01-.76-1.32-.31-.24-.69-.41-1.08-.49,0-.23-.02-.47-.09-.71-.15-.48-.45-.93-.83-1.21-.07-.05-.15-.1-.23-.14-.64-.34-1.27-.42-1.86-.24-.2.06-.39.16-.57.28-.04-.04-.07-.08-.11-.12-.27-.28-.61-.5-.96-.63-.39-.14-.8-.17-1.19-.1-.39.08-.74.27-1.04.56l-.09.09-.81-1.19,4.06-7.04,3.16.35-1.35,1.25c-.6.55-.91,1.13-.93,1.75-.02.54.17,1.07.59,1.68l.04.06c.38.51.85.86,1.36,1.01.66.18,1.34.04,2.02-.43l3.1-2.22,9.27,6.14c.2.27.28.56.25.82h0c-.01.12-.06.23-.13.32-.07.08-.15.14-.26.17-.25.08-.58.02-.93-.17l-4.31-2.66c-.17-.11-.38-.14-.57-.09ZM34.39,67.75c-.12,0-.24-.05-.35-.12-.11-.07-.21-.16-.27-.26-.06-.1-.12-.25-.07-.42l1.38-1.9c.1-.06.24-.11.39-.11.16.01.33.09.5.24.15.13.21.28.23.38.03.13.01.24-.02.28l-.63,1.01-.49.58c-.2.23-.43.33-.67.33ZM26.98,61.15l.3-.38.72-.69c.09-.09.19-.14.29-.16.04,0,.07-.01.11-.01.08,0,.17.02.25.05.14.05.28.14.39.26.06.06.11.12.15.19l-1.57,2.05c-.12.06-.23.07-.33.04-.09-.03-.18-.09-.26-.18-.09-.1-.16-.22-.19-.36-.05-.16-.09-.49.14-.81ZM28.78,63.44l1.9-2.48c.22-.29.42-.46.61-.52.05-.02.1-.02.16-.02.15,0,.34.06.57.19.12.09.22.24.28.42.05.16.04.28,0,.34l-2.27,3.1c-.29.24-.56.36-.79.33-.11-.01-.21-.06-.29-.13-.09-.08-.17-.19-.22-.33-.11-.29-.08-.63.05-.89ZM31.27,65.35l1.86-2.53c.08-.03.19-.04.31-.04.2.02.41.1.56.21.1.08.17.22.2.38.02.15,0,.29-.05.36l-1.68,2.32c-.27.19-.53.31-.74.28-.1,0-.2-.04-.28-.1-.08-.07-.15-.16-.19-.28-.07-.18-.06-.4,0-.6ZM38.5,52.73c-.13-.08-.27-.12-.42-.12-.15,0-.31.05-.44.14l-3.42,2.45-.1.06c-.29.2-.54.28-.75.22-.23-.06-.42-.27-.56-.47-.23-.32-.33-.56-.32-.76,0-.2.16-.43.45-.7l2.54-2.35c.81-.62,1.65-.97,2.65-1.11.96-.13,2.08-.05,3.53.23l4,.78,3.74,6.52-1.55,1.29-9.34-6.18Z"/>
      <path class="cls-1" d="M29.31,47.18l-4.03-2.33c-.36-.2-.83-.08-1.03.28l-6.54,11.34c-.21.36-.09.81.26,1.03l3.98,2.43c.12.07.25.11.38.11.26,0,.52-.14.68-.4l6.58-11.41c.21-.36.08-.83-.28-1.03ZM27.89,48.12l-5.83,10.1-2.68-1.64,5.79-10.04,2.72,1.57Z"/>
      <path class="cls-1" d="M53.99,57c.6,0,1.08-.49,1.08-1.08s-.49-1.08-1.08-1.08-1.08.49-1.08,1.08.49,1.08,1.08,1.08Z"/>
      <path class="cls-1" d="M51.33,45.02c-.21-.36-.67-.48-1.03-.28l-4.04,2.33c-.36.21-.49.67-.28,1.04l6.61,11.45c.11.17.27.29.47.34.06.01.12.02.18.02.14,0,.27-.04.39-.11l3.98-2.43c.35-.22.47-.67.26-1.02l-6.54-11.34ZM56.19,56.47l-2.68,1.64-5.83-10.1,2.72-1.57,5.79,10.04Z"/>
      <polygon class="cls-1" points="66.83 43.71 55.14 43.71 55.14 45.71 65.98 45.71 66.83 43.71"/>
      <polygon class="cls-1" points="29.92 45.71 45.94 45.71 46.58 43.71 29.92 43.71 29.92 45.71"/>
      <polygon class="cls-1" points="20.58 43.71 7.98 43.71 7.98 45.71 19.81 45.71 20.58 43.71"/>
      <path class="cls-1" d="M22.11,19.8h5.39v22.22h2V13.95h16.59v27.95h2v-22.1h4.67v22.1h2v-24.1h-6.67v-5.85h-2.18v-3.24h-16.23v3.24h-2.18v5.85h-7.39v24.22h2v-22.22ZM31.68,10.7h12.23v1.1h-12.23v-1.1Z"/>
      <rect class="cls-1" x="30.97" y="15.62" width="13.33" height="2"/>
      <rect class="cls-1" x="30.97" y="19.6" width="13.33" height="2"/>
      <rect class="cls-1" x="30.97" y="23.58" width="13.33" height="2"/>
      <rect class="cls-1" x="30.97" y="27.56" width="13.33" height="2"/>
      <rect class="cls-1" x="30.97" y="31.55" width="13.33" height="2"/>
      <rect class="cls-1" x="30.97" y="35.53" width="13.33" height="2"/>
      <rect class="cls-1" x="30.97" y="39.51" width="13.33" height="2"/>
    </g>
  </g>
</svg>