<?xml version="1.0" encoding="UTF-8"?>
<svg id="Layer_2" data-name="Layer 2" xmlns="http://www.w3.org/2000/svg" viewBox="0 0 76 76">
  <defs>
    <style>
      .cls-1 {
        fill: #f900d3;
      }
    </style>
  </defs>
  <g id="Layer_1-2" data-name="Layer 1">
    <g>
      <path class="cls-1" d="M37.94,36.01c7.8,0,14.14-6.34,14.14-14.14s-6.34-14.14-14.14-14.14-14.14,6.34-14.14,14.14,6.34,14.14,14.14,14.14ZM37.94,9.72c6.7,0,12.14,5.45,12.14,12.14s-5.45,12.14-12.14,12.14-12.14-5.45-12.14-12.14,5.45-12.14,12.14-12.14Z"/>
      <path class="cls-1" d="M68.15,67.28c0-15.72-12.79-28.51-28.51-28.51h-3.29c-15.72,0-28.51,12.79-28.51,28.51v1h60.31v-1ZM9.85,66.28c.53-14.16,12.21-25.51,26.49-25.51h3.29c14.28,0,25.97,11.35,26.49,25.51H9.85Z"/>
      <path class="cls-1" d="M0,0v76h76V0H0ZM74,74H2V2h72v72Z"/>
    </g>
  </g>
</svg>