<?xml version="1.0" encoding="UTF-8"?>
<svg id="graphics" xmlns="http://www.w3.org/2000/svg" version="1.1" viewBox="0 0 72 72">
  <!-- Generator: Adobe Illustrator 29.0.1, SVG Export Plug-In . SVG Version: 2.1.0 Build 192)  -->
  <defs>
    <style>
      .st0 {
        fill: #f900d3;
      }
    </style>
  </defs>
  <path class="st0" d="M65,17.3l-29-10.4L7,17.3v47.7h58V17.3ZM9,18.7l27-9.6,27,9.6v8.3H16v36h-7V18.7ZM45,31.5h-27v-2.5h27v2.5ZM18,33.5h27v2.5h-27v-2.5ZM18,38h27v2.5h-27v-2.5ZM18,47h9v2.5h-9v-2.5ZM18,51.5h9v2.5h-9v-2.5ZM18,56h9v2.5h-9v-2.5ZM18,60.5h9v2.5h-9v-2.5ZM29,47h7v6h2v-6h7v16h-16v-16ZM18,45v-2.5h27v2.5h-27ZM47,29h7v6h2v-6h7v16h-16v-16ZM47,63v-16h7v6h2v-6h7v16h-16ZM0,0v72h72V0H0ZM70,70H2V2h68v68Z"/>
</svg>